M48
METRIC,LZ,000.000
;FILE_FORMAT=3:3
;TYPE=NON_PLATED
;Layer: NPTH_Through
;EasyEDA v6.5.22, 2022-12-11 09:51:38
;e12cfe8ce6ad4c4799b389a6830ee86a,10
;Gerber Generator version 0.2
;Holesize 1 = 1.000 mm
T01C1.000
;Holesize 2 = 2.501 mm
T02C2.501
;Holesize 3 = 3.000 mm
T03C3.000
%
G05
G90
T01
X046454Y007342
X012454Y007342
X029454Y007342
X063454Y007342
X080453Y007342
X097453Y007342
X114453Y007342
T02
X042103Y011992
X045902Y011992
X008103Y011992
X011902Y011992
X025103Y011992
X028902Y011992
X059102Y011992
X062902Y011992
X076102Y011993
X079902Y011993
X093102Y011993
X096902Y011993
X110102Y011993
X113902Y011993
T03
X003000Y027000
X003000Y003000
X119000Y027000
X119000Y003000
M30
