M48
METRIC,LZ,000.000
;FILE_FORMAT=3:3
;TYPE=PLATED
;Layer: PTH_Through
;EasyEDA v6.5.22, 2022-12-11 09:51:38
;e12cfe8ce6ad4c4799b389a6830ee86a,10
;Gerber Generator version 0.2
;Holesize 1 = 0.889 mm
T01C0.889
;Holesize 2 = 0.901 mm
T02C0.901
;Holesize 3 = 1.000 mm
T03C1.000
%
G05
G90
T01
X050840Y027000
X053380Y027000
X055920Y027000
X058460Y027000
X061000Y027000
X063540Y027000
X066080Y027000
X068620Y027000
X071160Y027000
T02
X008735Y003000
X011275Y003000
X025735Y003000
X028275Y003000
X042691Y003000
X045231Y003000
X059730Y003000
X062270Y003000
X076730Y003000
X079270Y003000
X093730Y003000
X096270Y003000
X110730Y003000
X113270Y003000
T03
X042730Y009249
X042730Y014751
X045270Y009249
X045270Y014751
X008730Y009249
X008730Y014751
X011270Y009249
X011270Y014751
X025730Y009249
X025730Y014751
X028270Y009249
X028270Y014751
X059730Y009249
X059730Y014751
X062270Y009249
X062270Y014751
X076730Y009249
X076730Y014751
X079270Y009249
X079270Y014751
X093730Y009249
X093730Y014751
X096270Y009249
X096270Y014751
X110730Y009249
X110730Y014751
X113270Y009249
X113270Y014751
M30
