G04 Layer: TopSolderMaskLayer*
G04 EasyEDA v6.5.22, 2022-12-11 09:51:38*
G04 e12cfe8ce6ad4c4799b389a6830ee86a,10*
G04 Gerber Generator version 0.2*
G04 Scale: 100 percent, Rotated: No, Reflected: No *
G04 Dimensions in millimeters *
G04 leading zeros omitted , absolute positions ,4 integer and 5 decimal *
%FSLAX45Y45*%
%MOMM*%

%AMMACRO1*1,1,$1,$2,$3*1,1,$1,$4,$5*1,1,$1,0-$2,0-$3*1,1,$1,0-$4,0-$5*20,1,$1,$2,$3,$4,$5,0*20,1,$1,$4,$5,0-$2,0-$3,0*20,1,$1,0-$2,0-$3,0-$4,0-$5,0*20,1,$1,0-$4,0-$5,$2,$3,0*4,1,4,$2,$3,$4,$5,0-$2,0-$3,0-$4,0-$5,$2,$3,0*%
%ADD10C,2.1016*%
%ADD11MACRO1,0.1016X-0.432X0.4032X0.432X0.4032*%
%ADD12MACRO1,0.1016X-0.432X-0.4032X0.432X-0.4032*%
%ADD13MACRO1,0.1016X0.432X-0.4032X-0.432X-0.4032*%
%ADD14MACRO1,0.1016X0.432X0.4032X-0.432X0.4032*%
%ADD15R,0.9656X0.9081*%
%ADD16MACRO1,0.1016X-0.7874X0.7874X0.7874X0.7874*%
%ADD17C,1.6764*%
%ADD18C,1.6000*%

%LPD*%
D10*
G01*
X4272991Y924915D03*
G01*
X4272991Y1475079D03*
G01*
X4526991Y924915D03*
G01*
X4526991Y1475079D03*
D11*
G01*
X765200Y1974175D03*
D12*
G01*
X765200Y2124825D03*
D13*
G01*
X1247800Y2124825D03*
D14*
G01*
X1247800Y1974175D03*
D10*
G01*
X872997Y924915D03*
G01*
X872997Y1475079D03*
G01*
X1126997Y924915D03*
G01*
X1126997Y1475079D03*
G01*
X2572994Y924915D03*
G01*
X2572994Y1475079D03*
G01*
X2826994Y924915D03*
G01*
X2826994Y1475079D03*
G01*
X5972987Y924915D03*
G01*
X5972987Y1475079D03*
G01*
X6226987Y924915D03*
G01*
X6226987Y1475079D03*
G01*
X7672984Y924940D03*
G01*
X7672984Y1475104D03*
G01*
X7926984Y924940D03*
G01*
X7926984Y1475104D03*
G01*
X9372981Y924940D03*
G01*
X9372981Y1475104D03*
G01*
X9626981Y924940D03*
G01*
X9626981Y1475104D03*
G01*
X11072977Y924940D03*
G01*
X11072977Y1475104D03*
G01*
X11326977Y924940D03*
G01*
X11326977Y1475104D03*
D11*
G01*
X2416200Y1974175D03*
D12*
G01*
X2416200Y2124825D03*
D13*
G01*
X2936900Y2124825D03*
D14*
G01*
X2936900Y1974175D03*
D11*
G01*
X4168800Y1974175D03*
D12*
G01*
X4168800Y2124825D03*
D13*
G01*
X4638700Y2124825D03*
D14*
G01*
X4638700Y1974175D03*
D11*
G01*
X5857900Y1974175D03*
D12*
G01*
X5857900Y2124825D03*
D13*
G01*
X6353200Y2124825D03*
D14*
G01*
X6353200Y1974175D03*
D11*
G01*
X7559700Y1974175D03*
D12*
G01*
X7559700Y2124825D03*
D13*
G01*
X7999984Y2124825D03*
D15*
G01*
X7999984Y1974164D03*
D11*
G01*
X9299981Y1974175D03*
D12*
G01*
X9299981Y2124825D03*
D13*
G01*
X9699980Y2124825D03*
D14*
G01*
X9699980Y1974175D03*
D11*
G01*
X10999978Y1974175D03*
D12*
G01*
X10999978Y2124825D03*
D13*
G01*
X11399977Y2124825D03*
D14*
G01*
X11399977Y1974175D03*
D16*
G01*
X5083987Y2699994D03*
D17*
G01*
X5337987Y2699994D03*
G01*
X5591987Y2699994D03*
G01*
X5845987Y2699994D03*
G01*
X6099987Y2699994D03*
G01*
X6353987Y2699994D03*
G01*
X6607987Y2699994D03*
G01*
X6861987Y2699994D03*
G01*
X7115987Y2699994D03*
D18*
G01*
X873505Y299999D03*
G01*
X1127505Y299999D03*
G01*
X2573502Y299999D03*
G01*
X2827502Y299999D03*
G01*
X4269079Y299999D03*
G01*
X4523104Y299999D03*
G01*
X5972987Y299999D03*
G01*
X6226987Y299999D03*
G01*
X7672984Y299999D03*
G01*
X7926984Y299999D03*
G01*
X9372981Y299999D03*
G01*
X9626981Y299999D03*
G01*
X11072977Y299999D03*
G01*
X11326977Y299999D03*
M02*
