G04 Layer: TopLayer*
G04 EasyEDA v6.5.22, 2022-12-11 09:51:38*
G04 e12cfe8ce6ad4c4799b389a6830ee86a,10*
G04 Gerber Generator version 0.2*
G04 Scale: 100 percent, Rotated: No, Reflected: No *
G04 Dimensions in millimeters *
G04 leading zeros omitted , absolute positions ,4 integer and 5 decimal *
%FSLAX45Y45*%
%MOMM*%

%AMMACRO1*21,1,$1,$2,0,0,$3*%
%ADD10C,0.6000*%
%ADD11MACRO1,0.864X0.8065X0.0000*%
%ADD12R,0.8640X0.8065*%
%ADD13C,2.0000*%
%ADD14R,1.5748X1.5748*%
%ADD15C,1.5748*%
%ADD16C,1.5000*%
%ADD17C,0.0144*%

%LPD*%
G36*
X300685Y25908D02*
G01*
X278079Y26822D01*
X256743Y29362D01*
X235610Y33629D01*
X214934Y39471D01*
X194767Y46939D01*
X175209Y55981D01*
X156464Y66548D01*
X138582Y78536D01*
X121716Y91846D01*
X105918Y106476D01*
X91338Y122326D01*
X78028Y139242D01*
X66141Y157124D01*
X55626Y175920D01*
X46634Y195478D01*
X39217Y215696D01*
X33426Y236423D01*
X29260Y257505D01*
X26771Y278892D01*
X25908Y300685D01*
X25908Y2699308D01*
X26822Y2721914D01*
X29362Y2743250D01*
X33629Y2764383D01*
X39471Y2785059D01*
X46939Y2805226D01*
X55981Y2824784D01*
X66548Y2843530D01*
X78536Y2861411D01*
X91846Y2878277D01*
X106476Y2894076D01*
X122326Y2908655D01*
X139242Y2921965D01*
X157124Y2933852D01*
X175920Y2944368D01*
X195478Y2953359D01*
X215696Y2960776D01*
X236423Y2966567D01*
X257505Y2970733D01*
X278892Y2973222D01*
X300685Y2974086D01*
X11899290Y2974086D01*
X11921896Y2973171D01*
X11943232Y2970631D01*
X11964365Y2966364D01*
X11985040Y2960522D01*
X12005208Y2953054D01*
X12024766Y2944012D01*
X12043511Y2933446D01*
X12061393Y2921457D01*
X12078258Y2908147D01*
X12094057Y2893517D01*
X12108637Y2877667D01*
X12121946Y2860751D01*
X12133834Y2842869D01*
X12144349Y2824073D01*
X12153341Y2804515D01*
X12160758Y2784297D01*
X12166549Y2763570D01*
X12170714Y2742488D01*
X12173204Y2721102D01*
X12174067Y2699308D01*
X12174067Y300685D01*
X12173153Y278079D01*
X12170613Y256743D01*
X12166346Y235610D01*
X12160504Y214934D01*
X12153036Y194767D01*
X12143994Y175209D01*
X12133427Y156464D01*
X12121438Y138582D01*
X12108129Y121716D01*
X12093498Y105918D01*
X12077649Y91338D01*
X12060732Y78028D01*
X12042851Y66141D01*
X12024055Y55626D01*
X12004497Y46634D01*
X11984278Y39217D01*
X11963552Y33426D01*
X11942470Y29260D01*
X11921083Y26771D01*
X11899290Y25908D01*
G37*

%LPC*%
G36*
X7006081Y2745689D02*
G01*
X7070293Y2745689D01*
X7070293Y2810052D01*
X7056374Y2803245D01*
X7044131Y2795168D01*
X7033006Y2785618D01*
X7023100Y2774746D01*
X7014616Y2762758D01*
X7007656Y2749854D01*
G37*
G36*
X11895226Y109575D02*
G01*
X11914225Y110032D01*
X11933072Y112369D01*
X11951563Y116636D01*
X11969597Y122682D01*
X11986869Y130454D01*
X12003328Y139954D01*
X12018772Y151079D01*
X12032996Y163626D01*
X12045899Y177546D01*
X12057380Y192684D01*
X12067286Y208889D01*
X12075515Y226009D01*
X12082018Y243840D01*
X12086691Y262229D01*
X12089536Y281025D01*
X12090501Y299974D01*
X12089536Y318973D01*
X12086691Y337769D01*
X12082018Y356158D01*
X12075515Y373989D01*
X12067286Y391109D01*
X12057380Y407314D01*
X12045899Y422452D01*
X12032996Y436372D01*
X12018772Y448919D01*
X12003328Y460044D01*
X11986869Y469544D01*
X11969597Y477316D01*
X11951563Y483362D01*
X11933072Y487629D01*
X11914225Y489966D01*
X11895226Y490423D01*
X11876278Y489000D01*
X11857583Y485698D01*
X11839295Y480568D01*
X11821617Y473659D01*
X11804751Y464972D01*
X11788749Y454659D01*
X11773916Y442823D01*
X11760352Y429564D01*
X11748109Y415035D01*
X11737441Y399338D01*
X11728348Y382676D01*
X11720982Y365150D01*
X11715343Y347014D01*
X11711584Y328371D01*
X11709704Y309473D01*
X11709704Y290525D01*
X11711584Y271627D01*
X11715343Y252984D01*
X11720982Y234848D01*
X11728348Y217322D01*
X11737441Y200660D01*
X11748109Y184962D01*
X11760352Y170434D01*
X11773916Y157175D01*
X11788749Y145338D01*
X11804751Y135026D01*
X11821617Y126339D01*
X11839295Y119430D01*
X11857583Y114300D01*
X11876278Y110998D01*
G37*
G36*
X9365742Y184759D02*
G01*
X9380220Y184759D01*
X9394647Y186537D01*
X9408668Y190144D01*
X9422180Y195478D01*
X9434880Y202488D01*
X9446615Y211023D01*
X9457182Y220929D01*
X9466427Y232105D01*
X9474200Y244348D01*
X9480346Y257505D01*
X9484868Y271272D01*
X9487560Y285546D01*
X9488474Y299974D01*
X9487560Y314452D01*
X9484868Y328726D01*
X9480346Y342493D01*
X9474200Y355650D01*
X9466427Y367893D01*
X9457182Y379069D01*
X9446615Y388975D01*
X9434880Y397510D01*
X9422180Y404520D01*
X9408668Y409854D01*
X9394647Y413461D01*
X9380220Y415239D01*
X9365742Y415239D01*
X9351314Y413461D01*
X9337294Y409854D01*
X9323832Y404520D01*
X9311081Y397510D01*
X9299346Y388975D01*
X9288780Y379069D01*
X9279534Y367893D01*
X9271762Y355650D01*
X9265615Y342493D01*
X9261094Y328726D01*
X9258401Y314452D01*
X9257487Y299974D01*
X9258401Y285546D01*
X9261094Y271272D01*
X9265615Y257505D01*
X9271762Y244348D01*
X9279534Y232105D01*
X9288780Y220929D01*
X9299346Y211023D01*
X9311081Y202488D01*
X9323832Y195478D01*
X9337294Y190144D01*
X9351314Y186537D01*
G37*
G36*
X4261815Y184759D02*
G01*
X4276344Y184759D01*
X4290720Y186537D01*
X4304792Y190144D01*
X4318254Y195478D01*
X4330954Y202488D01*
X4342688Y211023D01*
X4353306Y220929D01*
X4362551Y232105D01*
X4370324Y244348D01*
X4376470Y257505D01*
X4380941Y271272D01*
X4383684Y285546D01*
X4384598Y299974D01*
X4383684Y314452D01*
X4380941Y328726D01*
X4376470Y342493D01*
X4370324Y355650D01*
X4362551Y367893D01*
X4353306Y379069D01*
X4342688Y388975D01*
X4330954Y397510D01*
X4318254Y404520D01*
X4304792Y409854D01*
X4290720Y413461D01*
X4276344Y415239D01*
X4261815Y415239D01*
X4247438Y413461D01*
X4233418Y409854D01*
X4219905Y404520D01*
X4207205Y397510D01*
X4195470Y388975D01*
X4184904Y379069D01*
X4175658Y367893D01*
X4167886Y355650D01*
X4161688Y342493D01*
X4157218Y328726D01*
X4154525Y314452D01*
X4153611Y299974D01*
X4154525Y285546D01*
X4157218Y271272D01*
X4161688Y257505D01*
X4167886Y244348D01*
X4175658Y232105D01*
X4184904Y220929D01*
X4195470Y211023D01*
X4207205Y202488D01*
X4219905Y195478D01*
X4233418Y190144D01*
X4247438Y186537D01*
G37*
G36*
X7665720Y184759D02*
G01*
X7680248Y184759D01*
X7694625Y186537D01*
X7708696Y190144D01*
X7722158Y195478D01*
X7734858Y202488D01*
X7746593Y211023D01*
X7757159Y220929D01*
X7766405Y232105D01*
X7774178Y244348D01*
X7780375Y257505D01*
X7784846Y271272D01*
X7787589Y285546D01*
X7788452Y299974D01*
X7787589Y314452D01*
X7784846Y328726D01*
X7780375Y342493D01*
X7774178Y355650D01*
X7766405Y367893D01*
X7757159Y379069D01*
X7746593Y388975D01*
X7734858Y397510D01*
X7722158Y404520D01*
X7708696Y409854D01*
X7694625Y413461D01*
X7680248Y415239D01*
X7665720Y415239D01*
X7651343Y413461D01*
X7637272Y409854D01*
X7623809Y404520D01*
X7611109Y397510D01*
X7599375Y388975D01*
X7588808Y379069D01*
X7579563Y367893D01*
X7571790Y355650D01*
X7565593Y342493D01*
X7561122Y328726D01*
X7558379Y314452D01*
X7557516Y299974D01*
X7558379Y285546D01*
X7561122Y271272D01*
X7565593Y257505D01*
X7571790Y244348D01*
X7579563Y232105D01*
X7588808Y220929D01*
X7599375Y211023D01*
X7611109Y202488D01*
X7623809Y195478D01*
X7637272Y190144D01*
X7651343Y186537D01*
G37*
G36*
X11065713Y184759D02*
G01*
X11080242Y184759D01*
X11094618Y186537D01*
X11108690Y190144D01*
X11122152Y195478D01*
X11134852Y202488D01*
X11146586Y211023D01*
X11157153Y220929D01*
X11166398Y232105D01*
X11174171Y244348D01*
X11180368Y257505D01*
X11184839Y271272D01*
X11187582Y285546D01*
X11188446Y299974D01*
X11187582Y314452D01*
X11184839Y328726D01*
X11180368Y342493D01*
X11174171Y355650D01*
X11166398Y367893D01*
X11157153Y379069D01*
X11146586Y388975D01*
X11134852Y397510D01*
X11122152Y404520D01*
X11108690Y409854D01*
X11094618Y413461D01*
X11080242Y415239D01*
X11065713Y415239D01*
X11051336Y413461D01*
X11037265Y409854D01*
X11023803Y404520D01*
X11011103Y397510D01*
X10999368Y388975D01*
X10988802Y379069D01*
X10979556Y367893D01*
X10971784Y355650D01*
X10965586Y342493D01*
X10961116Y328726D01*
X10958372Y314452D01*
X10957509Y299974D01*
X10958372Y285546D01*
X10961116Y271272D01*
X10965586Y257505D01*
X10971784Y244348D01*
X10979556Y232105D01*
X10988802Y220929D01*
X10999368Y211023D01*
X11011103Y202488D01*
X11023803Y195478D01*
X11037265Y190144D01*
X11051336Y186537D01*
G37*
G36*
X5965748Y184759D02*
G01*
X5980226Y184759D01*
X5994654Y186537D01*
X6008674Y190144D01*
X6022187Y195478D01*
X6034887Y202488D01*
X6046622Y211023D01*
X6057188Y220929D01*
X6066434Y232105D01*
X6074206Y244348D01*
X6080353Y257505D01*
X6084874Y271272D01*
X6087567Y285546D01*
X6088481Y299974D01*
X6087567Y314452D01*
X6084874Y328726D01*
X6080353Y342493D01*
X6074206Y355650D01*
X6066434Y367893D01*
X6057188Y379069D01*
X6046622Y388975D01*
X6034887Y397510D01*
X6022187Y404520D01*
X6008674Y409854D01*
X5994654Y413461D01*
X5980226Y415239D01*
X5965748Y415239D01*
X5951321Y413461D01*
X5937300Y409854D01*
X5923838Y404520D01*
X5911088Y397510D01*
X5899353Y388975D01*
X5888786Y379069D01*
X5879541Y367893D01*
X5871768Y355650D01*
X5865622Y342493D01*
X5861100Y328726D01*
X5858408Y314452D01*
X5857494Y299974D01*
X5858408Y285546D01*
X5861100Y271272D01*
X5865622Y257505D01*
X5871768Y244348D01*
X5879541Y232105D01*
X5888786Y220929D01*
X5899353Y211023D01*
X5911088Y202488D01*
X5923838Y195478D01*
X5937300Y190144D01*
X5951321Y186537D01*
G37*
G36*
X2566263Y184759D02*
G01*
X2580741Y184759D01*
X2595118Y186537D01*
X2609189Y190144D01*
X2622651Y195478D01*
X2635402Y202488D01*
X2647137Y211023D01*
X2657703Y220929D01*
X2666949Y232105D01*
X2674721Y244348D01*
X2680868Y257505D01*
X2685338Y271272D01*
X2688082Y285546D01*
X2688996Y299974D01*
X2688082Y314452D01*
X2685338Y328726D01*
X2680868Y342493D01*
X2674721Y355650D01*
X2666949Y367893D01*
X2657703Y379069D01*
X2647137Y388975D01*
X2635402Y397510D01*
X2622651Y404520D01*
X2609189Y409854D01*
X2595118Y413461D01*
X2580741Y415239D01*
X2566263Y415239D01*
X2551836Y413461D01*
X2537815Y409854D01*
X2524302Y404520D01*
X2511602Y397510D01*
X2499868Y388975D01*
X2489301Y379069D01*
X2480056Y367893D01*
X2472283Y355650D01*
X2466136Y342493D01*
X2461615Y328726D01*
X2458923Y314452D01*
X2458008Y299974D01*
X2458923Y285546D01*
X2461615Y271272D01*
X2466136Y257505D01*
X2472283Y244348D01*
X2480056Y232105D01*
X2489301Y220929D01*
X2499868Y211023D01*
X2511602Y202488D01*
X2524302Y195478D01*
X2537815Y190144D01*
X2551836Y186537D01*
G37*
G36*
X866241Y184759D02*
G01*
X880770Y184759D01*
X895146Y186537D01*
X909218Y190144D01*
X922680Y195478D01*
X935380Y202488D01*
X947115Y211023D01*
X957681Y220929D01*
X966927Y232105D01*
X974699Y244348D01*
X980897Y257505D01*
X985367Y271272D01*
X988110Y285546D01*
X988974Y299974D01*
X988110Y314452D01*
X985367Y328726D01*
X980897Y342493D01*
X974699Y355650D01*
X966927Y367893D01*
X957681Y379069D01*
X946708Y389382D01*
X944321Y392734D01*
X943508Y396798D01*
X943508Y797966D01*
X944067Y801268D01*
X945692Y804214D01*
X948182Y806500D01*
X955598Y811276D01*
X967994Y821385D01*
X979169Y832916D01*
X988974Y845616D01*
X991311Y849477D01*
X994105Y852525D01*
X997915Y854151D01*
X1002080Y854151D01*
X1005890Y852525D01*
X1008684Y849477D01*
X1011021Y845616D01*
X1020826Y832916D01*
X1032002Y821385D01*
X1044397Y811276D01*
X1057910Y802589D01*
X1070660Y796340D01*
X1070660Y868578D01*
X1016152Y868578D01*
X1012393Y869289D01*
X1009192Y871321D01*
X1006957Y874420D01*
X1006043Y878078D01*
X1006500Y881887D01*
X1008887Y889203D01*
X1012088Y904900D01*
X1013460Y920902D01*
X1013002Y936955D01*
X1010716Y952804D01*
X1006551Y968502D01*
X1006297Y972210D01*
X1007364Y975766D01*
X1009599Y978662D01*
X1012748Y980592D01*
X1016406Y981252D01*
X1070660Y981252D01*
X1070660Y1053388D01*
X1065022Y1051001D01*
X1051052Y1043127D01*
X1038047Y1033678D01*
X1026261Y1022807D01*
X1015746Y1010716D01*
X1008380Y999947D01*
X1005586Y997203D01*
X1001979Y995730D01*
X998016Y995730D01*
X994410Y997203D01*
X991616Y999947D01*
X984250Y1010716D01*
X973734Y1022807D01*
X961948Y1033678D01*
X948944Y1043127D01*
X934974Y1051001D01*
X921003Y1056894D01*
X917549Y1059281D01*
X915365Y1062888D01*
X914857Y1067003D01*
X916025Y1071067D01*
X919226Y1074674D01*
X931875Y1086967D01*
X943102Y1100531D01*
X952855Y1115212D01*
X960983Y1130858D01*
X967384Y1147267D01*
X972007Y1164234D01*
X974801Y1181658D01*
X975766Y1199235D01*
X974801Y1216812D01*
X972007Y1234236D01*
X967384Y1251204D01*
X960983Y1267612D01*
X952855Y1283258D01*
X943102Y1297940D01*
X931875Y1311503D01*
X919226Y1323797D01*
X917194Y1325372D01*
X914450Y1328674D01*
X913333Y1332839D01*
X914044Y1337106D01*
X916432Y1340662D01*
X920089Y1342948D01*
X927709Y1345641D01*
X942086Y1352753D01*
X955598Y1361440D01*
X967994Y1371549D01*
X979169Y1383080D01*
X988974Y1395780D01*
X991311Y1399641D01*
X994105Y1402689D01*
X997915Y1404315D01*
X1002080Y1404315D01*
X1005890Y1402689D01*
X1008684Y1399641D01*
X1011021Y1395780D01*
X1020826Y1383080D01*
X1032002Y1371549D01*
X1044397Y1361440D01*
X1057910Y1352753D01*
X1070660Y1346504D01*
X1070660Y1418742D01*
X1016152Y1418742D01*
X1012393Y1419453D01*
X1009192Y1421485D01*
X1006957Y1424584D01*
X1006043Y1428242D01*
X1006500Y1432052D01*
X1008887Y1439367D01*
X1012088Y1455064D01*
X1013460Y1471066D01*
X1013002Y1487119D01*
X1010716Y1502968D01*
X1007160Y1516329D01*
X1006906Y1519834D01*
X1007821Y1523238D01*
X1009802Y1526133D01*
X1012139Y1528470D01*
X1015441Y1530654D01*
X1019352Y1531416D01*
X1070660Y1531416D01*
X1070660Y1582724D01*
X1071422Y1586636D01*
X1073607Y1589938D01*
X1297381Y1813661D01*
X1304798Y1822399D01*
X1310589Y1831797D01*
X1314805Y1842007D01*
X1317396Y1852777D01*
X1318310Y1864207D01*
X1318310Y1900021D01*
X1318920Y1903425D01*
X1320596Y1906473D01*
X1324660Y1911350D01*
X1328369Y1918360D01*
X1330706Y1925980D01*
X1331518Y1934362D01*
X1331518Y2014016D01*
X1330706Y2022398D01*
X1328369Y2029968D01*
X1324660Y2036978D01*
X1322222Y2041042D01*
X1321765Y2044852D01*
X1322679Y2048510D01*
X1324965Y2051608D01*
X1328166Y2053640D01*
X1331874Y2054352D01*
X1762150Y2054352D01*
X1766062Y2053539D01*
X1769364Y2051354D01*
X1896110Y1924608D01*
X1904796Y1917141D01*
X1914245Y1911350D01*
X1924456Y1907133D01*
X1935225Y1904542D01*
X1946656Y1903679D01*
X2342692Y1903679D01*
X2346096Y1903069D01*
X2350516Y1900224D01*
X2357526Y1896465D01*
X2365095Y1894179D01*
X2373477Y1893316D01*
X2458923Y1893316D01*
X2467305Y1894179D01*
X2474874Y1896465D01*
X2481884Y1900224D01*
X2486304Y1903069D01*
X2489708Y1903679D01*
X2639720Y1903679D01*
X2651150Y1904542D01*
X2661920Y1907133D01*
X2672130Y1911350D01*
X2681528Y1917141D01*
X2690266Y1924608D01*
X2817012Y2051354D01*
X2820314Y2053539D01*
X2824226Y2054352D01*
X2852826Y2054352D01*
X2856534Y2053640D01*
X2859786Y2051608D01*
X2862021Y2048510D01*
X2862935Y2044852D01*
X2862478Y2041042D01*
X2860040Y2036978D01*
X2856331Y2029968D01*
X2853994Y2022398D01*
X2853182Y2014016D01*
X2853182Y1934362D01*
X2853994Y1925980D01*
X2856331Y1918360D01*
X2860040Y1911350D01*
X2864053Y1906473D01*
X2865780Y1903475D01*
X2866390Y1900021D01*
X2866390Y1897227D01*
X2865628Y1893316D01*
X2863392Y1890064D01*
X2591308Y1617929D01*
X2587752Y1615643D01*
X2583535Y1614982D01*
X2573020Y1615592D01*
X2556967Y1614678D01*
X2541168Y1611934D01*
X2525776Y1607413D01*
X2510993Y1601165D01*
X2497023Y1593291D01*
X2484069Y1583842D01*
X2472232Y1572971D01*
X2461717Y1560880D01*
X2452674Y1547622D01*
X2445207Y1533448D01*
X2439365Y1518513D01*
X2435301Y1502968D01*
X2433015Y1487119D01*
X2432558Y1471066D01*
X2433929Y1455064D01*
X2437130Y1439367D01*
X2442057Y1424127D01*
X2448712Y1409496D01*
X2457043Y1395780D01*
X2466797Y1383080D01*
X2473452Y1376222D01*
X2475687Y1372768D01*
X2476296Y1368653D01*
X2475280Y1364691D01*
X2472740Y1361389D01*
X2469083Y1359458D01*
X2454097Y1354937D01*
X2437892Y1348079D01*
X2422448Y1339545D01*
X2408072Y1329385D01*
X2394813Y1317802D01*
X2382824Y1304848D01*
X2372360Y1290726D01*
X2363419Y1275537D01*
X2356104Y1259484D01*
X2350566Y1242771D01*
X2346858Y1225550D01*
X2344978Y1208024D01*
X2344978Y1190447D01*
X2346858Y1172921D01*
X2350566Y1155700D01*
X2356104Y1138986D01*
X2363419Y1122934D01*
X2372360Y1107744D01*
X2382824Y1093622D01*
X2394813Y1080668D01*
X2408072Y1069086D01*
X2422448Y1058926D01*
X2437892Y1050391D01*
X2454097Y1043533D01*
X2467711Y1039469D01*
X2471267Y1037539D01*
X2473756Y1034440D01*
X2474874Y1030579D01*
X2474417Y1026566D01*
X2472436Y1023061D01*
X2461717Y1010716D01*
X2452674Y997458D01*
X2445207Y983284D01*
X2439365Y968349D01*
X2435301Y952804D01*
X2433015Y936955D01*
X2432558Y920902D01*
X2433929Y904900D01*
X2437130Y889203D01*
X2442057Y873963D01*
X2448712Y859332D01*
X2457043Y845616D01*
X2466797Y832916D01*
X2477973Y821385D01*
X2490419Y811276D01*
X2503932Y802589D01*
X2518308Y795477D01*
X2533396Y790092D01*
X2549042Y786485D01*
X2564993Y784656D01*
X2580995Y784656D01*
X2596946Y786485D01*
X2612593Y790092D01*
X2627680Y795477D01*
X2642057Y802589D01*
X2655570Y811276D01*
X2668016Y821385D01*
X2679192Y832916D01*
X2688945Y845616D01*
X2691282Y849477D01*
X2694127Y852525D01*
X2697937Y854151D01*
X2702052Y854151D01*
X2705862Y852525D01*
X2708706Y849477D01*
X2711043Y845616D01*
X2720797Y832916D01*
X2731973Y821385D01*
X2744419Y811276D01*
X2757932Y802589D01*
X2770632Y796340D01*
X2770632Y868578D01*
X2716174Y868578D01*
X2712415Y869289D01*
X2709214Y871321D01*
X2706979Y874420D01*
X2706014Y878078D01*
X2706471Y881887D01*
X2708859Y889203D01*
X2712059Y904900D01*
X2713431Y920902D01*
X2712974Y936955D01*
X2710688Y952804D01*
X2706573Y968502D01*
X2706268Y972210D01*
X2707335Y975766D01*
X2709621Y978662D01*
X2712770Y980592D01*
X2716377Y981252D01*
X2770632Y981252D01*
X2770632Y1053388D01*
X2764993Y1051001D01*
X2751023Y1043127D01*
X2738069Y1033678D01*
X2726232Y1022807D01*
X2715717Y1010716D01*
X2708402Y999947D01*
X2705608Y997203D01*
X2701950Y995730D01*
X2698038Y995730D01*
X2694381Y997203D01*
X2691587Y999947D01*
X2684272Y1010716D01*
X2673756Y1022807D01*
X2661920Y1033678D01*
X2648966Y1043127D01*
X2634996Y1051001D01*
X2621026Y1056894D01*
X2617571Y1059281D01*
X2615387Y1062888D01*
X2614828Y1067003D01*
X2615996Y1071067D01*
X2619248Y1074674D01*
X2631846Y1086967D01*
X2643124Y1100531D01*
X2652826Y1115212D01*
X2660954Y1130858D01*
X2667406Y1147267D01*
X2672029Y1164234D01*
X2674823Y1181658D01*
X2675737Y1199235D01*
X2674823Y1216812D01*
X2672029Y1234236D01*
X2667406Y1251204D01*
X2660954Y1267612D01*
X2652826Y1283258D01*
X2643124Y1297940D01*
X2631846Y1311503D01*
X2619248Y1323797D01*
X2617216Y1325372D01*
X2614472Y1328674D01*
X2613355Y1332839D01*
X2614015Y1337106D01*
X2616403Y1340662D01*
X2620060Y1342948D01*
X2627680Y1345641D01*
X2642057Y1352753D01*
X2655570Y1361440D01*
X2668016Y1371549D01*
X2679192Y1383080D01*
X2688945Y1395780D01*
X2691282Y1399641D01*
X2694127Y1402689D01*
X2697937Y1404315D01*
X2702052Y1404315D01*
X2705862Y1402689D01*
X2708706Y1399641D01*
X2711043Y1395780D01*
X2720797Y1383080D01*
X2731973Y1371549D01*
X2744419Y1361440D01*
X2757932Y1352753D01*
X2770632Y1346504D01*
X2770632Y1418742D01*
X2716174Y1418742D01*
X2712415Y1419453D01*
X2709214Y1421485D01*
X2706979Y1424584D01*
X2706014Y1428242D01*
X2706471Y1432052D01*
X2708859Y1439367D01*
X2712059Y1455064D01*
X2713431Y1471066D01*
X2712974Y1487119D01*
X2710688Y1502968D01*
X2706573Y1518666D01*
X2706268Y1522374D01*
X2707335Y1525930D01*
X2709621Y1528826D01*
X2712770Y1530756D01*
X2716377Y1531416D01*
X2770632Y1531416D01*
X2770632Y1593646D01*
X2771394Y1597507D01*
X2773629Y1600809D01*
X2986481Y1813661D01*
X2993898Y1822399D01*
X2999689Y1831797D01*
X3003905Y1842007D01*
X3006496Y1852777D01*
X3007410Y1864207D01*
X3007410Y1900021D01*
X3008020Y1903425D01*
X3009696Y1906473D01*
X3013760Y1911350D01*
X3017469Y1918360D01*
X3019806Y1925980D01*
X3020618Y1934362D01*
X3020618Y2014016D01*
X3019806Y2022398D01*
X3017469Y2029968D01*
X3013760Y2036978D01*
X3011322Y2041042D01*
X3010865Y2044852D01*
X3011779Y2048510D01*
X3014014Y2051608D01*
X3017266Y2053640D01*
X3020974Y2054352D01*
X3483000Y2054352D01*
X3486912Y2053539D01*
X3490214Y2051354D01*
X3616960Y1924608D01*
X3625646Y1917141D01*
X3635095Y1911350D01*
X3645306Y1907133D01*
X3656076Y1904542D01*
X3667506Y1903679D01*
X4095292Y1903679D01*
X4098696Y1903069D01*
X4103115Y1900224D01*
X4110126Y1896465D01*
X4117695Y1894179D01*
X4126077Y1893316D01*
X4211523Y1893316D01*
X4219905Y1894179D01*
X4227474Y1896465D01*
X4234484Y1900224D01*
X4238904Y1903069D01*
X4242308Y1903679D01*
X4366920Y1903679D01*
X4378350Y1904542D01*
X4389120Y1907133D01*
X4399330Y1911350D01*
X4408728Y1917141D01*
X4417466Y1924608D01*
X4544212Y2051354D01*
X4547514Y2053539D01*
X4551426Y2054352D01*
X4554626Y2054352D01*
X4558334Y2053640D01*
X4561586Y2051608D01*
X4563821Y2048510D01*
X4564735Y2044852D01*
X4564278Y2041042D01*
X4561840Y2036978D01*
X4558131Y2029968D01*
X4555794Y2022398D01*
X4554982Y2014016D01*
X4554982Y1934362D01*
X4555794Y1925980D01*
X4558131Y1918360D01*
X4561840Y1911350D01*
X4565853Y1906473D01*
X4567580Y1903475D01*
X4568190Y1900021D01*
X4568190Y1897227D01*
X4567428Y1893316D01*
X4565192Y1890064D01*
X4293006Y1617827D01*
X4289450Y1615541D01*
X4285234Y1614881D01*
X4272991Y1615592D01*
X4256989Y1614678D01*
X4241190Y1611934D01*
X4225798Y1607413D01*
X4211015Y1601165D01*
X4197045Y1593291D01*
X4184040Y1583842D01*
X4172254Y1572971D01*
X4161739Y1560880D01*
X4152696Y1547622D01*
X4145178Y1533448D01*
X4139387Y1518513D01*
X4135272Y1502968D01*
X4132986Y1487119D01*
X4132529Y1471066D01*
X4133900Y1455064D01*
X4137101Y1439367D01*
X4142079Y1424127D01*
X4148734Y1409496D01*
X4157014Y1395780D01*
X4166819Y1383080D01*
X4173423Y1376222D01*
X4175658Y1372768D01*
X4176318Y1368653D01*
X4175251Y1364691D01*
X4172712Y1361389D01*
X4169105Y1359458D01*
X4154119Y1354937D01*
X4137863Y1348079D01*
X4122470Y1339545D01*
X4108043Y1329385D01*
X4094784Y1317802D01*
X4082846Y1304848D01*
X4072331Y1290726D01*
X4063390Y1275537D01*
X4056126Y1259484D01*
X4050588Y1242771D01*
X4046880Y1225550D01*
X4045000Y1208024D01*
X4045000Y1190447D01*
X4046880Y1172921D01*
X4050588Y1155700D01*
X4056126Y1138986D01*
X4063390Y1122934D01*
X4072331Y1107744D01*
X4082846Y1093622D01*
X4094784Y1080668D01*
X4108043Y1069086D01*
X4122470Y1058926D01*
X4137863Y1050391D01*
X4154119Y1043533D01*
X4167682Y1039469D01*
X4171238Y1037539D01*
X4173778Y1034440D01*
X4174896Y1030579D01*
X4174439Y1026566D01*
X4172458Y1023061D01*
X4161739Y1010716D01*
X4152696Y997458D01*
X4145178Y983284D01*
X4139387Y968349D01*
X4135272Y952804D01*
X4132986Y936955D01*
X4132529Y920902D01*
X4133900Y904900D01*
X4137101Y889203D01*
X4142079Y873963D01*
X4148734Y859332D01*
X4157014Y845616D01*
X4166819Y832916D01*
X4177995Y821385D01*
X4190390Y811276D01*
X4203903Y802589D01*
X4218279Y795477D01*
X4233418Y790092D01*
X4249013Y786485D01*
X4264964Y784656D01*
X4281017Y784656D01*
X4296968Y786485D01*
X4312564Y790092D01*
X4327702Y795477D01*
X4342079Y802589D01*
X4355592Y811276D01*
X4367987Y821385D01*
X4379163Y832916D01*
X4388967Y845616D01*
X4391304Y849477D01*
X4394098Y852525D01*
X4397908Y854151D01*
X4402074Y854151D01*
X4405884Y852525D01*
X4408678Y849477D01*
X4411014Y845616D01*
X4420819Y832916D01*
X4431995Y821385D01*
X4444390Y811276D01*
X4457903Y802589D01*
X4470654Y796340D01*
X4470654Y868578D01*
X4416145Y868578D01*
X4412386Y869289D01*
X4409186Y871321D01*
X4406950Y874420D01*
X4406036Y878078D01*
X4406493Y881887D01*
X4408881Y889203D01*
X4412081Y904900D01*
X4413453Y920902D01*
X4412996Y936955D01*
X4410710Y952804D01*
X4406544Y968502D01*
X4406290Y972210D01*
X4407357Y975766D01*
X4409592Y978662D01*
X4412742Y980592D01*
X4416399Y981252D01*
X4470654Y981252D01*
X4470654Y1053388D01*
X4465015Y1051001D01*
X4451045Y1043127D01*
X4438040Y1033678D01*
X4426254Y1022807D01*
X4415739Y1010716D01*
X4408373Y999947D01*
X4405579Y997203D01*
X4401972Y995730D01*
X4398010Y995730D01*
X4394403Y997203D01*
X4391609Y999947D01*
X4384243Y1010716D01*
X4373727Y1022807D01*
X4361942Y1033678D01*
X4348937Y1043127D01*
X4334967Y1051001D01*
X4320997Y1056894D01*
X4317542Y1059281D01*
X4315358Y1062888D01*
X4314850Y1067003D01*
X4316018Y1071067D01*
X4319219Y1074674D01*
X4331868Y1086967D01*
X4343095Y1100531D01*
X4352848Y1115212D01*
X4360976Y1130858D01*
X4367377Y1147267D01*
X4372000Y1164234D01*
X4374794Y1181658D01*
X4375759Y1199235D01*
X4374794Y1216812D01*
X4372000Y1234236D01*
X4367377Y1251204D01*
X4360976Y1267612D01*
X4352848Y1283258D01*
X4343095Y1297940D01*
X4331868Y1311503D01*
X4319219Y1323797D01*
X4317187Y1325372D01*
X4314444Y1328674D01*
X4313326Y1332839D01*
X4314037Y1337106D01*
X4316425Y1340662D01*
X4320082Y1342948D01*
X4327702Y1345641D01*
X4342079Y1352753D01*
X4355592Y1361440D01*
X4367987Y1371549D01*
X4379163Y1383080D01*
X4388967Y1395780D01*
X4391304Y1399641D01*
X4394098Y1402689D01*
X4397908Y1404315D01*
X4402074Y1404315D01*
X4405884Y1402689D01*
X4408678Y1399641D01*
X4411014Y1395780D01*
X4420819Y1383080D01*
X4431995Y1371549D01*
X4444390Y1361440D01*
X4457903Y1352753D01*
X4470654Y1346504D01*
X4470654Y1418742D01*
X4416145Y1418742D01*
X4412386Y1419453D01*
X4409186Y1421485D01*
X4406950Y1424584D01*
X4406036Y1428242D01*
X4406493Y1432052D01*
X4408881Y1439367D01*
X4412081Y1455064D01*
X4413453Y1471066D01*
X4412996Y1487119D01*
X4410710Y1502968D01*
X4406544Y1518666D01*
X4406290Y1522374D01*
X4407357Y1525930D01*
X4409592Y1528826D01*
X4412742Y1530756D01*
X4416399Y1531416D01*
X4470654Y1531416D01*
X4470654Y1591818D01*
X4471416Y1595729D01*
X4473600Y1599031D01*
X4688281Y1813661D01*
X4695698Y1822399D01*
X4701489Y1831797D01*
X4705705Y1842007D01*
X4708296Y1852777D01*
X4709210Y1864207D01*
X4709210Y1900021D01*
X4709820Y1903425D01*
X4711496Y1906473D01*
X4715560Y1911350D01*
X4719269Y1918360D01*
X4721606Y1925980D01*
X4722418Y1934362D01*
X4722418Y2014016D01*
X4721606Y2022398D01*
X4719269Y2029968D01*
X4715560Y2036978D01*
X4713122Y2041042D01*
X4712665Y2044852D01*
X4713579Y2048510D01*
X4715865Y2051608D01*
X4719066Y2053640D01*
X4722774Y2054352D01*
X5069738Y2054352D01*
X5073599Y2053539D01*
X5076901Y2051354D01*
X5203647Y1924608D01*
X5212384Y1917141D01*
X5221833Y1911350D01*
X5232044Y1907133D01*
X5242763Y1904542D01*
X5254193Y1903679D01*
X5777230Y1903679D01*
X5781090Y1902866D01*
X5784392Y1900682D01*
X5786628Y1897380D01*
X5787390Y1893519D01*
X5787390Y1864207D01*
X5788304Y1852777D01*
X5790844Y1842007D01*
X5795111Y1831797D01*
X5800852Y1822399D01*
X5808319Y1813661D01*
X5814415Y1807565D01*
X5823153Y1800098D01*
X5832602Y1794306D01*
X5842812Y1790090D01*
X5853531Y1787499D01*
X5864961Y1786636D01*
X7552639Y1786636D01*
X7564018Y1787499D01*
X7574788Y1790090D01*
X7584998Y1794306D01*
X7594447Y1800098D01*
X7603134Y1807565D01*
X7609281Y1813661D01*
X7616698Y1822399D01*
X7622489Y1831797D01*
X7626705Y1842007D01*
X7629296Y1852777D01*
X7630210Y1864207D01*
X7630210Y1893519D01*
X7630972Y1897380D01*
X7633208Y1900682D01*
X7636459Y1902866D01*
X7640370Y1903679D01*
X7735671Y1903679D01*
X7747050Y1904542D01*
X7757820Y1907133D01*
X7768031Y1911350D01*
X7777480Y1917141D01*
X7786166Y1924608D01*
X7902905Y2041296D01*
X7906664Y2043684D01*
X7911134Y2044242D01*
X7915351Y2042820D01*
X7918551Y2039772D01*
X7920177Y2035606D01*
X7919821Y2031136D01*
X7917078Y2022348D01*
X7916265Y2014016D01*
X7916265Y1934362D01*
X7917078Y1925980D01*
X7919415Y1918360D01*
X7923123Y1911350D01*
X7927136Y1906473D01*
X7928864Y1903475D01*
X7929473Y1900021D01*
X7929473Y1897227D01*
X7928711Y1893316D01*
X7926476Y1890064D01*
X7652207Y1615744D01*
X7649667Y1613916D01*
X7646720Y1612900D01*
X7641183Y1611934D01*
X7625791Y1607413D01*
X7611008Y1601165D01*
X7597038Y1593291D01*
X7584033Y1583893D01*
X7572248Y1573022D01*
X7561732Y1560880D01*
X7552690Y1547672D01*
X7545171Y1533448D01*
X7539380Y1518513D01*
X7535265Y1503019D01*
X7532979Y1487119D01*
X7532522Y1471117D01*
X7533894Y1455115D01*
X7537094Y1439367D01*
X7542072Y1424127D01*
X7548727Y1409547D01*
X7557008Y1395780D01*
X7566812Y1383080D01*
X7573416Y1376273D01*
X7575651Y1372768D01*
X7576312Y1368704D01*
X7575245Y1364691D01*
X7572705Y1361440D01*
X7569098Y1359458D01*
X7554112Y1354937D01*
X7537856Y1348079D01*
X7522464Y1339545D01*
X7508036Y1329436D01*
X7494778Y1317853D01*
X7482840Y1304899D01*
X7472324Y1290726D01*
X7463383Y1275588D01*
X7456119Y1259535D01*
X7450581Y1242822D01*
X7446873Y1225600D01*
X7444994Y1208074D01*
X7444994Y1190447D01*
X7446873Y1172921D01*
X7450581Y1155700D01*
X7456119Y1138986D01*
X7463383Y1122934D01*
X7472324Y1107795D01*
X7482840Y1093622D01*
X7494778Y1080668D01*
X7508036Y1069086D01*
X7522464Y1058976D01*
X7537856Y1050442D01*
X7554112Y1043584D01*
X7567675Y1039469D01*
X7571231Y1037590D01*
X7573772Y1034440D01*
X7574889Y1030579D01*
X7574432Y1026617D01*
X7572451Y1023112D01*
X7561732Y1010716D01*
X7552690Y997508D01*
X7545171Y983284D01*
X7539380Y968349D01*
X7535265Y952855D01*
X7532979Y936955D01*
X7532522Y920953D01*
X7533894Y904951D01*
X7537094Y889203D01*
X7542072Y873963D01*
X7548727Y859383D01*
X7557008Y845616D01*
X7566812Y832916D01*
X7577988Y821436D01*
X7590383Y811276D01*
X7603896Y802589D01*
X7618272Y795528D01*
X7633411Y790143D01*
X7649006Y786485D01*
X7664958Y784656D01*
X7681010Y784656D01*
X7696962Y786485D01*
X7712557Y790143D01*
X7727696Y795528D01*
X7742072Y802589D01*
X7755585Y811276D01*
X7767980Y821436D01*
X7779156Y832916D01*
X7788960Y845616D01*
X7791297Y849477D01*
X7794091Y852525D01*
X7797901Y854202D01*
X7802067Y854202D01*
X7805877Y852525D01*
X7808671Y849477D01*
X7811008Y845616D01*
X7820812Y832916D01*
X7831988Y821436D01*
X7844383Y811276D01*
X7857896Y802589D01*
X7870647Y796340D01*
X7870647Y868578D01*
X7816138Y868578D01*
X7812379Y869289D01*
X7809179Y871321D01*
X7806944Y874420D01*
X7806029Y878128D01*
X7806486Y881887D01*
X7808874Y889203D01*
X7812074Y904951D01*
X7813446Y920953D01*
X7812989Y936955D01*
X7810703Y952855D01*
X7806537Y968552D01*
X7806283Y972210D01*
X7807350Y975766D01*
X7809585Y978712D01*
X7812735Y980643D01*
X7816392Y981303D01*
X7870647Y981303D01*
X7870647Y1053388D01*
X7865008Y1051001D01*
X7851038Y1043127D01*
X7838033Y1033729D01*
X7826248Y1022858D01*
X7815732Y1010716D01*
X7808366Y999998D01*
X7805572Y997254D01*
X7801965Y995730D01*
X7798003Y995730D01*
X7794396Y997254D01*
X7791602Y999998D01*
X7784236Y1010716D01*
X7773720Y1022858D01*
X7761935Y1033729D01*
X7748930Y1043127D01*
X7734960Y1051001D01*
X7720990Y1056944D01*
X7717536Y1059332D01*
X7715351Y1062888D01*
X7714843Y1067054D01*
X7716012Y1071067D01*
X7719212Y1074724D01*
X7731861Y1087018D01*
X7743088Y1100582D01*
X7752842Y1115263D01*
X7760970Y1130858D01*
X7767370Y1147267D01*
X7771993Y1164285D01*
X7774787Y1181658D01*
X7775752Y1199235D01*
X7774787Y1216863D01*
X7771993Y1234236D01*
X7767370Y1251254D01*
X7760970Y1267663D01*
X7752842Y1283258D01*
X7743088Y1297940D01*
X7731861Y1311503D01*
X7719212Y1323797D01*
X7717180Y1325422D01*
X7714437Y1328724D01*
X7713319Y1332890D01*
X7714030Y1337106D01*
X7716418Y1340713D01*
X7720075Y1342948D01*
X7727696Y1345692D01*
X7742072Y1352753D01*
X7755585Y1361440D01*
X7767980Y1371600D01*
X7779156Y1383080D01*
X7788960Y1395780D01*
X7791297Y1399641D01*
X7794091Y1402689D01*
X7797901Y1404366D01*
X7802067Y1404366D01*
X7805877Y1402689D01*
X7808671Y1399641D01*
X7811008Y1395780D01*
X7820812Y1383080D01*
X7831988Y1371600D01*
X7844383Y1361440D01*
X7857896Y1352753D01*
X7870647Y1346504D01*
X7870647Y1418742D01*
X7816138Y1418742D01*
X7812379Y1419453D01*
X7809179Y1421485D01*
X7806944Y1424584D01*
X7806029Y1428292D01*
X7806486Y1432052D01*
X7808874Y1439367D01*
X7812074Y1455115D01*
X7813446Y1471117D01*
X7812989Y1487119D01*
X7810703Y1503019D01*
X7806537Y1518716D01*
X7806283Y1522374D01*
X7807350Y1525930D01*
X7809585Y1528876D01*
X7812735Y1530807D01*
X7816392Y1531467D01*
X7870647Y1531467D01*
X7870647Y1603552D01*
X7864602Y1601012D01*
X7860690Y1600200D01*
X7856778Y1600962D01*
X7853476Y1603146D01*
X7851241Y1606448D01*
X7850479Y1610360D01*
X7851241Y1614271D01*
X7853425Y1617573D01*
X8049564Y1813661D01*
X8056981Y1822399D01*
X8062772Y1831797D01*
X8066989Y1842007D01*
X8069580Y1852777D01*
X8070494Y1864207D01*
X8070494Y1900021D01*
X8071103Y1903425D01*
X8072780Y1906473D01*
X8076844Y1911350D01*
X8080552Y1918360D01*
X8082889Y1925980D01*
X8083702Y1934362D01*
X8083702Y2014016D01*
X8082889Y2022398D01*
X8080552Y2029968D01*
X8076844Y2036978D01*
X8074406Y2041042D01*
X8073948Y2044852D01*
X8074863Y2048510D01*
X8077149Y2051608D01*
X8080349Y2053640D01*
X8084058Y2054352D01*
X8914434Y2054352D01*
X8918295Y2053539D01*
X8921597Y2051354D01*
X9048343Y1924608D01*
X9057081Y1917141D01*
X9066530Y1911350D01*
X9076740Y1907133D01*
X9087459Y1904542D01*
X9098889Y1903679D01*
X9226448Y1903679D01*
X9229902Y1903069D01*
X9234322Y1900224D01*
X9241282Y1896465D01*
X9248902Y1894179D01*
X9257284Y1893316D01*
X9342678Y1893316D01*
X9351060Y1894179D01*
X9358680Y1896465D01*
X9365640Y1900224D01*
X9370060Y1903069D01*
X9373514Y1903679D01*
X9435642Y1903679D01*
X9447072Y1904542D01*
X9457842Y1907133D01*
X9468053Y1911350D01*
X9477451Y1917141D01*
X9486188Y1924608D01*
X9602927Y2041296D01*
X9606686Y2043684D01*
X9611106Y2044242D01*
X9615322Y2042820D01*
X9618573Y2039772D01*
X9620148Y2035606D01*
X9619792Y2031136D01*
X9617100Y2022348D01*
X9616287Y2014016D01*
X9616287Y1934362D01*
X9617100Y1925980D01*
X9619386Y1918360D01*
X9623145Y1911350D01*
X9627158Y1906473D01*
X9628886Y1903475D01*
X9629444Y1900021D01*
X9629444Y1897227D01*
X9628682Y1893316D01*
X9626498Y1890064D01*
X9352178Y1615744D01*
X9349689Y1613916D01*
X9346742Y1612900D01*
X9341154Y1611934D01*
X9325762Y1607413D01*
X9310979Y1601165D01*
X9297009Y1593291D01*
X9284055Y1583893D01*
X9272219Y1573022D01*
X9261703Y1560880D01*
X9252661Y1547672D01*
X9245193Y1533448D01*
X9239351Y1518513D01*
X9235287Y1503019D01*
X9233001Y1487119D01*
X9232544Y1471117D01*
X9233916Y1455115D01*
X9237116Y1439367D01*
X9242044Y1424127D01*
X9248698Y1409547D01*
X9257030Y1395780D01*
X9266783Y1383080D01*
X9273438Y1376273D01*
X9275673Y1372768D01*
X9276283Y1368704D01*
X9275267Y1364691D01*
X9272727Y1361440D01*
X9269069Y1359458D01*
X9254083Y1354937D01*
X9237878Y1348079D01*
X9222435Y1339545D01*
X9208058Y1329436D01*
X9194800Y1317853D01*
X9182811Y1304899D01*
X9172346Y1290726D01*
X9163405Y1275588D01*
X9156090Y1259535D01*
X9150553Y1242822D01*
X9146844Y1225600D01*
X9144965Y1208074D01*
X9144965Y1190447D01*
X9146844Y1172921D01*
X9150553Y1155700D01*
X9156090Y1138986D01*
X9163405Y1122934D01*
X9172346Y1107795D01*
X9182811Y1093622D01*
X9194800Y1080668D01*
X9208058Y1069086D01*
X9222435Y1058976D01*
X9237878Y1050442D01*
X9254083Y1043584D01*
X9267698Y1039469D01*
X9271254Y1037590D01*
X9273743Y1034440D01*
X9274860Y1030579D01*
X9274403Y1026617D01*
X9272422Y1023112D01*
X9261703Y1010716D01*
X9252661Y997508D01*
X9245193Y983284D01*
X9239351Y968349D01*
X9235287Y952855D01*
X9233001Y936955D01*
X9232544Y920953D01*
X9233916Y904951D01*
X9237116Y889203D01*
X9242044Y873963D01*
X9248698Y859383D01*
X9257030Y845616D01*
X9266783Y832916D01*
X9277959Y821436D01*
X9290405Y811276D01*
X9303918Y802589D01*
X9318294Y795528D01*
X9333382Y790143D01*
X9349028Y786485D01*
X9364980Y784656D01*
X9380982Y784656D01*
X9396933Y786485D01*
X9412579Y790143D01*
X9427667Y795528D01*
X9442043Y802589D01*
X9455556Y811276D01*
X9468002Y821436D01*
X9479178Y832916D01*
X9488932Y845616D01*
X9491268Y849477D01*
X9494113Y852525D01*
X9497923Y854202D01*
X9502038Y854202D01*
X9505848Y852525D01*
X9508693Y849477D01*
X9511030Y845616D01*
X9520783Y832916D01*
X9531959Y821436D01*
X9544405Y811276D01*
X9557918Y802589D01*
X9570618Y796340D01*
X9570618Y868578D01*
X9516160Y868578D01*
X9512401Y869289D01*
X9509201Y871321D01*
X9506966Y874420D01*
X9506000Y878128D01*
X9506458Y881887D01*
X9508845Y889203D01*
X9512046Y904951D01*
X9513417Y920953D01*
X9512960Y936955D01*
X9510674Y952855D01*
X9506559Y968552D01*
X9506254Y972210D01*
X9507321Y975766D01*
X9509607Y978712D01*
X9512757Y980643D01*
X9516364Y981303D01*
X9570618Y981303D01*
X9570618Y1053388D01*
X9564979Y1051001D01*
X9551009Y1043127D01*
X9538055Y1033729D01*
X9526219Y1022858D01*
X9515703Y1010716D01*
X9508388Y999998D01*
X9505594Y997254D01*
X9501936Y995730D01*
X9498025Y995730D01*
X9494367Y997254D01*
X9491573Y999998D01*
X9484258Y1010716D01*
X9473742Y1022858D01*
X9461906Y1033729D01*
X9448952Y1043127D01*
X9434982Y1051001D01*
X9421012Y1056944D01*
X9417558Y1059332D01*
X9415373Y1062888D01*
X9414814Y1067054D01*
X9415983Y1071067D01*
X9419234Y1074724D01*
X9431832Y1087018D01*
X9443110Y1100582D01*
X9452813Y1115263D01*
X9460941Y1130858D01*
X9467392Y1147267D01*
X9472015Y1164285D01*
X9474809Y1181658D01*
X9475724Y1199235D01*
X9474809Y1216863D01*
X9472015Y1234236D01*
X9467392Y1251254D01*
X9460941Y1267663D01*
X9452813Y1283258D01*
X9443110Y1297940D01*
X9431832Y1311503D01*
X9419234Y1323797D01*
X9417202Y1325422D01*
X9414459Y1328724D01*
X9413341Y1332890D01*
X9414002Y1337106D01*
X9416389Y1340713D01*
X9420047Y1342948D01*
X9427667Y1345692D01*
X9442043Y1352753D01*
X9455556Y1361440D01*
X9468002Y1371600D01*
X9479178Y1383080D01*
X9488932Y1395780D01*
X9491268Y1399641D01*
X9494113Y1402689D01*
X9497923Y1404366D01*
X9502038Y1404366D01*
X9505848Y1402689D01*
X9508693Y1399641D01*
X9511030Y1395780D01*
X9520783Y1383080D01*
X9531959Y1371600D01*
X9544405Y1361440D01*
X9557918Y1352753D01*
X9570618Y1346504D01*
X9570618Y1418742D01*
X9516160Y1418742D01*
X9512401Y1419453D01*
X9509201Y1421485D01*
X9506966Y1424584D01*
X9506000Y1428292D01*
X9506458Y1432052D01*
X9508845Y1439367D01*
X9512046Y1455115D01*
X9513417Y1471117D01*
X9512960Y1487119D01*
X9510674Y1503019D01*
X9506559Y1518716D01*
X9506254Y1522374D01*
X9507321Y1525930D01*
X9509607Y1528876D01*
X9512757Y1530807D01*
X9516364Y1531467D01*
X9570618Y1531467D01*
X9570618Y1603552D01*
X9564573Y1601012D01*
X9560661Y1600200D01*
X9556800Y1600962D01*
X9553448Y1603146D01*
X9551263Y1606448D01*
X9550450Y1610360D01*
X9551212Y1614271D01*
X9553448Y1617573D01*
X9749536Y1813661D01*
X9757003Y1822399D01*
X9762794Y1831797D01*
X9767011Y1842007D01*
X9769602Y1852777D01*
X9770465Y1864207D01*
X9770465Y1900021D01*
X9771075Y1903425D01*
X9772802Y1906473D01*
X9776815Y1911350D01*
X9780574Y1918360D01*
X9782860Y1925980D01*
X9783673Y1934362D01*
X9783673Y2014016D01*
X9782860Y2022398D01*
X9780574Y2029968D01*
X9776815Y2036978D01*
X9774377Y2041042D01*
X9773920Y2044852D01*
X9774885Y2048510D01*
X9777120Y2051608D01*
X9780320Y2053640D01*
X9784080Y2054352D01*
X10280142Y2054352D01*
X10284002Y2053539D01*
X10287304Y2051354D01*
X10414050Y1924608D01*
X10422788Y1917141D01*
X10432237Y1911350D01*
X10442448Y1907133D01*
X10453166Y1904542D01*
X10464596Y1903679D01*
X10926470Y1903679D01*
X10929874Y1903069D01*
X10934293Y1900224D01*
X10941304Y1896465D01*
X10948873Y1894179D01*
X10957255Y1893316D01*
X11042700Y1893316D01*
X11051082Y1894179D01*
X11058652Y1896465D01*
X11065662Y1900224D01*
X11070082Y1903069D01*
X11073485Y1903679D01*
X11135664Y1903679D01*
X11147044Y1904542D01*
X11157813Y1907133D01*
X11168024Y1911350D01*
X11177473Y1917141D01*
X11186160Y1924608D01*
X11302898Y2041296D01*
X11306657Y2043684D01*
X11311128Y2044242D01*
X11315344Y2042820D01*
X11318544Y2039772D01*
X11320170Y2035606D01*
X11319814Y2031136D01*
X11317071Y2022348D01*
X11316258Y2014016D01*
X11316258Y1934362D01*
X11317071Y1925980D01*
X11319408Y1918360D01*
X11323116Y1911350D01*
X11327130Y1906473D01*
X11328857Y1903475D01*
X11329466Y1900021D01*
X11329466Y1897227D01*
X11328704Y1893316D01*
X11326469Y1890064D01*
X11052200Y1615744D01*
X11049660Y1613916D01*
X11046714Y1612900D01*
X11041176Y1611934D01*
X11025784Y1607413D01*
X11011001Y1601165D01*
X10997031Y1593291D01*
X10984026Y1583893D01*
X10972241Y1573022D01*
X10961725Y1560880D01*
X10952683Y1547672D01*
X10945164Y1533448D01*
X10939373Y1518513D01*
X10935258Y1503019D01*
X10932972Y1487119D01*
X10932515Y1471117D01*
X10933887Y1455115D01*
X10937087Y1439367D01*
X10942066Y1424127D01*
X10948720Y1409547D01*
X10957001Y1395780D01*
X10966805Y1383080D01*
X10973409Y1376273D01*
X10975644Y1372768D01*
X10976305Y1368704D01*
X10975238Y1364691D01*
X10972698Y1361440D01*
X10969091Y1359458D01*
X10954105Y1354937D01*
X10937849Y1348079D01*
X10922457Y1339545D01*
X10908030Y1329436D01*
X10894771Y1317853D01*
X10882833Y1304899D01*
X10872317Y1290726D01*
X10863376Y1275588D01*
X10856112Y1259535D01*
X10850575Y1242822D01*
X10846866Y1225600D01*
X10844987Y1208074D01*
X10844987Y1190447D01*
X10846866Y1172921D01*
X10850575Y1155700D01*
X10856112Y1138986D01*
X10863376Y1122934D01*
X10872317Y1107795D01*
X10882833Y1093622D01*
X10894771Y1080668D01*
X10908030Y1069086D01*
X10922457Y1058976D01*
X10937849Y1050442D01*
X10954105Y1043584D01*
X10967669Y1039469D01*
X10971225Y1037590D01*
X10973765Y1034440D01*
X10974882Y1030579D01*
X10974425Y1026617D01*
X10972444Y1023112D01*
X10961725Y1010716D01*
X10952683Y997508D01*
X10945164Y983284D01*
X10939373Y968349D01*
X10935258Y952855D01*
X10932972Y936955D01*
X10932515Y920953D01*
X10933887Y904951D01*
X10937087Y889203D01*
X10942066Y873963D01*
X10948720Y859383D01*
X10957001Y845616D01*
X10966805Y832916D01*
X10977981Y821436D01*
X10990376Y811276D01*
X11003889Y802589D01*
X11018266Y795528D01*
X11033404Y790143D01*
X11049000Y786485D01*
X11064951Y784656D01*
X11081004Y784656D01*
X11096955Y786485D01*
X11112550Y790143D01*
X11127689Y795528D01*
X11142065Y802589D01*
X11155578Y811276D01*
X11167973Y821436D01*
X11179149Y832916D01*
X11188954Y845616D01*
X11191290Y849477D01*
X11194084Y852525D01*
X11197894Y854202D01*
X11202060Y854202D01*
X11205870Y852525D01*
X11208664Y849477D01*
X11211001Y845616D01*
X11220805Y832916D01*
X11231981Y821436D01*
X11244376Y811276D01*
X11257889Y802589D01*
X11270640Y796340D01*
X11270640Y868578D01*
X11216132Y868578D01*
X11212372Y869289D01*
X11209172Y871321D01*
X11206937Y874420D01*
X11206022Y878128D01*
X11206480Y881887D01*
X11208867Y889203D01*
X11212068Y904951D01*
X11213439Y920953D01*
X11212982Y936955D01*
X11210696Y952855D01*
X11206530Y968552D01*
X11206276Y972210D01*
X11207343Y975766D01*
X11209578Y978712D01*
X11212728Y980643D01*
X11216386Y981303D01*
X11270640Y981303D01*
X11270640Y1053388D01*
X11265001Y1051001D01*
X11251031Y1043127D01*
X11238026Y1033729D01*
X11226241Y1022858D01*
X11215725Y1010716D01*
X11208359Y999998D01*
X11205565Y997254D01*
X11201958Y995730D01*
X11197996Y995730D01*
X11194389Y997254D01*
X11191595Y999998D01*
X11184229Y1010716D01*
X11173714Y1022858D01*
X11161928Y1033729D01*
X11148923Y1043127D01*
X11134953Y1051001D01*
X11120983Y1056944D01*
X11117529Y1059332D01*
X11115344Y1062888D01*
X11114836Y1067054D01*
X11116005Y1071067D01*
X11119205Y1074724D01*
X11131854Y1087018D01*
X11143081Y1100582D01*
X11152835Y1115263D01*
X11160963Y1130858D01*
X11167364Y1147267D01*
X11171986Y1164285D01*
X11174780Y1181658D01*
X11175746Y1199235D01*
X11174780Y1216863D01*
X11171986Y1234236D01*
X11167364Y1251254D01*
X11160963Y1267663D01*
X11152835Y1283258D01*
X11143081Y1297940D01*
X11131854Y1311503D01*
X11119205Y1323797D01*
X11117173Y1325422D01*
X11114430Y1328724D01*
X11113312Y1332890D01*
X11114024Y1337106D01*
X11116411Y1340713D01*
X11120069Y1342948D01*
X11127689Y1345692D01*
X11142065Y1352753D01*
X11155578Y1361440D01*
X11167973Y1371600D01*
X11179149Y1383080D01*
X11188954Y1395780D01*
X11191290Y1399641D01*
X11194084Y1402689D01*
X11197894Y1404366D01*
X11202060Y1404366D01*
X11205870Y1402689D01*
X11208664Y1399641D01*
X11211001Y1395780D01*
X11220805Y1383080D01*
X11231981Y1371600D01*
X11244376Y1361440D01*
X11257889Y1352753D01*
X11270640Y1346504D01*
X11270640Y1418742D01*
X11216132Y1418742D01*
X11212372Y1419453D01*
X11209172Y1421485D01*
X11206937Y1424584D01*
X11206022Y1428292D01*
X11206480Y1432052D01*
X11208867Y1439367D01*
X11212068Y1455115D01*
X11213439Y1471117D01*
X11212982Y1487119D01*
X11210696Y1503019D01*
X11206530Y1518716D01*
X11206276Y1522374D01*
X11207343Y1525930D01*
X11209578Y1528876D01*
X11212728Y1530807D01*
X11216386Y1531467D01*
X11270640Y1531467D01*
X11270640Y1603552D01*
X11264595Y1601012D01*
X11260683Y1600200D01*
X11256772Y1600962D01*
X11253470Y1603146D01*
X11251234Y1606448D01*
X11250472Y1610360D01*
X11251234Y1614271D01*
X11253419Y1617573D01*
X11449558Y1813661D01*
X11456974Y1822399D01*
X11462766Y1831797D01*
X11466982Y1842007D01*
X11469573Y1852777D01*
X11470487Y1864207D01*
X11470487Y1900021D01*
X11471097Y1903425D01*
X11472773Y1906473D01*
X11476837Y1911350D01*
X11480546Y1918360D01*
X11482882Y1925980D01*
X11483695Y1934362D01*
X11483695Y2014016D01*
X11482882Y2022398D01*
X11480546Y2029968D01*
X11476837Y2036978D01*
X11471859Y2043074D01*
X11470132Y2046071D01*
X11469522Y2049475D01*
X11470132Y2052929D01*
X11471859Y2055926D01*
X11476837Y2062022D01*
X11480546Y2069033D01*
X11482882Y2076602D01*
X11483695Y2084984D01*
X11483695Y2164638D01*
X11482882Y2173020D01*
X11480546Y2180640D01*
X11476837Y2187651D01*
X11471808Y2193747D01*
X11465661Y2198776D01*
X11458651Y2202535D01*
X11451082Y2204821D01*
X11442700Y2205685D01*
X11357254Y2205685D01*
X11348872Y2204821D01*
X11341303Y2202535D01*
X11334292Y2198776D01*
X11329924Y2195931D01*
X11326469Y2195372D01*
X11287099Y2195372D01*
X11275669Y2194458D01*
X11264950Y2191867D01*
X11254740Y2187651D01*
X11245291Y2181860D01*
X11236553Y2174443D01*
X11198606Y2136444D01*
X11194999Y2134158D01*
X11190782Y2133498D01*
X11186668Y2134666D01*
X11183416Y2137410D01*
X11181537Y2141270D01*
X11180267Y2146604D01*
X11176050Y2156866D01*
X11170259Y2166264D01*
X11163046Y2174697D01*
X11154664Y2181860D01*
X11145215Y2187651D01*
X11135004Y2191867D01*
X11124234Y2194458D01*
X11112855Y2195372D01*
X11073485Y2195372D01*
X11070031Y2195931D01*
X11065662Y2198776D01*
X11058652Y2202535D01*
X11051082Y2204821D01*
X11042700Y2205685D01*
X10957255Y2205685D01*
X10948873Y2204821D01*
X10941304Y2202535D01*
X10934293Y2198776D01*
X10928146Y2193747D01*
X10923117Y2187651D01*
X10919409Y2180640D01*
X10917072Y2173020D01*
X10916259Y2164638D01*
X10916259Y2084984D01*
X10917072Y2076602D01*
X10919409Y2069033D01*
X10923117Y2062022D01*
X10925556Y2057958D01*
X10926013Y2054199D01*
X10925048Y2050491D01*
X10922812Y2047443D01*
X10919612Y2045411D01*
X10915853Y2044700D01*
X10497616Y2044700D01*
X10493756Y2045462D01*
X10490454Y2047646D01*
X10363657Y2174443D01*
X10354970Y2181860D01*
X10345521Y2187651D01*
X10335310Y2191867D01*
X10324541Y2194458D01*
X10313162Y2195372D01*
X9773462Y2195372D01*
X9770059Y2195931D01*
X9765639Y2198776D01*
X9758680Y2202535D01*
X9751060Y2204821D01*
X9742678Y2205685D01*
X9657283Y2205685D01*
X9648901Y2204821D01*
X9641281Y2202535D01*
X9634321Y2198776D01*
X9629902Y2195931D01*
X9626498Y2195372D01*
X9587128Y2195372D01*
X9575698Y2194458D01*
X9564928Y2191867D01*
X9554718Y2187651D01*
X9545269Y2181860D01*
X9536582Y2174443D01*
X9409836Y2047646D01*
X9406534Y2045462D01*
X9402622Y2044700D01*
X9384080Y2044700D01*
X9380372Y2045411D01*
X9377121Y2047443D01*
X9374886Y2050491D01*
X9373920Y2054199D01*
X9374428Y2057958D01*
X9380575Y2069033D01*
X9382861Y2076602D01*
X9383674Y2084984D01*
X9383674Y2164638D01*
X9382861Y2173020D01*
X9380575Y2180640D01*
X9376816Y2187651D01*
X9372803Y2192528D01*
X9371076Y2195576D01*
X9370466Y2198979D01*
X9370466Y2234793D01*
X9369602Y2246223D01*
X9367012Y2256993D01*
X9362795Y2267204D01*
X9357004Y2276652D01*
X9349536Y2285339D01*
X9287916Y2346960D01*
X9279229Y2354427D01*
X9269780Y2360168D01*
X9259570Y2364435D01*
X9248800Y2367026D01*
X9237421Y2367889D01*
X7044029Y2367889D01*
X7040118Y2368651D01*
X7036816Y2370886D01*
X6843572Y2564130D01*
X6841337Y2567584D01*
X6840626Y2571648D01*
X6841540Y2575610D01*
X6844030Y2578912D01*
X6847586Y2580995D01*
X6851700Y2581452D01*
X6858304Y2580792D01*
X6872986Y2581249D01*
X6887514Y2583535D01*
X6901637Y2587548D01*
X6915150Y2593238D01*
X6927850Y2600604D01*
X6939584Y2609443D01*
X6950100Y2619654D01*
X6959295Y2631084D01*
X6967016Y2643581D01*
X6973163Y2656941D01*
X6977634Y2670911D01*
X6980326Y2685338D01*
X6981240Y2699969D01*
X6980326Y2714650D01*
X6977634Y2729077D01*
X6973163Y2743047D01*
X6967016Y2756408D01*
X6959295Y2768904D01*
X6950100Y2780334D01*
X6939584Y2790545D01*
X6927850Y2799384D01*
X6915150Y2806750D01*
X6901637Y2812440D01*
X6887514Y2816453D01*
X6872986Y2818739D01*
X6858304Y2819196D01*
X6843674Y2817825D01*
X6829348Y2814675D01*
X6815531Y2809798D01*
X6802374Y2803245D01*
X6790131Y2795168D01*
X6779006Y2785618D01*
X6769100Y2774746D01*
X6760616Y2762758D01*
X6753656Y2749854D01*
X6748373Y2736138D01*
X6744716Y2721660D01*
X6743039Y2718155D01*
X6740194Y2715514D01*
X6736537Y2714142D01*
X6732625Y2714244D01*
X6729018Y2715818D01*
X6726326Y2718663D01*
X6724903Y2722270D01*
X6723634Y2729077D01*
X6719163Y2743047D01*
X6713016Y2756408D01*
X6705295Y2768904D01*
X6696100Y2780334D01*
X6685584Y2790545D01*
X6673850Y2799384D01*
X6661150Y2806750D01*
X6647637Y2812440D01*
X6633514Y2816453D01*
X6618986Y2818739D01*
X6604304Y2819196D01*
X6589674Y2817825D01*
X6575348Y2814675D01*
X6561531Y2809798D01*
X6548374Y2803245D01*
X6536131Y2795168D01*
X6525006Y2785618D01*
X6515100Y2774746D01*
X6506616Y2762758D01*
X6499656Y2749854D01*
X6494373Y2736138D01*
X6490716Y2721660D01*
X6489039Y2718155D01*
X6486194Y2715514D01*
X6482537Y2714142D01*
X6478625Y2714244D01*
X6475018Y2715818D01*
X6472326Y2718663D01*
X6470904Y2722270D01*
X6469634Y2729077D01*
X6465163Y2743047D01*
X6459016Y2756408D01*
X6451295Y2768904D01*
X6442100Y2780334D01*
X6431584Y2790545D01*
X6419850Y2799384D01*
X6407150Y2806750D01*
X6393637Y2812440D01*
X6379514Y2816453D01*
X6364986Y2818739D01*
X6350304Y2819196D01*
X6335674Y2817825D01*
X6321348Y2814675D01*
X6307531Y2809798D01*
X6294374Y2803245D01*
X6282131Y2795168D01*
X6271006Y2785618D01*
X6261100Y2774746D01*
X6252616Y2762758D01*
X6245656Y2749854D01*
X6240373Y2736138D01*
X6236716Y2721660D01*
X6235039Y2718155D01*
X6232194Y2715514D01*
X6228537Y2714142D01*
X6224625Y2714244D01*
X6221018Y2715818D01*
X6218326Y2718663D01*
X6216904Y2722270D01*
X6215634Y2729077D01*
X6211163Y2743047D01*
X6205016Y2756408D01*
X6197295Y2768904D01*
X6188100Y2780334D01*
X6177584Y2790545D01*
X6165850Y2799384D01*
X6153150Y2806750D01*
X6139637Y2812440D01*
X6125514Y2816453D01*
X6110986Y2818739D01*
X6096304Y2819196D01*
X6081674Y2817825D01*
X6067348Y2814675D01*
X6053531Y2809798D01*
X6040374Y2803245D01*
X6028131Y2795168D01*
X6017006Y2785618D01*
X6007100Y2774746D01*
X5998616Y2762758D01*
X5991656Y2749854D01*
X5986373Y2736138D01*
X5982716Y2721660D01*
X5981039Y2718155D01*
X5978194Y2715514D01*
X5974537Y2714142D01*
X5970625Y2714244D01*
X5967018Y2715818D01*
X5964326Y2718663D01*
X5962904Y2722270D01*
X5961634Y2729077D01*
X5957163Y2743047D01*
X5951016Y2756408D01*
X5943295Y2768904D01*
X5934100Y2780334D01*
X5923584Y2790545D01*
X5911850Y2799384D01*
X5899150Y2806750D01*
X5885637Y2812440D01*
X5871514Y2816453D01*
X5856986Y2818739D01*
X5842304Y2819196D01*
X5827674Y2817825D01*
X5813348Y2814675D01*
X5799531Y2809798D01*
X5786374Y2803245D01*
X5774131Y2795168D01*
X5763006Y2785618D01*
X5753100Y2774746D01*
X5744616Y2762758D01*
X5737656Y2749854D01*
X5732373Y2736138D01*
X5728716Y2721660D01*
X5727039Y2718155D01*
X5724194Y2715514D01*
X5720537Y2714142D01*
X5716625Y2714244D01*
X5713018Y2715818D01*
X5710326Y2718663D01*
X5708904Y2722270D01*
X5707634Y2729077D01*
X5703163Y2743047D01*
X5697016Y2756408D01*
X5689295Y2768904D01*
X5680100Y2780334D01*
X5669584Y2790545D01*
X5657850Y2799384D01*
X5645150Y2806750D01*
X5631637Y2812440D01*
X5617514Y2816453D01*
X5602986Y2818739D01*
X5588304Y2819196D01*
X5573674Y2817825D01*
X5559348Y2814675D01*
X5545531Y2809798D01*
X5532374Y2803245D01*
X5520131Y2795168D01*
X5509006Y2785618D01*
X5499100Y2774746D01*
X5490616Y2762758D01*
X5483656Y2749854D01*
X5478373Y2736138D01*
X5474716Y2721660D01*
X5473039Y2718155D01*
X5470194Y2715514D01*
X5466537Y2714142D01*
X5462625Y2714244D01*
X5459018Y2715818D01*
X5456326Y2718663D01*
X5454904Y2722270D01*
X5453634Y2729077D01*
X5449163Y2743047D01*
X5443016Y2756408D01*
X5435295Y2768904D01*
X5426100Y2780334D01*
X5415584Y2790545D01*
X5403850Y2799384D01*
X5391150Y2806750D01*
X5377637Y2812440D01*
X5363514Y2816453D01*
X5348986Y2818739D01*
X5334304Y2819196D01*
X5319674Y2817825D01*
X5305348Y2814675D01*
X5291531Y2809798D01*
X5278374Y2803245D01*
X5266131Y2795168D01*
X5255006Y2785618D01*
X5245100Y2774746D01*
X5236616Y2762758D01*
X5229656Y2749854D01*
X5224373Y2736138D01*
X5223256Y2731719D01*
X5221427Y2727960D01*
X5218226Y2725267D01*
X5214264Y2724099D01*
X5210098Y2724607D01*
X5206542Y2726740D01*
X5204104Y2730093D01*
X5203240Y2734208D01*
X5203240Y2778252D01*
X5202428Y2786634D01*
X5200091Y2794203D01*
X5196382Y2801213D01*
X5191353Y2807360D01*
X5185206Y2812389D01*
X5178196Y2816098D01*
X5170627Y2818434D01*
X5162245Y2819247D01*
X5005730Y2819247D01*
X4997348Y2818434D01*
X4989779Y2816098D01*
X4982768Y2812389D01*
X4976622Y2807360D01*
X4971592Y2801213D01*
X4967884Y2794203D01*
X4965547Y2786634D01*
X4964734Y2778252D01*
X4964734Y2621737D01*
X4965547Y2613355D01*
X4967884Y2605786D01*
X4971592Y2598775D01*
X4976622Y2592628D01*
X4982768Y2587599D01*
X4989779Y2583891D01*
X4997348Y2581554D01*
X5005730Y2580741D01*
X5113070Y2580741D01*
X5116982Y2579979D01*
X5120284Y2577744D01*
X5122468Y2574493D01*
X5123230Y2570581D01*
X5122468Y2566670D01*
X5120284Y2563418D01*
X5116779Y2559913D01*
X5113477Y2557678D01*
X5109616Y2556916D01*
X1016812Y2556916D01*
X1005382Y2556052D01*
X994613Y2553462D01*
X984402Y2549194D01*
X974953Y2543454D01*
X966266Y2535986D01*
X715619Y2285339D01*
X708152Y2276652D01*
X702411Y2267204D01*
X698144Y2256993D01*
X695604Y2246223D01*
X694690Y2234793D01*
X694690Y2198979D01*
X694080Y2195525D01*
X692353Y2192528D01*
X688340Y2187651D01*
X684631Y2180640D01*
X682294Y2173020D01*
X681482Y2164638D01*
X681482Y2084984D01*
X682294Y2076602D01*
X684631Y2069033D01*
X688340Y2062022D01*
X693318Y2055926D01*
X695045Y2052929D01*
X695655Y2049475D01*
X695045Y2046071D01*
X693318Y2043074D01*
X688340Y2036978D01*
X684631Y2029968D01*
X682294Y2022398D01*
X681482Y2014016D01*
X681482Y1934362D01*
X682294Y1925980D01*
X684631Y1918360D01*
X688340Y1911350D01*
X693369Y1905254D01*
X699516Y1900224D01*
X706526Y1896465D01*
X714095Y1894179D01*
X722477Y1893316D01*
X807923Y1893316D01*
X816305Y1894179D01*
X823874Y1896465D01*
X830884Y1900224D01*
X835304Y1903069D01*
X838708Y1903679D01*
X969670Y1903679D01*
X981100Y1904542D01*
X991869Y1907133D01*
X1002080Y1911350D01*
X1011478Y1917141D01*
X1020216Y1924608D01*
X1146962Y2051354D01*
X1150264Y2053539D01*
X1154176Y2054352D01*
X1163726Y2054352D01*
X1167434Y2053640D01*
X1170686Y2051608D01*
X1172921Y2048510D01*
X1173835Y2044852D01*
X1173378Y2041042D01*
X1170940Y2036978D01*
X1167231Y2029968D01*
X1164894Y2022398D01*
X1164082Y2014016D01*
X1164082Y1934362D01*
X1164894Y1925980D01*
X1167231Y1918360D01*
X1170940Y1911350D01*
X1174953Y1906473D01*
X1176680Y1903475D01*
X1177290Y1900021D01*
X1177290Y1897227D01*
X1176528Y1893316D01*
X1174292Y1890064D01*
X901192Y1616913D01*
X898550Y1615033D01*
X895502Y1614068D01*
X892251Y1614119D01*
X889000Y1614678D01*
X872998Y1615592D01*
X856996Y1614678D01*
X841197Y1611934D01*
X825804Y1607413D01*
X811022Y1601165D01*
X797052Y1593291D01*
X784047Y1583842D01*
X772261Y1572971D01*
X761746Y1560880D01*
X752703Y1547622D01*
X745185Y1533448D01*
X739394Y1518513D01*
X735279Y1502968D01*
X732993Y1487119D01*
X732536Y1471066D01*
X733907Y1455064D01*
X737108Y1439367D01*
X742086Y1424127D01*
X748741Y1409496D01*
X757021Y1395780D01*
X766826Y1383080D01*
X773430Y1376222D01*
X775665Y1372768D01*
X776325Y1368653D01*
X775258Y1364691D01*
X772718Y1361389D01*
X769112Y1359458D01*
X754126Y1354937D01*
X737870Y1348079D01*
X722477Y1339545D01*
X708050Y1329385D01*
X694791Y1317802D01*
X682853Y1304848D01*
X672338Y1290726D01*
X663397Y1275537D01*
X656132Y1259484D01*
X650595Y1242771D01*
X646887Y1225550D01*
X645007Y1208024D01*
X645007Y1190447D01*
X646887Y1172921D01*
X650595Y1155700D01*
X656132Y1138986D01*
X663397Y1122934D01*
X672338Y1107744D01*
X682853Y1093622D01*
X694791Y1080668D01*
X708050Y1069086D01*
X722477Y1058926D01*
X737870Y1050391D01*
X754126Y1043533D01*
X767689Y1039469D01*
X771245Y1037539D01*
X773785Y1034440D01*
X774903Y1030579D01*
X774446Y1026566D01*
X772464Y1023061D01*
X761746Y1010716D01*
X752703Y997458D01*
X745185Y983284D01*
X739394Y968349D01*
X735279Y952804D01*
X732993Y936955D01*
X732536Y920902D01*
X733907Y904900D01*
X737108Y889203D01*
X742086Y873963D01*
X748741Y859332D01*
X757021Y845616D01*
X766826Y832916D01*
X778002Y821385D01*
X790397Y811276D01*
X797814Y806500D01*
X800303Y804214D01*
X801928Y801268D01*
X802487Y797966D01*
X802487Y395833D01*
X801624Y391769D01*
X799287Y388416D01*
X789330Y379069D01*
X780084Y367893D01*
X772312Y355650D01*
X766114Y342493D01*
X761644Y328726D01*
X758901Y314452D01*
X758037Y299974D01*
X758901Y285546D01*
X761644Y271272D01*
X766114Y257505D01*
X772312Y244348D01*
X780084Y232105D01*
X789330Y220929D01*
X799896Y211023D01*
X811631Y202488D01*
X824331Y195478D01*
X837793Y190144D01*
X851865Y186537D01*
G37*
G36*
X1171346Y193395D02*
G01*
X1176680Y195478D01*
X1189380Y202488D01*
X1201115Y211023D01*
X1211681Y220929D01*
X1220927Y232105D01*
X1228699Y244348D01*
X1234236Y256133D01*
X1171346Y256133D01*
G37*
G36*
X1083665Y193395D02*
G01*
X1083665Y256133D01*
X1020775Y256133D01*
X1026312Y244348D01*
X1034084Y232105D01*
X1043330Y220929D01*
X1053896Y211023D01*
X1065631Y202488D01*
X1078331Y195478D01*
G37*
G36*
X6183122Y193395D02*
G01*
X6183122Y256133D01*
X6120231Y256133D01*
X6125768Y244348D01*
X6133541Y232105D01*
X6142786Y220929D01*
X6153353Y211023D01*
X6165088Y202488D01*
X6177838Y195478D01*
G37*
G36*
X4566920Y193395D02*
G01*
X4572254Y195478D01*
X4584954Y202488D01*
X4596688Y211023D01*
X4607306Y220929D01*
X4616551Y232105D01*
X4624324Y244348D01*
X4629861Y256133D01*
X4566920Y256133D01*
G37*
G36*
X7883144Y193395D02*
G01*
X7883144Y256133D01*
X7820253Y256133D01*
X7825790Y244348D01*
X7833563Y232105D01*
X7842808Y220929D01*
X7853375Y211023D01*
X7865109Y202488D01*
X7877809Y195478D01*
G37*
G36*
X6270853Y193395D02*
G01*
X6276187Y195478D01*
X6288887Y202488D01*
X6300622Y211023D01*
X6311188Y220929D01*
X6320434Y232105D01*
X6328206Y244348D01*
X6333744Y256133D01*
X6270853Y256133D01*
G37*
G36*
X4479239Y193395D02*
G01*
X4479239Y256133D01*
X4416348Y256133D01*
X4421886Y244348D01*
X4429658Y232105D01*
X4438904Y220929D01*
X4449470Y211023D01*
X4461205Y202488D01*
X4473905Y195478D01*
G37*
G36*
X2871368Y193395D02*
G01*
X2876651Y195478D01*
X2889402Y202488D01*
X2901137Y211023D01*
X2911703Y220929D01*
X2920949Y232105D01*
X2928721Y244348D01*
X2934258Y256133D01*
X2871368Y256133D01*
G37*
G36*
X11283137Y193395D02*
G01*
X11283137Y256133D01*
X11220246Y256133D01*
X11225784Y244348D01*
X11233556Y232105D01*
X11242802Y220929D01*
X11253368Y211023D01*
X11265103Y202488D01*
X11277803Y195478D01*
G37*
G36*
X9583115Y193395D02*
G01*
X9583115Y256133D01*
X9520224Y256133D01*
X9525762Y244348D01*
X9533534Y232105D01*
X9542780Y220929D01*
X9553346Y211023D01*
X9565081Y202488D01*
X9577832Y195478D01*
G37*
G36*
X7970824Y193395D02*
G01*
X7976158Y195478D01*
X7988858Y202488D01*
X8000593Y211023D01*
X8011159Y220929D01*
X8020405Y232105D01*
X8028178Y244348D01*
X8033715Y256133D01*
X7970824Y256133D01*
G37*
G36*
X9670846Y193395D02*
G01*
X9676180Y195478D01*
X9688880Y202488D01*
X9700615Y211023D01*
X9711182Y220929D01*
X9720427Y232105D01*
X9728200Y244348D01*
X9733737Y256133D01*
X9670846Y256133D01*
G37*
G36*
X2783636Y193395D02*
G01*
X2783636Y256133D01*
X2720746Y256133D01*
X2726283Y244348D01*
X2734056Y232105D01*
X2743301Y220929D01*
X2753868Y211023D01*
X2765602Y202488D01*
X2778302Y195478D01*
G37*
G36*
X11370818Y193395D02*
G01*
X11376152Y195478D01*
X11388852Y202488D01*
X11400586Y211023D01*
X11411153Y220929D01*
X11420398Y232105D01*
X11428171Y244348D01*
X11433708Y256133D01*
X11370818Y256133D01*
G37*
G36*
X1020775Y343865D02*
G01*
X1083665Y343865D01*
X1083665Y406603D01*
X1078331Y404520D01*
X1065631Y397510D01*
X1053896Y388975D01*
X1043330Y379069D01*
X1034084Y367893D01*
X1026312Y355650D01*
G37*
G36*
X1171346Y343865D02*
G01*
X1234236Y343865D01*
X1228699Y355650D01*
X1220927Y367893D01*
X1211681Y379069D01*
X1201115Y388975D01*
X1189380Y397510D01*
X1176680Y404520D01*
X1171346Y406603D01*
G37*
G36*
X6270853Y343865D02*
G01*
X6333744Y343865D01*
X6328206Y355650D01*
X6320434Y367893D01*
X6311188Y379069D01*
X6300622Y388975D01*
X6288887Y397510D01*
X6276187Y404520D01*
X6270853Y406603D01*
G37*
G36*
X7820253Y343865D02*
G01*
X7883144Y343865D01*
X7883144Y406603D01*
X7877809Y404520D01*
X7865109Y397510D01*
X7853375Y388975D01*
X7842808Y379069D01*
X7833563Y367893D01*
X7825790Y355650D01*
G37*
G36*
X2871368Y343865D02*
G01*
X2934258Y343865D01*
X2928721Y355650D01*
X2920949Y367893D01*
X2911703Y379069D01*
X2901137Y388975D01*
X2889402Y397510D01*
X2876651Y404520D01*
X2871368Y406603D01*
G37*
G36*
X4416348Y343865D02*
G01*
X4479239Y343865D01*
X4479239Y406603D01*
X4473905Y404520D01*
X4461205Y397510D01*
X4449470Y388975D01*
X4438904Y379069D01*
X4429658Y367893D01*
X4421886Y355650D01*
G37*
G36*
X7970824Y343865D02*
G01*
X8033715Y343865D01*
X8028178Y355650D01*
X8020405Y367893D01*
X8011159Y379069D01*
X8000593Y388975D01*
X7988858Y397510D01*
X7976158Y404520D01*
X7970824Y406603D01*
G37*
G36*
X9520224Y343865D02*
G01*
X9583115Y343865D01*
X9583115Y406603D01*
X9577832Y404520D01*
X9565081Y397510D01*
X9553346Y388975D01*
X9542780Y379069D01*
X9533534Y367893D01*
X9525762Y355650D01*
G37*
G36*
X2720746Y343865D02*
G01*
X2783636Y343865D01*
X2783636Y406603D01*
X2778302Y404520D01*
X2765602Y397510D01*
X2753868Y388975D01*
X2743301Y379069D01*
X2734056Y367893D01*
X2726283Y355650D01*
G37*
G36*
X4566920Y343865D02*
G01*
X4629861Y343865D01*
X4624324Y355650D01*
X4616551Y367893D01*
X4607306Y379069D01*
X4596688Y388975D01*
X4584954Y397510D01*
X4572254Y404520D01*
X4566920Y406603D01*
G37*
G36*
X6120231Y343865D02*
G01*
X6183122Y343865D01*
X6183122Y406603D01*
X6177838Y404520D01*
X6165088Y397510D01*
X6153353Y388975D01*
X6142786Y379069D01*
X6133541Y367893D01*
X6125768Y355650D01*
G37*
G36*
X11220246Y343865D02*
G01*
X11283137Y343865D01*
X11283137Y406603D01*
X11277803Y404520D01*
X11265103Y397510D01*
X11253368Y388975D01*
X11242802Y379069D01*
X11233556Y367893D01*
X11225784Y355650D01*
G37*
G36*
X11370818Y343865D02*
G01*
X11433708Y343865D01*
X11428171Y355650D01*
X11420398Y367893D01*
X11411153Y379069D01*
X11400586Y388975D01*
X11388852Y397510D01*
X11376152Y404520D01*
X11370818Y406603D01*
G37*
G36*
X9670846Y343865D02*
G01*
X9733737Y343865D01*
X9728200Y355650D01*
X9720427Y367893D01*
X9711182Y379069D01*
X9700615Y388975D01*
X9688880Y397510D01*
X9676180Y404520D01*
X9670846Y406603D01*
G37*
G36*
X1248511Y643737D02*
G01*
X1261059Y645058D01*
X1273302Y648106D01*
X1285036Y652830D01*
X1295958Y659130D01*
X1305915Y666902D01*
X1314704Y675995D01*
X1322120Y686206D01*
X1328013Y697331D01*
X1332331Y709218D01*
X1334973Y721563D01*
X1335836Y734161D01*
X1334973Y746760D01*
X1332331Y759104D01*
X1328013Y770991D01*
X1322120Y782116D01*
X1314704Y792327D01*
X1305915Y801420D01*
X1295958Y809193D01*
X1285036Y815492D01*
X1273302Y820216D01*
X1261059Y823264D01*
X1243990Y825144D01*
X1240688Y827074D01*
X1238351Y830071D01*
X1237284Y833729D01*
X1237640Y837539D01*
X1239367Y840943D01*
X1242974Y845616D01*
X1251254Y859332D01*
X1255471Y868578D01*
X1183335Y868578D01*
X1183335Y804316D01*
X1182725Y800811D01*
X1180947Y797763D01*
X1172159Y787349D01*
X1165453Y776630D01*
X1160322Y765098D01*
X1156868Y752957D01*
X1155090Y740460D01*
X1155090Y727862D01*
X1156868Y715365D01*
X1160322Y703224D01*
X1165453Y691692D01*
X1172159Y680974D01*
X1180287Y671322D01*
X1189634Y662838D01*
X1200099Y655777D01*
X1211478Y650240D01*
X1223467Y646379D01*
X1235913Y644144D01*
G37*
G36*
X6348526Y643737D02*
G01*
X6361074Y645058D01*
X6373317Y648106D01*
X6385001Y652830D01*
X6395974Y659130D01*
X6405880Y666902D01*
X6414668Y675995D01*
X6422085Y686206D01*
X6428028Y697331D01*
X6432346Y709218D01*
X6434937Y721563D01*
X6435852Y734161D01*
X6434937Y746760D01*
X6432346Y759104D01*
X6428028Y770991D01*
X6422085Y782116D01*
X6414668Y792327D01*
X6405880Y801420D01*
X6395974Y809193D01*
X6385001Y815492D01*
X6373317Y820216D01*
X6361074Y823264D01*
X6344005Y825144D01*
X6340703Y827074D01*
X6338366Y830071D01*
X6337300Y833729D01*
X6337604Y837539D01*
X6339332Y840943D01*
X6342938Y845616D01*
X6351270Y859332D01*
X6355435Y868578D01*
X6283350Y868578D01*
X6283350Y804316D01*
X6282740Y800811D01*
X6280962Y797763D01*
X6272123Y787349D01*
X6265468Y776630D01*
X6260338Y765098D01*
X6256832Y752957D01*
X6255105Y740460D01*
X6255105Y727862D01*
X6256832Y715365D01*
X6260338Y703224D01*
X6265468Y691692D01*
X6272123Y680974D01*
X6280251Y671322D01*
X6289649Y662838D01*
X6300114Y655777D01*
X6311442Y650240D01*
X6323482Y646379D01*
X6335877Y644144D01*
G37*
G36*
X8048498Y643737D02*
G01*
X8061045Y645058D01*
X8073288Y648106D01*
X8085023Y652881D01*
X8095945Y659180D01*
X8105902Y666953D01*
X8114690Y676046D01*
X8122107Y686257D01*
X8128000Y697382D01*
X8132318Y709269D01*
X8134959Y721614D01*
X8135823Y734161D01*
X8134959Y746760D01*
X8132318Y759104D01*
X8128000Y770991D01*
X8122107Y782116D01*
X8114690Y792327D01*
X8105902Y801420D01*
X8095945Y809193D01*
X8085023Y815492D01*
X8073288Y820267D01*
X8061045Y823315D01*
X8043976Y825195D01*
X8040674Y827125D01*
X8038338Y830122D01*
X8037271Y833780D01*
X8037626Y837539D01*
X8039353Y840943D01*
X8042960Y845616D01*
X8051241Y859383D01*
X8055457Y868578D01*
X7983321Y868578D01*
X7983321Y804316D01*
X7982712Y800862D01*
X7980934Y797763D01*
X7972145Y787349D01*
X7965440Y776681D01*
X7960309Y765149D01*
X7956854Y753008D01*
X7955076Y740511D01*
X7955076Y727862D01*
X7956854Y715365D01*
X7960309Y703224D01*
X7965440Y691692D01*
X7972145Y680974D01*
X7980273Y671322D01*
X7989620Y662889D01*
X8000085Y655828D01*
X8011464Y650290D01*
X8023453Y646379D01*
X8035899Y644194D01*
G37*
G36*
X9748520Y643737D02*
G01*
X9761067Y645058D01*
X9773310Y648106D01*
X9784994Y652881D01*
X9795967Y659180D01*
X9805873Y666953D01*
X9814661Y676046D01*
X9822078Y686257D01*
X9828022Y697382D01*
X9832340Y709269D01*
X9834930Y721614D01*
X9835845Y734161D01*
X9834930Y746760D01*
X9832340Y759104D01*
X9828022Y770991D01*
X9822078Y782116D01*
X9814661Y792327D01*
X9805873Y801420D01*
X9795967Y809193D01*
X9784994Y815492D01*
X9773310Y820267D01*
X9761067Y823315D01*
X9743998Y825195D01*
X9740696Y827125D01*
X9738360Y830122D01*
X9737293Y833780D01*
X9737598Y837539D01*
X9739325Y840943D01*
X9742932Y845616D01*
X9751263Y859383D01*
X9755428Y868578D01*
X9683343Y868578D01*
X9683343Y804316D01*
X9682734Y800862D01*
X9680956Y797763D01*
X9672116Y787349D01*
X9665462Y776681D01*
X9660331Y765149D01*
X9656826Y753008D01*
X9655098Y740511D01*
X9655098Y727862D01*
X9656826Y715365D01*
X9660331Y703224D01*
X9665462Y691692D01*
X9672116Y680974D01*
X9680244Y671322D01*
X9689642Y662889D01*
X9700107Y655828D01*
X9711436Y650290D01*
X9723475Y646379D01*
X9735870Y644194D01*
G37*
G36*
X4648504Y643737D02*
G01*
X4661052Y645058D01*
X4673295Y648106D01*
X4685030Y652830D01*
X4695952Y659130D01*
X4705908Y666902D01*
X4714697Y675995D01*
X4722114Y686206D01*
X4728006Y697331D01*
X4732324Y709218D01*
X4734966Y721563D01*
X4735830Y734161D01*
X4734966Y746760D01*
X4732324Y759104D01*
X4728006Y770991D01*
X4722114Y782116D01*
X4714697Y792327D01*
X4705908Y801420D01*
X4695952Y809193D01*
X4685030Y815492D01*
X4673295Y820216D01*
X4661052Y823264D01*
X4643983Y825144D01*
X4640681Y827074D01*
X4638344Y830071D01*
X4637278Y833729D01*
X4637633Y837539D01*
X4639360Y840943D01*
X4642967Y845616D01*
X4651248Y859332D01*
X4655464Y868578D01*
X4583328Y868578D01*
X4583328Y804316D01*
X4582718Y800811D01*
X4580940Y797763D01*
X4572152Y787349D01*
X4565446Y776630D01*
X4560316Y765098D01*
X4556861Y752957D01*
X4555083Y740460D01*
X4555083Y727862D01*
X4556861Y715365D01*
X4560316Y703224D01*
X4565446Y691692D01*
X4572152Y680974D01*
X4580280Y671322D01*
X4589627Y662838D01*
X4600092Y655777D01*
X4611471Y650240D01*
X4623460Y646379D01*
X4635906Y644144D01*
G37*
G36*
X2948533Y643737D02*
G01*
X2961081Y645058D01*
X2973324Y648106D01*
X2985008Y652830D01*
X2995980Y659130D01*
X3005886Y666902D01*
X3014675Y675995D01*
X3022092Y686206D01*
X3028035Y697331D01*
X3032353Y709218D01*
X3034944Y721563D01*
X3035858Y734161D01*
X3034944Y746760D01*
X3032353Y759104D01*
X3028035Y770991D01*
X3022092Y782116D01*
X3014675Y792327D01*
X3005886Y801420D01*
X2995980Y809193D01*
X2985008Y815492D01*
X2973324Y820216D01*
X2961081Y823264D01*
X2944012Y825144D01*
X2940710Y827074D01*
X2938373Y830071D01*
X2937306Y833729D01*
X2937611Y837539D01*
X2939338Y840943D01*
X2942945Y845616D01*
X2951276Y859332D01*
X2955442Y868578D01*
X2883357Y868578D01*
X2883357Y804316D01*
X2882747Y800811D01*
X2880969Y797763D01*
X2872130Y787349D01*
X2865475Y776630D01*
X2860344Y765098D01*
X2856839Y752957D01*
X2855112Y740460D01*
X2855112Y727862D01*
X2856839Y715365D01*
X2860344Y703224D01*
X2865475Y691692D01*
X2872130Y680974D01*
X2880258Y671322D01*
X2889656Y662838D01*
X2900121Y655777D01*
X2911449Y650240D01*
X2923489Y646379D01*
X2935884Y644144D01*
G37*
G36*
X11448491Y643737D02*
G01*
X11461038Y645058D01*
X11473281Y648106D01*
X11485016Y652881D01*
X11495938Y659180D01*
X11505895Y666953D01*
X11514683Y676046D01*
X11522100Y686257D01*
X11527993Y697382D01*
X11532311Y709269D01*
X11534952Y721614D01*
X11535816Y734161D01*
X11534952Y746760D01*
X11532311Y759104D01*
X11527993Y770991D01*
X11522100Y782116D01*
X11514683Y792327D01*
X11505895Y801420D01*
X11495938Y809193D01*
X11485016Y815492D01*
X11473281Y820267D01*
X11461038Y823315D01*
X11443970Y825195D01*
X11440668Y827125D01*
X11438331Y830122D01*
X11437264Y833780D01*
X11437620Y837539D01*
X11439347Y840943D01*
X11442954Y845616D01*
X11451234Y859383D01*
X11455450Y868578D01*
X11383314Y868578D01*
X11383314Y804316D01*
X11382705Y800862D01*
X11380927Y797763D01*
X11372138Y787349D01*
X11365433Y776681D01*
X11360302Y765149D01*
X11356848Y753008D01*
X11355070Y740511D01*
X11355070Y727862D01*
X11356848Y715365D01*
X11360302Y703224D01*
X11365433Y691692D01*
X11372138Y680974D01*
X11380266Y671322D01*
X11389614Y662889D01*
X11400078Y655828D01*
X11411458Y650290D01*
X11423446Y646379D01*
X11435892Y644194D01*
G37*
G36*
X5964986Y784656D02*
G01*
X5980988Y784656D01*
X5996940Y786485D01*
X6012586Y790092D01*
X6027674Y795477D01*
X6042050Y802589D01*
X6055563Y811276D01*
X6068009Y821385D01*
X6079185Y832916D01*
X6088938Y845616D01*
X6091275Y849477D01*
X6094120Y852525D01*
X6097930Y854151D01*
X6102045Y854151D01*
X6105855Y852525D01*
X6108700Y849477D01*
X6111036Y845616D01*
X6120790Y832916D01*
X6131966Y821385D01*
X6144412Y811276D01*
X6157925Y802589D01*
X6170625Y796340D01*
X6170625Y868578D01*
X6116167Y868578D01*
X6112408Y869289D01*
X6109208Y871321D01*
X6106972Y874420D01*
X6106007Y878078D01*
X6106464Y881887D01*
X6108852Y889203D01*
X6112052Y904900D01*
X6113424Y920902D01*
X6112967Y936955D01*
X6110681Y952804D01*
X6106566Y968502D01*
X6106261Y972210D01*
X6107328Y975766D01*
X6109614Y978662D01*
X6112764Y980592D01*
X6116370Y981252D01*
X6170625Y981252D01*
X6170625Y1053388D01*
X6164986Y1051001D01*
X6151016Y1043127D01*
X6138062Y1033678D01*
X6126226Y1022807D01*
X6115710Y1010716D01*
X6108395Y999947D01*
X6105601Y997203D01*
X6101943Y995730D01*
X6098032Y995730D01*
X6094374Y997203D01*
X6091580Y999947D01*
X6084265Y1010716D01*
X6073749Y1022807D01*
X6061913Y1033678D01*
X6048959Y1043127D01*
X6034989Y1051001D01*
X6021019Y1056894D01*
X6017564Y1059281D01*
X6015380Y1062888D01*
X6014821Y1067003D01*
X6015990Y1071067D01*
X6019241Y1074674D01*
X6031839Y1086967D01*
X6043117Y1100531D01*
X6052820Y1115212D01*
X6060948Y1130858D01*
X6067399Y1147267D01*
X6072022Y1164234D01*
X6074816Y1181658D01*
X6075730Y1199235D01*
X6074816Y1216812D01*
X6072022Y1234236D01*
X6067399Y1251204D01*
X6060948Y1267612D01*
X6052820Y1283258D01*
X6043117Y1297940D01*
X6031839Y1311503D01*
X6019241Y1323797D01*
X6017209Y1325372D01*
X6014466Y1328674D01*
X6013348Y1332839D01*
X6014008Y1337106D01*
X6016396Y1340662D01*
X6020054Y1342948D01*
X6027674Y1345641D01*
X6042050Y1352753D01*
X6055563Y1361440D01*
X6068009Y1371549D01*
X6079185Y1383080D01*
X6088938Y1395780D01*
X6091275Y1399641D01*
X6094120Y1402689D01*
X6097930Y1404315D01*
X6102045Y1404315D01*
X6105855Y1402689D01*
X6108700Y1399641D01*
X6111036Y1395780D01*
X6120790Y1383080D01*
X6131966Y1371549D01*
X6144412Y1361440D01*
X6157925Y1352753D01*
X6170625Y1346504D01*
X6170625Y1418742D01*
X6116167Y1418742D01*
X6112408Y1419453D01*
X6109208Y1421485D01*
X6106972Y1424584D01*
X6106007Y1428242D01*
X6106464Y1432052D01*
X6108852Y1439367D01*
X6112052Y1455064D01*
X6113424Y1471066D01*
X6112967Y1487119D01*
X6110681Y1502968D01*
X6106566Y1518666D01*
X6106261Y1522374D01*
X6107328Y1525930D01*
X6109614Y1528826D01*
X6112764Y1530756D01*
X6116370Y1531416D01*
X6170625Y1531416D01*
X6170625Y1603552D01*
X6164986Y1601165D01*
X6151016Y1593291D01*
X6138062Y1583842D01*
X6126226Y1572971D01*
X6115710Y1560880D01*
X6108395Y1550111D01*
X6105601Y1547368D01*
X6101943Y1545894D01*
X6098032Y1545894D01*
X6094374Y1547368D01*
X6091580Y1550111D01*
X6084265Y1560880D01*
X6073749Y1572971D01*
X6061913Y1583842D01*
X6048959Y1593291D01*
X6034989Y1601165D01*
X6020206Y1607413D01*
X6004814Y1611934D01*
X5989015Y1614678D01*
X5973013Y1615592D01*
X5956960Y1614678D01*
X5941161Y1611934D01*
X5925769Y1607413D01*
X5910986Y1601165D01*
X5897016Y1593291D01*
X5884062Y1583842D01*
X5872226Y1572971D01*
X5861710Y1560880D01*
X5852668Y1547622D01*
X5845200Y1533448D01*
X5839358Y1518513D01*
X5835294Y1502968D01*
X5833008Y1487119D01*
X5832551Y1471066D01*
X5833922Y1455064D01*
X5837123Y1439367D01*
X5842050Y1424127D01*
X5848705Y1409496D01*
X5857036Y1395780D01*
X5866790Y1383080D01*
X5873445Y1376222D01*
X5875680Y1372768D01*
X5876290Y1368653D01*
X5875274Y1364691D01*
X5872734Y1361389D01*
X5869076Y1359458D01*
X5854090Y1354937D01*
X5837885Y1348079D01*
X5822442Y1339545D01*
X5808065Y1329385D01*
X5794806Y1317802D01*
X5782818Y1304848D01*
X5772353Y1290726D01*
X5763412Y1275537D01*
X5756097Y1259484D01*
X5750560Y1242771D01*
X5746851Y1225550D01*
X5744972Y1208024D01*
X5744972Y1190447D01*
X5746851Y1172921D01*
X5750560Y1155700D01*
X5756097Y1138986D01*
X5763412Y1122934D01*
X5772353Y1107744D01*
X5782818Y1093622D01*
X5794806Y1080668D01*
X5808065Y1069086D01*
X5822442Y1058926D01*
X5837885Y1050391D01*
X5854090Y1043533D01*
X5867704Y1039469D01*
X5871260Y1037539D01*
X5873750Y1034440D01*
X5874867Y1030579D01*
X5874410Y1026566D01*
X5872429Y1023061D01*
X5861710Y1010716D01*
X5852668Y997458D01*
X5845200Y983284D01*
X5839358Y968349D01*
X5835294Y952804D01*
X5833008Y936955D01*
X5832551Y920902D01*
X5833922Y904900D01*
X5837123Y889203D01*
X5842050Y873963D01*
X5848705Y859332D01*
X5857036Y845616D01*
X5866790Y832916D01*
X5877966Y821385D01*
X5890412Y811276D01*
X5903925Y802589D01*
X5918301Y795477D01*
X5933389Y790092D01*
X5949035Y786485D01*
G37*
G36*
X7161733Y2745689D02*
G01*
X7225944Y2745689D01*
X7221016Y2756408D01*
X7213295Y2768904D01*
X7204100Y2780334D01*
X7193584Y2790545D01*
X7181850Y2799384D01*
X7169150Y2806750D01*
X7161733Y2809849D01*
G37*
G36*
X7161733Y2590139D02*
G01*
X7169150Y2593238D01*
X7181850Y2600604D01*
X7193584Y2609443D01*
X7204100Y2619654D01*
X7213295Y2631084D01*
X7221016Y2643581D01*
X7225944Y2654249D01*
X7161733Y2654249D01*
G37*
G36*
X7070293Y2589936D02*
G01*
X7070293Y2654249D01*
X7006081Y2654249D01*
X7007656Y2650134D01*
X7014616Y2637231D01*
X7023100Y2625242D01*
X7033006Y2614371D01*
X7044131Y2604820D01*
X7056374Y2596743D01*
G37*
G36*
X11895226Y2509570D02*
G01*
X11914225Y2510028D01*
X11933072Y2512364D01*
X11951563Y2516632D01*
X11969597Y2522677D01*
X11986869Y2530449D01*
X12003328Y2539949D01*
X12018772Y2551074D01*
X12032996Y2563622D01*
X12045899Y2577541D01*
X12057380Y2592679D01*
X12067286Y2608884D01*
X12075515Y2626004D01*
X12082018Y2643835D01*
X12086691Y2662224D01*
X12089536Y2681020D01*
X12090501Y2699969D01*
X12089536Y2718968D01*
X12086691Y2737764D01*
X12082018Y2756154D01*
X12075515Y2773984D01*
X12067286Y2791104D01*
X12057380Y2807309D01*
X12045899Y2822448D01*
X12032996Y2836367D01*
X12018772Y2848914D01*
X12003328Y2860040D01*
X11986869Y2869539D01*
X11969597Y2877312D01*
X11951563Y2883357D01*
X11933072Y2887624D01*
X11914225Y2889961D01*
X11895226Y2890418D01*
X11876278Y2888996D01*
X11857583Y2885694D01*
X11839295Y2880563D01*
X11821617Y2873654D01*
X11804751Y2864967D01*
X11788749Y2854655D01*
X11773916Y2842818D01*
X11760352Y2829560D01*
X11748109Y2815031D01*
X11737441Y2799334D01*
X11728348Y2782671D01*
X11720982Y2765145D01*
X11715343Y2747010D01*
X11711584Y2728366D01*
X11709704Y2709468D01*
X11709704Y2690520D01*
X11711584Y2671622D01*
X11715343Y2652979D01*
X11720982Y2634843D01*
X11728348Y2617317D01*
X11737441Y2600655D01*
X11748109Y2584958D01*
X11760352Y2570429D01*
X11773916Y2557170D01*
X11788749Y2545334D01*
X11804751Y2535021D01*
X11821617Y2526334D01*
X11839295Y2519426D01*
X11857583Y2514295D01*
X11876278Y2510993D01*
G37*
G36*
X295249Y2509570D02*
G01*
X314248Y2510028D01*
X333095Y2512364D01*
X351586Y2516632D01*
X369620Y2522677D01*
X386892Y2530449D01*
X403352Y2539949D01*
X418795Y2551074D01*
X433019Y2563622D01*
X445922Y2577541D01*
X457403Y2592679D01*
X467309Y2608884D01*
X475538Y2626004D01*
X482041Y2643835D01*
X486714Y2662224D01*
X489559Y2681020D01*
X490524Y2699969D01*
X489559Y2718968D01*
X486714Y2737764D01*
X482041Y2756154D01*
X475538Y2773984D01*
X467309Y2791104D01*
X457403Y2807309D01*
X445922Y2822448D01*
X433019Y2836367D01*
X418795Y2848914D01*
X403352Y2860040D01*
X386892Y2869539D01*
X369620Y2877312D01*
X351586Y2883357D01*
X333095Y2887624D01*
X314248Y2889961D01*
X295249Y2890418D01*
X276301Y2888996D01*
X257606Y2885694D01*
X239318Y2880563D01*
X221640Y2873654D01*
X204774Y2864967D01*
X188772Y2854655D01*
X173939Y2842818D01*
X160375Y2829560D01*
X148132Y2815031D01*
X137464Y2799334D01*
X128371Y2782671D01*
X121005Y2765145D01*
X115366Y2747010D01*
X111607Y2728366D01*
X109728Y2709468D01*
X109728Y2690520D01*
X111607Y2671622D01*
X115366Y2652979D01*
X121005Y2634843D01*
X128371Y2617317D01*
X137464Y2600655D01*
X148132Y2584958D01*
X160375Y2570429D01*
X173939Y2557170D01*
X188772Y2545334D01*
X204774Y2535021D01*
X221640Y2526334D01*
X239318Y2519426D01*
X257606Y2514295D01*
X276301Y2510993D01*
G37*
G36*
X9683343Y1531467D02*
G01*
X9755581Y1531467D01*
X9754768Y1533499D01*
X9747300Y1547672D01*
X9738258Y1560880D01*
X9727742Y1573022D01*
X9715906Y1583893D01*
X9702952Y1593291D01*
X9688982Y1601165D01*
X9683343Y1603552D01*
G37*
G36*
X7983321Y1531467D02*
G01*
X8055559Y1531467D01*
X8054797Y1533499D01*
X8047278Y1547672D01*
X8038236Y1560880D01*
X8027720Y1573022D01*
X8015935Y1583893D01*
X8002930Y1593291D01*
X7988960Y1601165D01*
X7983321Y1603552D01*
G37*
G36*
X11383314Y1531467D02*
G01*
X11455552Y1531467D01*
X11454790Y1533499D01*
X11447272Y1547672D01*
X11438229Y1560880D01*
X11427714Y1573022D01*
X11415928Y1583893D01*
X11402923Y1593291D01*
X11388953Y1601165D01*
X11383314Y1603552D01*
G37*
G36*
X1183335Y1531416D02*
G01*
X1255572Y1531416D01*
X1254810Y1533448D01*
X1247292Y1547622D01*
X1238250Y1560880D01*
X1227734Y1572971D01*
X1215948Y1583842D01*
X1202944Y1593291D01*
X1188974Y1601165D01*
X1183335Y1603552D01*
G37*
G36*
X6283350Y1531416D02*
G01*
X6355588Y1531416D01*
X6354775Y1533448D01*
X6347307Y1547622D01*
X6338265Y1560880D01*
X6327749Y1572971D01*
X6315913Y1583842D01*
X6302959Y1593291D01*
X6288989Y1601165D01*
X6283350Y1603552D01*
G37*
G36*
X4583328Y1531416D02*
G01*
X4655566Y1531416D01*
X4654804Y1533448D01*
X4647285Y1547622D01*
X4638243Y1560880D01*
X4627727Y1572971D01*
X4615942Y1583842D01*
X4602937Y1593291D01*
X4588967Y1601165D01*
X4583328Y1603552D01*
G37*
G36*
X2883357Y1531416D02*
G01*
X2955594Y1531416D01*
X2954782Y1533448D01*
X2947314Y1547622D01*
X2938272Y1560880D01*
X2927756Y1572971D01*
X2915920Y1583842D01*
X2902966Y1593291D01*
X2888996Y1601165D01*
X2883357Y1603552D01*
G37*
G36*
X295249Y109575D02*
G01*
X314248Y110032D01*
X333095Y112369D01*
X351586Y116636D01*
X369620Y122682D01*
X386892Y130454D01*
X403352Y139954D01*
X418795Y151079D01*
X433019Y163626D01*
X445922Y177546D01*
X457403Y192684D01*
X467309Y208889D01*
X475538Y226009D01*
X482041Y243840D01*
X486714Y262229D01*
X489559Y281025D01*
X490524Y299974D01*
X489559Y318973D01*
X486714Y337769D01*
X482041Y356158D01*
X475538Y373989D01*
X467309Y391109D01*
X457403Y407314D01*
X445922Y422452D01*
X433019Y436372D01*
X418795Y448919D01*
X403352Y460044D01*
X386892Y469544D01*
X369620Y477316D01*
X351586Y483362D01*
X333095Y487629D01*
X314248Y489966D01*
X295249Y490423D01*
X276301Y489000D01*
X257606Y485698D01*
X239318Y480568D01*
X221640Y473659D01*
X204774Y464972D01*
X188772Y454659D01*
X173939Y442823D01*
X160375Y429564D01*
X148132Y415035D01*
X137464Y399338D01*
X128371Y382676D01*
X121005Y365150D01*
X115366Y347014D01*
X111607Y328371D01*
X109728Y309473D01*
X109728Y290525D01*
X111607Y271627D01*
X115366Y252984D01*
X121005Y234848D01*
X128371Y217322D01*
X137464Y200660D01*
X148132Y184962D01*
X160375Y170434D01*
X173939Y157175D01*
X188772Y145338D01*
X204774Y135026D01*
X221640Y126339D01*
X239318Y119430D01*
X257606Y114300D01*
X276301Y110998D01*
G37*
G36*
X4583328Y981252D02*
G01*
X4655566Y981252D01*
X4654804Y983284D01*
X4647285Y997458D01*
X4638243Y1010716D01*
X4627575Y1023010D01*
X4625594Y1026617D01*
X4625187Y1030732D01*
X4626406Y1034643D01*
X4629150Y1037742D01*
X4632858Y1039520D01*
X4638040Y1040790D01*
X4654600Y1046734D01*
X4670450Y1054455D01*
X4685385Y1063802D01*
X4699203Y1074674D01*
X4711852Y1086967D01*
X4723079Y1100531D01*
X4732832Y1115212D01*
X4740960Y1130858D01*
X4747361Y1147267D01*
X4751984Y1164234D01*
X4754778Y1181658D01*
X4755743Y1199235D01*
X4754778Y1216812D01*
X4751984Y1234236D01*
X4747361Y1251204D01*
X4740960Y1267612D01*
X4732832Y1283258D01*
X4723079Y1297940D01*
X4711852Y1311503D01*
X4699203Y1323797D01*
X4685385Y1334668D01*
X4670450Y1344015D01*
X4654600Y1351737D01*
X4638040Y1357680D01*
X4631436Y1359306D01*
X4627575Y1361135D01*
X4624882Y1364386D01*
X4623714Y1368450D01*
X4624273Y1372666D01*
X4626559Y1376273D01*
X4633163Y1383080D01*
X4642967Y1395780D01*
X4651248Y1409496D01*
X4655464Y1418742D01*
X4583328Y1418742D01*
X4583328Y1373835D01*
X4582668Y1370177D01*
X4580636Y1366977D01*
X4577638Y1364742D01*
X4573981Y1363726D01*
X4568291Y1363268D01*
X4550968Y1360017D01*
X4534103Y1354937D01*
X4517847Y1348079D01*
X4502454Y1339545D01*
X4488027Y1329385D01*
X4485132Y1327556D01*
X4483658Y1325575D01*
X4474768Y1317802D01*
X4462830Y1304848D01*
X4452315Y1290726D01*
X4443374Y1275537D01*
X4436110Y1259484D01*
X4430572Y1242771D01*
X4426864Y1225550D01*
X4424984Y1208024D01*
X4424984Y1190447D01*
X4426864Y1172921D01*
X4430572Y1155700D01*
X4436110Y1138986D01*
X4443374Y1122934D01*
X4452315Y1107744D01*
X4462830Y1093622D01*
X4474768Y1080668D01*
X4482236Y1074115D01*
X4484319Y1071372D01*
X4488027Y1069086D01*
X4502454Y1058926D01*
X4517847Y1050391D01*
X4534103Y1043533D01*
X4550968Y1038453D01*
X4568291Y1035202D01*
X4573981Y1034745D01*
X4577638Y1033729D01*
X4580636Y1031494D01*
X4582668Y1028293D01*
X4583328Y1024636D01*
G37*
G36*
X2883357Y981252D02*
G01*
X2955594Y981252D01*
X2954782Y983284D01*
X2947314Y997458D01*
X2938272Y1010716D01*
X2927604Y1023010D01*
X2925572Y1026617D01*
X2925165Y1030732D01*
X2926435Y1034643D01*
X2929128Y1037742D01*
X2932887Y1039520D01*
X2938018Y1040790D01*
X2954578Y1046734D01*
X2970428Y1054455D01*
X2985363Y1063802D01*
X2999232Y1074674D01*
X3011830Y1086967D01*
X3023108Y1100531D01*
X3032810Y1115212D01*
X3040938Y1130858D01*
X3047390Y1147267D01*
X3052013Y1164234D01*
X3054807Y1181658D01*
X3055721Y1199235D01*
X3054807Y1216812D01*
X3052013Y1234236D01*
X3047390Y1251204D01*
X3040938Y1267612D01*
X3032810Y1283258D01*
X3023108Y1297940D01*
X3011830Y1311503D01*
X2999232Y1323797D01*
X2985363Y1334668D01*
X2970428Y1344015D01*
X2954578Y1351737D01*
X2938018Y1357680D01*
X2931414Y1359306D01*
X2927604Y1361135D01*
X2924860Y1364386D01*
X2923692Y1368450D01*
X2924302Y1372666D01*
X2926537Y1376273D01*
X2933192Y1383080D01*
X2942945Y1395780D01*
X2951276Y1409496D01*
X2955442Y1418742D01*
X2883357Y1418742D01*
X2883357Y1373835D01*
X2882646Y1370177D01*
X2880664Y1366977D01*
X2877616Y1364742D01*
X2874010Y1363726D01*
X2868269Y1363268D01*
X2850946Y1360017D01*
X2834081Y1354937D01*
X2817876Y1348079D01*
X2802432Y1339545D01*
X2788056Y1329385D01*
X2785160Y1327556D01*
X2783636Y1325575D01*
X2774797Y1317802D01*
X2762808Y1304848D01*
X2752344Y1290726D01*
X2743403Y1275537D01*
X2736088Y1259484D01*
X2730550Y1242771D01*
X2726842Y1225550D01*
X2724962Y1208024D01*
X2724962Y1190447D01*
X2726842Y1172921D01*
X2730550Y1155700D01*
X2736088Y1138986D01*
X2743403Y1122934D01*
X2752344Y1107744D01*
X2762808Y1093622D01*
X2774797Y1080668D01*
X2782265Y1074115D01*
X2784348Y1071372D01*
X2788056Y1069086D01*
X2802432Y1058926D01*
X2817876Y1050391D01*
X2834081Y1043533D01*
X2850946Y1038453D01*
X2868269Y1035202D01*
X2874010Y1034745D01*
X2877616Y1033729D01*
X2880664Y1031494D01*
X2882646Y1028293D01*
X2883357Y1024636D01*
G37*
G36*
X1183335Y981252D02*
G01*
X1255572Y981252D01*
X1254810Y983284D01*
X1247292Y997458D01*
X1238250Y1010716D01*
X1227582Y1023010D01*
X1225600Y1026617D01*
X1225194Y1030732D01*
X1226413Y1034643D01*
X1229156Y1037742D01*
X1232865Y1039520D01*
X1238046Y1040790D01*
X1254607Y1046734D01*
X1270457Y1054455D01*
X1285392Y1063802D01*
X1299210Y1074674D01*
X1311859Y1086967D01*
X1323086Y1100531D01*
X1332839Y1115212D01*
X1340967Y1130858D01*
X1347368Y1147267D01*
X1351991Y1164234D01*
X1354785Y1181658D01*
X1355750Y1199235D01*
X1354785Y1216812D01*
X1351991Y1234236D01*
X1347368Y1251204D01*
X1340967Y1267612D01*
X1332839Y1283258D01*
X1323086Y1297940D01*
X1311859Y1311503D01*
X1299210Y1323797D01*
X1285392Y1334668D01*
X1270457Y1344015D01*
X1254607Y1351737D01*
X1238046Y1357680D01*
X1231442Y1359306D01*
X1227582Y1361135D01*
X1224889Y1364386D01*
X1223721Y1368450D01*
X1224280Y1372666D01*
X1226566Y1376273D01*
X1233170Y1383080D01*
X1242974Y1395780D01*
X1251254Y1409496D01*
X1255471Y1418742D01*
X1183335Y1418742D01*
X1183335Y1373835D01*
X1182674Y1370177D01*
X1180642Y1366977D01*
X1177645Y1364742D01*
X1173988Y1363726D01*
X1168298Y1363268D01*
X1150975Y1360017D01*
X1134110Y1354937D01*
X1117854Y1348079D01*
X1102461Y1339545D01*
X1088034Y1329385D01*
X1085138Y1327556D01*
X1083665Y1325575D01*
X1074775Y1317802D01*
X1062837Y1304848D01*
X1052322Y1290726D01*
X1043381Y1275537D01*
X1036116Y1259484D01*
X1030579Y1242771D01*
X1026871Y1225550D01*
X1024991Y1208024D01*
X1024991Y1190447D01*
X1026871Y1172921D01*
X1030579Y1155700D01*
X1036116Y1138986D01*
X1043381Y1122934D01*
X1052322Y1107744D01*
X1062837Y1093622D01*
X1074775Y1080668D01*
X1082243Y1074115D01*
X1084326Y1071372D01*
X1088034Y1069086D01*
X1102461Y1058926D01*
X1117854Y1050391D01*
X1134110Y1043533D01*
X1150975Y1038453D01*
X1168298Y1035202D01*
X1173988Y1034745D01*
X1177645Y1033729D01*
X1180642Y1031494D01*
X1182674Y1028293D01*
X1183335Y1024636D01*
G37*
G36*
X9683343Y981303D02*
G01*
X9755581Y981303D01*
X9754768Y983335D01*
X9747300Y997508D01*
X9738258Y1010716D01*
X9727590Y1023010D01*
X9725558Y1026617D01*
X9725152Y1030732D01*
X9726422Y1034643D01*
X9729114Y1037793D01*
X9732873Y1039571D01*
X9738004Y1040790D01*
X9754565Y1046784D01*
X9770414Y1054506D01*
X9785350Y1063853D01*
X9799218Y1074724D01*
X9811816Y1087018D01*
X9823094Y1100582D01*
X9832797Y1115263D01*
X9840925Y1130858D01*
X9847376Y1147267D01*
X9851999Y1164285D01*
X9854793Y1181658D01*
X9855708Y1199235D01*
X9854793Y1216863D01*
X9851999Y1234236D01*
X9847376Y1251254D01*
X9840925Y1267663D01*
X9832797Y1283258D01*
X9823094Y1297940D01*
X9811816Y1311503D01*
X9799218Y1323797D01*
X9785350Y1334668D01*
X9770414Y1344015D01*
X9754565Y1351737D01*
X9738004Y1357731D01*
X9731400Y1359306D01*
X9727590Y1361186D01*
X9724847Y1364437D01*
X9723678Y1368501D01*
X9724288Y1372666D01*
X9726523Y1376273D01*
X9733178Y1383080D01*
X9742932Y1395780D01*
X9751263Y1409547D01*
X9755428Y1418742D01*
X9683343Y1418742D01*
X9683343Y1373886D01*
X9682632Y1370177D01*
X9680651Y1366977D01*
X9677603Y1364742D01*
X9673996Y1363776D01*
X9668256Y1363319D01*
X9650933Y1360017D01*
X9634067Y1354937D01*
X9617862Y1348079D01*
X9602419Y1339545D01*
X9588042Y1329436D01*
X9585147Y1327607D01*
X9583623Y1325575D01*
X9574784Y1317853D01*
X9562795Y1304899D01*
X9552330Y1290726D01*
X9543389Y1275588D01*
X9536074Y1259535D01*
X9530537Y1242822D01*
X9526828Y1225600D01*
X9524949Y1208074D01*
X9524949Y1190447D01*
X9526828Y1172921D01*
X9530537Y1155700D01*
X9536074Y1138986D01*
X9543389Y1122934D01*
X9552330Y1107795D01*
X9562795Y1093622D01*
X9574784Y1080668D01*
X9582251Y1074166D01*
X9584334Y1071422D01*
X9588042Y1069086D01*
X9602419Y1058976D01*
X9617862Y1050442D01*
X9634067Y1043584D01*
X9650933Y1038504D01*
X9668256Y1035202D01*
X9673996Y1034745D01*
X9677603Y1033780D01*
X9680651Y1031544D01*
X9682632Y1028344D01*
X9683343Y1024636D01*
G37*
G36*
X11383314Y981303D02*
G01*
X11455552Y981303D01*
X11454790Y983335D01*
X11447272Y997508D01*
X11438229Y1010716D01*
X11427561Y1023010D01*
X11425580Y1026617D01*
X11425174Y1030732D01*
X11426393Y1034643D01*
X11429136Y1037793D01*
X11432844Y1039571D01*
X11438026Y1040790D01*
X11454587Y1046784D01*
X11470436Y1054506D01*
X11485372Y1063853D01*
X11499189Y1074724D01*
X11511838Y1087018D01*
X11523065Y1100582D01*
X11532819Y1115263D01*
X11540947Y1130858D01*
X11547348Y1147267D01*
X11551970Y1164285D01*
X11554764Y1181658D01*
X11555730Y1199235D01*
X11554764Y1216863D01*
X11551970Y1234236D01*
X11547348Y1251254D01*
X11540947Y1267663D01*
X11532819Y1283258D01*
X11523065Y1297940D01*
X11511838Y1311503D01*
X11499189Y1323797D01*
X11485372Y1334668D01*
X11470436Y1344015D01*
X11454587Y1351737D01*
X11438026Y1357731D01*
X11431422Y1359306D01*
X11427561Y1361186D01*
X11424869Y1364437D01*
X11423700Y1368501D01*
X11424259Y1372666D01*
X11426545Y1376273D01*
X11433149Y1383080D01*
X11442954Y1395780D01*
X11451234Y1409547D01*
X11455450Y1418742D01*
X11383314Y1418742D01*
X11383314Y1373886D01*
X11382654Y1370177D01*
X11380622Y1366977D01*
X11377625Y1364742D01*
X11373967Y1363776D01*
X11368278Y1363319D01*
X11350955Y1360017D01*
X11334089Y1354937D01*
X11317833Y1348079D01*
X11302441Y1339545D01*
X11288014Y1329436D01*
X11285118Y1327607D01*
X11283645Y1325575D01*
X11274755Y1317853D01*
X11262817Y1304899D01*
X11252301Y1290726D01*
X11243360Y1275588D01*
X11236096Y1259535D01*
X11230559Y1242822D01*
X11226850Y1225600D01*
X11224971Y1208074D01*
X11224971Y1190447D01*
X11226850Y1172921D01*
X11230559Y1155700D01*
X11236096Y1138986D01*
X11243360Y1122934D01*
X11252301Y1107795D01*
X11262817Y1093622D01*
X11274755Y1080668D01*
X11282222Y1074166D01*
X11284305Y1071422D01*
X11288014Y1069086D01*
X11302441Y1058976D01*
X11317833Y1050442D01*
X11334089Y1043584D01*
X11350955Y1038504D01*
X11368278Y1035202D01*
X11373967Y1034745D01*
X11377625Y1033780D01*
X11380622Y1031544D01*
X11382654Y1028344D01*
X11383314Y1024636D01*
G37*
G36*
X7983321Y981303D02*
G01*
X8055559Y981303D01*
X8054797Y983335D01*
X8047278Y997508D01*
X8038236Y1010716D01*
X8027568Y1023010D01*
X8025587Y1026617D01*
X8025180Y1030732D01*
X8026400Y1034643D01*
X8029143Y1037793D01*
X8032851Y1039571D01*
X8038033Y1040790D01*
X8054594Y1046784D01*
X8070443Y1054506D01*
X8085378Y1063853D01*
X8099196Y1074724D01*
X8111845Y1087018D01*
X8123072Y1100582D01*
X8132825Y1115263D01*
X8140953Y1130858D01*
X8147354Y1147267D01*
X8151977Y1164285D01*
X8154771Y1181658D01*
X8155736Y1199235D01*
X8154771Y1216863D01*
X8151977Y1234236D01*
X8147354Y1251254D01*
X8140953Y1267663D01*
X8132825Y1283258D01*
X8123072Y1297940D01*
X8111845Y1311503D01*
X8099196Y1323797D01*
X8085378Y1334668D01*
X8070443Y1344015D01*
X8054594Y1351737D01*
X8038033Y1357731D01*
X8031429Y1359306D01*
X8027568Y1361186D01*
X8024875Y1364437D01*
X8023707Y1368501D01*
X8024266Y1372666D01*
X8026552Y1376273D01*
X8033156Y1383080D01*
X8042960Y1395780D01*
X8051241Y1409547D01*
X8055457Y1418742D01*
X7983321Y1418742D01*
X7983321Y1373886D01*
X7982661Y1370177D01*
X7980629Y1366977D01*
X7977631Y1364742D01*
X7973974Y1363776D01*
X7968284Y1363319D01*
X7950962Y1360017D01*
X7934096Y1354937D01*
X7917840Y1348079D01*
X7902448Y1339545D01*
X7888020Y1329436D01*
X7885125Y1327607D01*
X7883652Y1325575D01*
X7874762Y1317853D01*
X7862824Y1304899D01*
X7852308Y1290726D01*
X7843367Y1275588D01*
X7836103Y1259535D01*
X7830566Y1242822D01*
X7826857Y1225600D01*
X7824978Y1208074D01*
X7824978Y1190447D01*
X7826857Y1172921D01*
X7830566Y1155700D01*
X7836103Y1138986D01*
X7843367Y1122934D01*
X7852308Y1107795D01*
X7862824Y1093622D01*
X7874762Y1080668D01*
X7882229Y1074166D01*
X7884312Y1071422D01*
X7888020Y1069086D01*
X7902448Y1058976D01*
X7917840Y1050442D01*
X7934096Y1043584D01*
X7950962Y1038504D01*
X7968284Y1035202D01*
X7973974Y1034745D01*
X7977631Y1033780D01*
X7980629Y1031544D01*
X7982661Y1028344D01*
X7983321Y1024636D01*
G37*
G36*
X6283350Y981252D02*
G01*
X6355588Y981252D01*
X6354775Y983284D01*
X6347307Y997458D01*
X6338265Y1010716D01*
X6327597Y1023010D01*
X6325565Y1026617D01*
X6325158Y1030732D01*
X6326428Y1034643D01*
X6329121Y1037742D01*
X6332880Y1039520D01*
X6338011Y1040790D01*
X6354572Y1046734D01*
X6370421Y1054455D01*
X6385356Y1063802D01*
X6399225Y1074674D01*
X6411823Y1086967D01*
X6423101Y1100531D01*
X6432804Y1115212D01*
X6440932Y1130858D01*
X6447383Y1147267D01*
X6452006Y1164234D01*
X6454800Y1181658D01*
X6455714Y1199235D01*
X6454800Y1216812D01*
X6452006Y1234236D01*
X6447383Y1251204D01*
X6440932Y1267612D01*
X6432804Y1283258D01*
X6423101Y1297940D01*
X6411823Y1311503D01*
X6399225Y1323797D01*
X6385356Y1334668D01*
X6370421Y1344015D01*
X6354572Y1351737D01*
X6338011Y1357680D01*
X6331407Y1359306D01*
X6327597Y1361135D01*
X6324854Y1364386D01*
X6323685Y1368450D01*
X6324295Y1372666D01*
X6326530Y1376273D01*
X6333185Y1383080D01*
X6342938Y1395780D01*
X6351270Y1409496D01*
X6355435Y1418742D01*
X6283350Y1418742D01*
X6283350Y1373835D01*
X6282639Y1370177D01*
X6280658Y1366977D01*
X6277610Y1364742D01*
X6274003Y1363726D01*
X6268262Y1363268D01*
X6250940Y1360017D01*
X6234074Y1354937D01*
X6217869Y1348079D01*
X6202426Y1339545D01*
X6188049Y1329385D01*
X6185154Y1327556D01*
X6183630Y1325575D01*
X6174790Y1317802D01*
X6162802Y1304848D01*
X6152337Y1290726D01*
X6143396Y1275537D01*
X6136081Y1259484D01*
X6130544Y1242771D01*
X6126835Y1225550D01*
X6124956Y1208024D01*
X6124956Y1190447D01*
X6126835Y1172921D01*
X6130544Y1155700D01*
X6136081Y1138986D01*
X6143396Y1122934D01*
X6152337Y1107744D01*
X6162802Y1093622D01*
X6174790Y1080668D01*
X6182258Y1074115D01*
X6184341Y1071372D01*
X6188049Y1069086D01*
X6202426Y1058926D01*
X6217869Y1050391D01*
X6234074Y1043533D01*
X6250940Y1038453D01*
X6268262Y1035202D01*
X6274003Y1034745D01*
X6277610Y1033729D01*
X6280658Y1031494D01*
X6282639Y1028293D01*
X6283350Y1024636D01*
G37*

%LPD*%
D10*
X11399972Y1863811D02*
G01*
X11072972Y1536811D01*
X11072972Y1475115D01*
X11399972Y1974174D02*
G01*
X11399972Y1863811D01*
X10999972Y2124847D02*
G01*
X11113231Y2124847D01*
X9699975Y1863811D02*
G01*
X9372975Y1536811D01*
X9372975Y1475115D01*
X9699975Y1974174D02*
G01*
X9699975Y1863811D01*
X9299976Y2124847D02*
G01*
X9299976Y2235210D01*
X6607982Y2700004D02*
G01*
X7010598Y2297389D01*
X9237797Y2297389D01*
X9299976Y2235210D01*
X7999978Y1863811D02*
G01*
X7672979Y1536811D01*
X7672979Y1475115D01*
X7999978Y1974174D02*
G01*
X7999978Y1863811D01*
X7559695Y2124847D02*
G01*
X6929140Y2124847D01*
X6353982Y2700004D01*
X6353195Y1974174D02*
G01*
X6180805Y1974174D01*
X5857895Y2235210D02*
G01*
X6099982Y2477297D01*
X6099982Y2700004D01*
X5857895Y2124847D02*
G01*
X5857895Y2235210D01*
X2936895Y1863811D02*
G01*
X2572989Y1499905D01*
X2572989Y1475089D01*
X2936895Y1974174D02*
G01*
X2936895Y1863811D01*
X2416195Y2124847D02*
G01*
X2534762Y2124847D01*
X872992Y1475089D02*
G01*
X872992Y1489008D01*
X1247795Y1863811D01*
X1247795Y1974174D02*
G01*
X1247795Y1863811D01*
X765195Y2124847D02*
G01*
X765195Y2235210D01*
X880968Y2124847D02*
G01*
X765195Y2124847D01*
X5337982Y2700004D02*
G01*
X5337982Y2681386D01*
X5143012Y2486416D01*
X1016401Y2486416D01*
X765195Y2235210D01*
X873500Y300009D02*
G01*
X872992Y300517D01*
X872992Y924925D01*
X11399972Y2124847D02*
G01*
X11286713Y2124847D01*
X11286713Y2124847D02*
G01*
X11136040Y1974174D01*
X10999972Y1974174D01*
X10999972Y1974174D02*
G01*
X10464210Y1974174D01*
X10313537Y2124847D01*
X9699975Y2124847D01*
X9699975Y2124847D02*
G01*
X9586716Y2124847D01*
X9586716Y2124847D02*
G01*
X9436044Y1974174D01*
X9299976Y1974174D01*
X9299976Y1974174D02*
G01*
X9098503Y1974174D01*
X8947830Y2124847D01*
X7999978Y2124847D01*
X7999978Y2124847D02*
G01*
X7886720Y2124847D01*
X7886720Y2124847D02*
G01*
X7736047Y1974174D01*
X7559695Y1974174D01*
X7559695Y1863811D02*
G01*
X7553015Y1857131D01*
X5864575Y1857131D01*
X5857895Y1863811D01*
X7559695Y1974174D02*
G01*
X7559695Y1863811D01*
X5857895Y1974174D02*
G01*
X5857895Y1863811D01*
X6353195Y2124847D02*
G01*
X6145169Y2124847D01*
X5994496Y1974174D01*
X5857895Y1974174D01*
X4638695Y2124847D02*
G01*
X4517994Y2124847D01*
X4367321Y1974174D01*
X4168795Y1974174D01*
X4168795Y1974174D02*
G01*
X3667094Y1974174D01*
X3516421Y2124847D01*
X2936895Y2124847D01*
X2936895Y2124847D02*
G01*
X2790794Y2124847D01*
X2640121Y1974174D01*
X2416195Y1974174D01*
X2416195Y1974174D02*
G01*
X1946244Y1974174D01*
X1795571Y2124847D01*
X1247795Y2124847D01*
X1247795Y2124847D02*
G01*
X1120744Y2124847D01*
X970071Y1974174D01*
X765195Y1974174D01*
X5103134Y2124847D02*
G01*
X5103134Y2286111D01*
X5857895Y1974174D02*
G01*
X5253807Y1974174D01*
X5103134Y2124847D01*
X5103134Y2124847D02*
G01*
X4638695Y2124847D01*
X4638695Y1863811D02*
G01*
X4272986Y1498102D01*
X4272986Y1475089D01*
X4638695Y1974174D02*
G01*
X4638695Y1863811D01*
X4168795Y2124847D02*
G01*
X4168795Y2235210D01*
X5845982Y2700004D02*
G01*
X5532241Y2386263D01*
X4319849Y2386263D01*
X4168795Y2235210D01*
D11*
G01*
X765200Y1974175D03*
D12*
G01*
X765200Y2124837D03*
D11*
G01*
X1247800Y2124825D03*
D12*
G01*
X1247800Y1974164D03*
D11*
G01*
X2416200Y1974175D03*
D12*
G01*
X2416200Y2124837D03*
D11*
G01*
X2936900Y2124825D03*
D12*
G01*
X2936900Y1974164D03*
D11*
G01*
X4168800Y1974175D03*
D12*
G01*
X4168800Y2124837D03*
D11*
G01*
X4638700Y2124825D03*
D12*
G01*
X4638700Y1974164D03*
D11*
G01*
X5857900Y1974175D03*
D12*
G01*
X5857900Y2124837D03*
D11*
G01*
X6353200Y2124825D03*
D12*
G01*
X6353200Y1974164D03*
D11*
G01*
X7559700Y1974175D03*
D12*
G01*
X7559700Y2124837D03*
D11*
G01*
X7999984Y2124825D03*
D12*
G01*
X7999984Y1974164D03*
D11*
G01*
X9299981Y1974175D03*
D12*
G01*
X9299981Y2124837D03*
D11*
G01*
X9699980Y2124825D03*
D12*
G01*
X9699980Y1974164D03*
D11*
G01*
X10999978Y1974175D03*
D12*
G01*
X10999977Y2124837D03*
D11*
G01*
X11399977Y2124825D03*
D12*
G01*
X11399977Y1974164D03*
D13*
G01*
X4272991Y924915D03*
G01*
X4272991Y1475079D03*
G01*
X4526991Y924915D03*
G01*
X4526991Y1475079D03*
G01*
X872997Y924915D03*
G01*
X872997Y1475079D03*
G01*
X1126997Y924915D03*
G01*
X1126997Y1475079D03*
G01*
X2572994Y924915D03*
G01*
X2572994Y1475079D03*
G01*
X2826994Y924915D03*
G01*
X2826994Y1475079D03*
G01*
X5972987Y924915D03*
G01*
X5972987Y1475079D03*
G01*
X6226987Y924915D03*
G01*
X6226987Y1475079D03*
G01*
X7672984Y924940D03*
G01*
X7672984Y1475104D03*
G01*
X7926984Y924940D03*
G01*
X7926984Y1475104D03*
G01*
X9372981Y924940D03*
G01*
X9372981Y1475104D03*
G01*
X9626981Y924940D03*
G01*
X9626981Y1475104D03*
G01*
X11072977Y924940D03*
G01*
X11072977Y1475104D03*
G01*
X11326977Y924940D03*
G01*
X11326977Y1475104D03*
D14*
G01*
X5083987Y2699994D03*
D15*
G01*
X5337987Y2699994D03*
G01*
X5591987Y2699994D03*
G01*
X5845987Y2699994D03*
G01*
X6099987Y2699994D03*
G01*
X6353987Y2699994D03*
G01*
X6607987Y2699994D03*
G01*
X6861987Y2699994D03*
G01*
X7115987Y2699994D03*
D16*
G01*
X873505Y299999D03*
G01*
X1127505Y299999D03*
G01*
X2573502Y299999D03*
G01*
X2827502Y299999D03*
G01*
X4269079Y299999D03*
G01*
X4523104Y299999D03*
G01*
X5972987Y299999D03*
G01*
X6226987Y299999D03*
G01*
X7672984Y299999D03*
G01*
X7926984Y299999D03*
G01*
X9372981Y299999D03*
G01*
X9626981Y299999D03*
G01*
X11072977Y299999D03*
G01*
X11326977Y299999D03*
D10*
G01*
X5103134Y2286111D03*
G01*
X880968Y2124847D03*
G01*
X2534762Y2124847D03*
G01*
X6180805Y1974174D03*
G01*
X11113231Y2124847D03*
M02*
