G04 Layer: TopSilkscreenLayer*
G04 EasyEDA v6.5.22, 2022-12-11 09:51:38*
G04 e12cfe8ce6ad4c4799b389a6830ee86a,10*
G04 Gerber Generator version 0.2*
G04 Scale: 100 percent, Rotated: No, Reflected: No *
G04 Dimensions in millimeters *
G04 leading zeros omitted , absolute positions ,4 integer and 5 decimal *
%FSLAX45Y45*%
%MOMM*%

%ADD10C,0.1524*%
%ADD11C,0.2540*%
%ADD12C,0.2030*%
%ADD13C,0.2032*%
%ADD14C,0.2007*%
%ADD15C,0.0157*%

%LPD*%
D10*
X3922217Y1244701D02*
G01*
X3911803Y1239367D01*
X3901389Y1228953D01*
X3896309Y1218793D01*
X3896309Y1197965D01*
X3901389Y1187551D01*
X3911803Y1177137D01*
X3922217Y1171803D01*
X3937965Y1166723D01*
X3963873Y1166723D01*
X3979367Y1171803D01*
X3989781Y1177137D01*
X4000195Y1187551D01*
X4005275Y1197965D01*
X4005275Y1218793D01*
X4000195Y1228953D01*
X3989781Y1239367D01*
X3979367Y1244701D01*
X3922217Y1356969D02*
G01*
X3911803Y1351635D01*
X3901389Y1341221D01*
X3896309Y1330807D01*
X3896309Y1310233D01*
X3901389Y1299819D01*
X3911803Y1289405D01*
X3922217Y1284071D01*
X3937965Y1278991D01*
X3963873Y1278991D01*
X3979367Y1284071D01*
X3989781Y1289405D01*
X4000195Y1299819D01*
X4005275Y1310233D01*
X4005275Y1330807D01*
X4000195Y1341221D01*
X3989781Y1351635D01*
X3979367Y1356969D01*
X3963873Y1356969D01*
X3963873Y1330807D02*
G01*
X3963873Y1356969D01*
X3896309Y1422247D02*
G01*
X3901389Y1411833D01*
X3911803Y1401673D01*
X3922217Y1396339D01*
X3937965Y1391259D01*
X3963873Y1391259D01*
X3979367Y1396339D01*
X3989781Y1401673D01*
X4000195Y1411833D01*
X4005275Y1422247D01*
X4005275Y1443075D01*
X4000195Y1453489D01*
X3989781Y1463903D01*
X3979367Y1468983D01*
X3963873Y1474317D01*
X3937965Y1474317D01*
X3922217Y1468983D01*
X3911803Y1463903D01*
X3901389Y1453489D01*
X3896309Y1443075D01*
X3896309Y1422247D01*
X3984701Y1437995D02*
G01*
X4015689Y1468983D01*
X3896309Y1519021D02*
G01*
X3896309Y1576171D01*
X3937965Y1544929D01*
X3937965Y1560423D01*
X3943045Y1570837D01*
X3948125Y1576171D01*
X3963873Y1581251D01*
X3974287Y1581251D01*
X3989781Y1576171D01*
X4000195Y1565757D01*
X4005275Y1550263D01*
X4005275Y1534515D01*
X4000195Y1519021D01*
X3995115Y1513687D01*
X3984701Y1508607D01*
X695299Y2375928D02*
G01*
X695299Y2266962D01*
X695299Y2375928D02*
G01*
X742035Y2375928D01*
X757529Y2370848D01*
X762863Y2365514D01*
X767943Y2355100D01*
X767943Y2344686D01*
X762863Y2334272D01*
X757529Y2329192D01*
X742035Y2324112D01*
X695299Y2324112D01*
X731621Y2324112D02*
G01*
X767943Y2266962D01*
X802233Y2355100D02*
G01*
X812647Y2360434D01*
X828395Y2375928D01*
X828395Y2266962D01*
X1168603Y2379433D02*
G01*
X1168603Y2270467D01*
X1168603Y2379433D02*
G01*
X1215339Y2379433D01*
X1230833Y2374353D01*
X1236167Y2369019D01*
X1241247Y2358605D01*
X1241247Y2348191D01*
X1236167Y2337777D01*
X1230833Y2332697D01*
X1215339Y2327617D01*
X1168603Y2327617D01*
X1204925Y2327617D02*
G01*
X1241247Y2270467D01*
X1280871Y2353525D02*
G01*
X1280871Y2358605D01*
X1285951Y2369019D01*
X1291285Y2374353D01*
X1301699Y2379433D01*
X1322273Y2379433D01*
X1332687Y2374353D01*
X1338021Y2369019D01*
X1343101Y2358605D01*
X1343101Y2348191D01*
X1338021Y2337777D01*
X1327607Y2322283D01*
X1275537Y2270467D01*
X1348435Y2270467D01*
X522147Y1244727D02*
G01*
X511733Y1239393D01*
X501319Y1228979D01*
X496239Y1218564D01*
X496239Y1197990D01*
X501319Y1187577D01*
X511733Y1177162D01*
X522147Y1171829D01*
X537895Y1166748D01*
X563803Y1166748D01*
X579297Y1171829D01*
X589711Y1177162D01*
X600125Y1187577D01*
X605459Y1197990D01*
X605459Y1218564D01*
X600125Y1228979D01*
X589711Y1239393D01*
X579297Y1244727D01*
X522147Y1356740D02*
G01*
X511733Y1351661D01*
X501319Y1341246D01*
X496239Y1330832D01*
X496239Y1310004D01*
X501319Y1299590D01*
X511733Y1289430D01*
X522147Y1284096D01*
X537895Y1279017D01*
X563803Y1279017D01*
X579297Y1284096D01*
X589711Y1289430D01*
X600125Y1299590D01*
X605459Y1310004D01*
X605459Y1330832D01*
X600125Y1341246D01*
X589711Y1351661D01*
X579297Y1356740D01*
X563803Y1356740D01*
X563803Y1330832D02*
G01*
X563803Y1356740D01*
X496239Y1422272D02*
G01*
X501319Y1411859D01*
X511733Y1401445D01*
X522147Y1396364D01*
X537895Y1391030D01*
X563803Y1391030D01*
X579297Y1396364D01*
X589711Y1401445D01*
X600125Y1411859D01*
X605459Y1422272D01*
X605459Y1443101D01*
X600125Y1453514D01*
X589711Y1463929D01*
X579297Y1469009D01*
X563803Y1474343D01*
X537895Y1474343D01*
X522147Y1469009D01*
X511733Y1463929D01*
X501319Y1453514D01*
X496239Y1443101D01*
X496239Y1422272D01*
X584631Y1438020D02*
G01*
X615619Y1469009D01*
X517067Y1508632D02*
G01*
X511733Y1519046D01*
X496239Y1534540D01*
X605459Y1534540D01*
X2222296Y1244574D02*
G01*
X2211882Y1239494D01*
X2201468Y1229080D01*
X2196388Y1218666D01*
X2196388Y1197838D01*
X2201468Y1187424D01*
X2211882Y1177010D01*
X2222296Y1171930D01*
X2238044Y1166596D01*
X2263952Y1166596D01*
X2279446Y1171930D01*
X2289860Y1177010D01*
X2300274Y1187424D01*
X2305608Y1197838D01*
X2305608Y1218666D01*
X2300274Y1229080D01*
X2289860Y1239494D01*
X2279446Y1244574D01*
X2222296Y1356842D02*
G01*
X2211882Y1351762D01*
X2201468Y1341348D01*
X2196388Y1330934D01*
X2196388Y1310106D01*
X2201468Y1299692D01*
X2211882Y1289278D01*
X2222296Y1284198D01*
X2238044Y1278864D01*
X2263952Y1278864D01*
X2279446Y1284198D01*
X2289860Y1289278D01*
X2300274Y1299692D01*
X2305608Y1310106D01*
X2305608Y1330934D01*
X2300274Y1341348D01*
X2289860Y1351762D01*
X2279446Y1356842D01*
X2263952Y1356842D01*
X2263952Y1330934D02*
G01*
X2263952Y1356842D01*
X2196388Y1422374D02*
G01*
X2201468Y1411960D01*
X2211882Y1401546D01*
X2222296Y1396212D01*
X2238044Y1391132D01*
X2263952Y1391132D01*
X2279446Y1396212D01*
X2289860Y1401546D01*
X2300274Y1411960D01*
X2305608Y1422374D01*
X2305608Y1443202D01*
X2300274Y1453362D01*
X2289860Y1463776D01*
X2279446Y1469110D01*
X2263952Y1474190D01*
X2238044Y1474190D01*
X2222296Y1469110D01*
X2211882Y1463776D01*
X2201468Y1453362D01*
X2196388Y1443202D01*
X2196388Y1422374D01*
X2284780Y1437868D02*
G01*
X2315768Y1469110D01*
X2222296Y1513814D02*
G01*
X2217216Y1513814D01*
X2206802Y1518894D01*
X2201468Y1524228D01*
X2196388Y1534642D01*
X2196388Y1555216D01*
X2201468Y1565630D01*
X2206802Y1570964D01*
X2217216Y1576044D01*
X2227630Y1576044D01*
X2238044Y1570964D01*
X2253538Y1560550D01*
X2305608Y1508480D01*
X2305608Y1581378D01*
X5622264Y1244600D02*
G01*
X5611850Y1239520D01*
X5601436Y1229105D01*
X5596356Y1218692D01*
X5596356Y1197863D01*
X5601436Y1187450D01*
X5611850Y1177036D01*
X5622264Y1171955D01*
X5638012Y1166621D01*
X5663920Y1166621D01*
X5679414Y1171955D01*
X5689828Y1177036D01*
X5700242Y1187450D01*
X5705576Y1197863D01*
X5705576Y1218692D01*
X5700242Y1229105D01*
X5689828Y1239520D01*
X5679414Y1244600D01*
X5622264Y1356868D02*
G01*
X5611850Y1351534D01*
X5601436Y1341373D01*
X5596356Y1330960D01*
X5596356Y1310131D01*
X5601436Y1299718D01*
X5611850Y1289304D01*
X5622264Y1284223D01*
X5638012Y1278889D01*
X5663920Y1278889D01*
X5679414Y1284223D01*
X5689828Y1289304D01*
X5700242Y1299718D01*
X5705576Y1310131D01*
X5705576Y1330960D01*
X5700242Y1341373D01*
X5689828Y1351534D01*
X5679414Y1356868D01*
X5663920Y1356868D01*
X5663920Y1330960D02*
G01*
X5663920Y1356868D01*
X5596356Y1422400D02*
G01*
X5601436Y1411986D01*
X5611850Y1401571D01*
X5622264Y1396237D01*
X5638012Y1391157D01*
X5663920Y1391157D01*
X5679414Y1396237D01*
X5689828Y1401571D01*
X5700242Y1411986D01*
X5705576Y1422400D01*
X5705576Y1442973D01*
X5700242Y1453387D01*
X5689828Y1463802D01*
X5679414Y1469136D01*
X5663920Y1474215D01*
X5638012Y1474215D01*
X5622264Y1469136D01*
X5611850Y1463802D01*
X5601436Y1453387D01*
X5596356Y1442973D01*
X5596356Y1422400D01*
X5684748Y1437894D02*
G01*
X5715736Y1469136D01*
X5596356Y1560576D02*
G01*
X5669000Y1508505D01*
X5669000Y1586484D01*
X5596356Y1560576D02*
G01*
X5705576Y1560576D01*
X7322159Y1244727D02*
G01*
X7311745Y1239393D01*
X7301331Y1228979D01*
X7296251Y1218564D01*
X7296251Y1197990D01*
X7301331Y1187577D01*
X7311745Y1177162D01*
X7322159Y1171829D01*
X7337907Y1166748D01*
X7363815Y1166748D01*
X7379309Y1171829D01*
X7389723Y1177162D01*
X7400137Y1187577D01*
X7405471Y1197990D01*
X7405471Y1218564D01*
X7400137Y1228979D01*
X7389723Y1239393D01*
X7379309Y1244727D01*
X7322159Y1356995D02*
G01*
X7311745Y1351661D01*
X7301331Y1341246D01*
X7296251Y1330832D01*
X7296251Y1310004D01*
X7301331Y1299845D01*
X7311745Y1289430D01*
X7322159Y1284096D01*
X7337907Y1279017D01*
X7363815Y1279017D01*
X7379309Y1284096D01*
X7389723Y1289430D01*
X7400137Y1299845D01*
X7405471Y1310004D01*
X7405471Y1330832D01*
X7400137Y1341246D01*
X7389723Y1351661D01*
X7379309Y1356995D01*
X7363815Y1356995D01*
X7363815Y1330832D02*
G01*
X7363815Y1356995D01*
X7296251Y1422272D02*
G01*
X7301331Y1411859D01*
X7311745Y1401445D01*
X7322159Y1396364D01*
X7337907Y1391285D01*
X7363815Y1391285D01*
X7379309Y1396364D01*
X7389723Y1401445D01*
X7400137Y1411859D01*
X7405471Y1422272D01*
X7405471Y1443101D01*
X7400137Y1453514D01*
X7389723Y1463929D01*
X7379309Y1469009D01*
X7363815Y1474343D01*
X7337907Y1474343D01*
X7322159Y1469009D01*
X7311745Y1463929D01*
X7301331Y1453514D01*
X7296251Y1443101D01*
X7296251Y1422272D01*
X7384643Y1438020D02*
G01*
X7415631Y1469009D01*
X7296251Y1570862D02*
G01*
X7296251Y1519046D01*
X7342987Y1513712D01*
X7337907Y1519046D01*
X7332573Y1534540D01*
X7332573Y1550035D01*
X7337907Y1565782D01*
X7348321Y1576196D01*
X7363815Y1581277D01*
X7374229Y1581277D01*
X7389723Y1576196D01*
X7400137Y1565782D01*
X7405471Y1550035D01*
X7405471Y1534540D01*
X7400137Y1519046D01*
X7395057Y1513712D01*
X7384643Y1508632D01*
X9022206Y1244676D02*
G01*
X9011793Y1239342D01*
X9001379Y1229182D01*
X8996299Y1218768D01*
X8996299Y1197940D01*
X9001379Y1187526D01*
X9011793Y1177112D01*
X9022206Y1172032D01*
X9037954Y1166698D01*
X9063863Y1166698D01*
X9079356Y1172032D01*
X9089770Y1177112D01*
X9100184Y1187526D01*
X9105518Y1197940D01*
X9105518Y1218768D01*
X9100184Y1229182D01*
X9089770Y1239342D01*
X9079356Y1244676D01*
X9022206Y1356944D02*
G01*
X9011793Y1351610D01*
X9001379Y1341196D01*
X8996299Y1330782D01*
X8996299Y1310208D01*
X9001379Y1299794D01*
X9011793Y1289380D01*
X9022206Y1284046D01*
X9037954Y1278966D01*
X9063863Y1278966D01*
X9079356Y1284046D01*
X9089770Y1289380D01*
X9100184Y1299794D01*
X9105518Y1310208D01*
X9105518Y1330782D01*
X9100184Y1341196D01*
X9089770Y1351610D01*
X9079356Y1356944D01*
X9063863Y1356944D01*
X9063863Y1330782D02*
G01*
X9063863Y1356944D01*
X8996299Y1422222D02*
G01*
X9001379Y1412062D01*
X9011793Y1401648D01*
X9022206Y1396314D01*
X9037954Y1391234D01*
X9063863Y1391234D01*
X9079356Y1396314D01*
X9089770Y1401648D01*
X9100184Y1412062D01*
X9105518Y1422222D01*
X9105518Y1443050D01*
X9100184Y1453464D01*
X9089770Y1463878D01*
X9079356Y1469212D01*
X9063863Y1474292D01*
X9037954Y1474292D01*
X9022206Y1469212D01*
X9011793Y1463878D01*
X9001379Y1453464D01*
X8996299Y1443050D01*
X8996299Y1422222D01*
X9084690Y1437970D02*
G01*
X9115679Y1469212D01*
X9011793Y1570812D02*
G01*
X9001379Y1565732D01*
X8996299Y1550238D01*
X8996299Y1539824D01*
X9001379Y1524076D01*
X9017127Y1513662D01*
X9043034Y1508582D01*
X9068943Y1508582D01*
X9089770Y1513662D01*
X9100184Y1524076D01*
X9105518Y1539824D01*
X9105518Y1544904D01*
X9100184Y1560652D01*
X9089770Y1570812D01*
X9074277Y1576146D01*
X9068943Y1576146D01*
X9053449Y1570812D01*
X9043034Y1560652D01*
X9037954Y1544904D01*
X9037954Y1539824D01*
X9043034Y1524076D01*
X9053449Y1513662D01*
X9068943Y1508582D01*
X10722178Y1244701D02*
G01*
X10711764Y1239367D01*
X10701350Y1228953D01*
X10696270Y1218793D01*
X10696270Y1197965D01*
X10701350Y1187551D01*
X10711764Y1177137D01*
X10722178Y1171803D01*
X10737926Y1166723D01*
X10763834Y1166723D01*
X10779328Y1171803D01*
X10789742Y1177137D01*
X10800156Y1187551D01*
X10805490Y1197965D01*
X10805490Y1218793D01*
X10800156Y1228953D01*
X10789742Y1239367D01*
X10779328Y1244701D01*
X10722178Y1356969D02*
G01*
X10711764Y1351635D01*
X10701350Y1341221D01*
X10696270Y1330807D01*
X10696270Y1310233D01*
X10701350Y1299819D01*
X10711764Y1289405D01*
X10722178Y1284071D01*
X10737926Y1278991D01*
X10763834Y1278991D01*
X10779328Y1284071D01*
X10789742Y1289405D01*
X10800156Y1299819D01*
X10805490Y1310233D01*
X10805490Y1330807D01*
X10800156Y1341221D01*
X10789742Y1351635D01*
X10779328Y1356969D01*
X10763834Y1356969D01*
X10763834Y1330807D02*
G01*
X10763834Y1356969D01*
X10696270Y1422247D02*
G01*
X10701350Y1411833D01*
X10711764Y1401673D01*
X10722178Y1396339D01*
X10737926Y1391259D01*
X10763834Y1391259D01*
X10779328Y1396339D01*
X10789742Y1401673D01*
X10800156Y1411833D01*
X10805490Y1422247D01*
X10805490Y1443075D01*
X10800156Y1453489D01*
X10789742Y1463903D01*
X10779328Y1468983D01*
X10763834Y1474317D01*
X10737926Y1474317D01*
X10722178Y1468983D01*
X10711764Y1463903D01*
X10701350Y1453489D01*
X10696270Y1443075D01*
X10696270Y1422247D01*
X10784662Y1437995D02*
G01*
X10815650Y1468983D01*
X10696270Y1581251D02*
G01*
X10805490Y1529435D01*
X10696270Y1508607D02*
G01*
X10696270Y1581251D01*
X2320823Y2350515D02*
G01*
X2320823Y2241550D01*
X2320823Y2350515D02*
G01*
X2367559Y2350515D01*
X2383307Y2345436D01*
X2388387Y2340102D01*
X2393721Y2329687D01*
X2393721Y2319273D01*
X2388387Y2308860D01*
X2383307Y2303779D01*
X2367559Y2298700D01*
X2320823Y2298700D01*
X2357145Y2298700D02*
G01*
X2393721Y2241550D01*
X2438425Y2350515D02*
G01*
X2495575Y2350515D01*
X2464333Y2308860D01*
X2479827Y2308860D01*
X2490241Y2303779D01*
X2495575Y2298700D01*
X2500655Y2282952D01*
X2500655Y2272537D01*
X2495575Y2257044D01*
X2485161Y2246629D01*
X2469413Y2241550D01*
X2453919Y2241550D01*
X2438425Y2246629D01*
X2433091Y2251710D01*
X2428011Y2262123D01*
X2859404Y2366721D02*
G01*
X2859404Y2257755D01*
X2859404Y2366721D02*
G01*
X2906140Y2366721D01*
X2921888Y2361641D01*
X2926968Y2356307D01*
X2932302Y2345893D01*
X2932302Y2335479D01*
X2926968Y2325065D01*
X2921888Y2319985D01*
X2906140Y2314905D01*
X2859404Y2314905D01*
X2895981Y2314905D02*
G01*
X2932302Y2257755D01*
X3018409Y2366721D02*
G01*
X2966593Y2294077D01*
X3044570Y2294077D01*
X3018409Y2366721D02*
G01*
X3018409Y2257755D01*
X4073474Y2337815D02*
G01*
X4073474Y2228850D01*
X4073474Y2337815D02*
G01*
X4120210Y2337815D01*
X4135958Y2332736D01*
X4141038Y2327402D01*
X4146118Y2316987D01*
X4146118Y2306573D01*
X4141038Y2296160D01*
X4135958Y2291079D01*
X4120210Y2286000D01*
X4073474Y2286000D01*
X4109796Y2286000D02*
G01*
X4146118Y2228850D01*
X4242892Y2337815D02*
G01*
X4190822Y2337815D01*
X4185742Y2291079D01*
X4190822Y2296160D01*
X4206570Y2301494D01*
X4222064Y2301494D01*
X4237558Y2296160D01*
X4247972Y2286000D01*
X4253306Y2270252D01*
X4253306Y2259837D01*
X4247972Y2244344D01*
X4237558Y2233929D01*
X4222064Y2228850D01*
X4206570Y2228850D01*
X4190822Y2233929D01*
X4185742Y2239010D01*
X4180408Y2249423D01*
X4563059Y2341321D02*
G01*
X4563059Y2232355D01*
X4563059Y2341321D02*
G01*
X4609795Y2341321D01*
X4625543Y2336241D01*
X4630623Y2330907D01*
X4635957Y2320493D01*
X4635957Y2310079D01*
X4630623Y2299665D01*
X4625543Y2294585D01*
X4609795Y2289505D01*
X4563059Y2289505D01*
X4599381Y2289505D02*
G01*
X4635957Y2232355D01*
X4732477Y2325827D02*
G01*
X4727397Y2336241D01*
X4711649Y2341321D01*
X4701235Y2341321D01*
X4685741Y2336241D01*
X4675327Y2320493D01*
X4670247Y2294585D01*
X4670247Y2268677D01*
X4675327Y2247849D01*
X4685741Y2237435D01*
X4701235Y2232355D01*
X4706569Y2232355D01*
X4722063Y2237435D01*
X4732477Y2247849D01*
X4737557Y2263343D01*
X4737557Y2268677D01*
X4732477Y2284171D01*
X4722063Y2294585D01*
X4706569Y2299665D01*
X4701235Y2299665D01*
X4685741Y2294585D01*
X4675327Y2284171D01*
X4670247Y2268677D01*
X5775223Y2337815D02*
G01*
X5775223Y2228850D01*
X5775223Y2337815D02*
G01*
X5821959Y2337815D01*
X5837707Y2332736D01*
X5842787Y2327402D01*
X5848121Y2316987D01*
X5848121Y2306573D01*
X5842787Y2296160D01*
X5837707Y2291079D01*
X5821959Y2286000D01*
X5775223Y2286000D01*
X5811545Y2286000D02*
G01*
X5848121Y2228850D01*
X5955055Y2337815D02*
G01*
X5902985Y2228850D01*
X5882411Y2337815D02*
G01*
X5955055Y2337815D01*
X6253962Y2354021D02*
G01*
X6253962Y2245055D01*
X6253962Y2354021D02*
G01*
X6300698Y2354021D01*
X6316446Y2348941D01*
X6321526Y2343607D01*
X6326860Y2333193D01*
X6326860Y2322779D01*
X6321526Y2312365D01*
X6316446Y2307285D01*
X6300698Y2302205D01*
X6253962Y2302205D01*
X6290284Y2302205D02*
G01*
X6326860Y2245055D01*
X6387058Y2354021D02*
G01*
X6371310Y2348941D01*
X6366230Y2338527D01*
X6366230Y2328113D01*
X6371310Y2317699D01*
X6381724Y2312365D01*
X6402552Y2307285D01*
X6418300Y2302205D01*
X6428460Y2291791D01*
X6433794Y2281377D01*
X6433794Y2265629D01*
X6428460Y2255215D01*
X6423380Y2250135D01*
X6407886Y2245055D01*
X6387058Y2245055D01*
X6371310Y2250135D01*
X6366230Y2255215D01*
X6361150Y2265629D01*
X6361150Y2281377D01*
X6366230Y2291791D01*
X6376644Y2302205D01*
X6392138Y2307285D01*
X6412966Y2312365D01*
X6423380Y2317699D01*
X6428460Y2328113D01*
X6428460Y2338527D01*
X6423380Y2348941D01*
X6407886Y2354021D01*
X6387058Y2354021D01*
X7477125Y2350515D02*
G01*
X7477125Y2241550D01*
X7477125Y2350515D02*
G01*
X7523861Y2350515D01*
X7539354Y2345436D01*
X7544688Y2340102D01*
X7549768Y2329687D01*
X7549768Y2319273D01*
X7544688Y2308860D01*
X7539354Y2303779D01*
X7523861Y2298700D01*
X7477125Y2298700D01*
X7513447Y2298700D02*
G01*
X7549768Y2241550D01*
X7651622Y2314194D02*
G01*
X7646543Y2298700D01*
X7636129Y2288286D01*
X7620381Y2282952D01*
X7615300Y2282952D01*
X7599806Y2288286D01*
X7589393Y2298700D01*
X7584059Y2314194D01*
X7584059Y2319273D01*
X7589393Y2335021D01*
X7599806Y2345436D01*
X7615300Y2350515D01*
X7620381Y2350515D01*
X7636129Y2345436D01*
X7646543Y2335021D01*
X7651622Y2314194D01*
X7651622Y2288286D01*
X7646543Y2262123D01*
X7636129Y2246629D01*
X7620381Y2241550D01*
X7610220Y2241550D01*
X7594472Y2246629D01*
X7589393Y2257044D01*
X7889951Y2354021D02*
G01*
X7889951Y2245055D01*
X7889951Y2354021D02*
G01*
X7936687Y2354021D01*
X7952181Y2348941D01*
X7957515Y2343607D01*
X7962595Y2333193D01*
X7962595Y2322779D01*
X7957515Y2312365D01*
X7952181Y2307285D01*
X7936687Y2302205D01*
X7889951Y2302205D01*
X7926273Y2302205D02*
G01*
X7962595Y2245055D01*
X7996885Y2333193D02*
G01*
X8007299Y2338527D01*
X8022793Y2354021D01*
X8022793Y2245055D01*
X8088325Y2354021D02*
G01*
X8072831Y2348941D01*
X8062417Y2333193D01*
X8057083Y2307285D01*
X8057083Y2291791D01*
X8062417Y2265629D01*
X8072831Y2250135D01*
X8088325Y2245055D01*
X8098739Y2245055D01*
X8114233Y2250135D01*
X8124647Y2265629D01*
X8129981Y2291791D01*
X8129981Y2307285D01*
X8124647Y2333193D01*
X8114233Y2348941D01*
X8098739Y2354021D01*
X8088325Y2354021D01*
X9191574Y2350515D02*
G01*
X9191574Y2241550D01*
X9191574Y2350515D02*
G01*
X9238310Y2350515D01*
X9254058Y2345436D01*
X9259138Y2340102D01*
X9264218Y2329687D01*
X9264218Y2319273D01*
X9259138Y2308860D01*
X9254058Y2303779D01*
X9238310Y2298700D01*
X9191574Y2298700D01*
X9227896Y2298700D02*
G01*
X9264218Y2241550D01*
X9298508Y2329687D02*
G01*
X9308922Y2335021D01*
X9324670Y2350515D01*
X9324670Y2241550D01*
X9358960Y2329687D02*
G01*
X9369374Y2335021D01*
X9384868Y2350515D01*
X9384868Y2241550D01*
X9604400Y2354021D02*
G01*
X9604400Y2245055D01*
X9604400Y2354021D02*
G01*
X9651136Y2354021D01*
X9666630Y2348941D01*
X9671964Y2343607D01*
X9677044Y2333193D01*
X9677044Y2322779D01*
X9671964Y2312365D01*
X9666630Y2307285D01*
X9651136Y2302205D01*
X9604400Y2302205D01*
X9640722Y2302205D02*
G01*
X9677044Y2245055D01*
X9711334Y2333193D02*
G01*
X9721748Y2338527D01*
X9737496Y2354021D01*
X9737496Y2245055D01*
X9776866Y2328113D02*
G01*
X9776866Y2333193D01*
X9782200Y2343607D01*
X9787280Y2348941D01*
X9797694Y2354021D01*
X9818522Y2354021D01*
X9828936Y2348941D01*
X9834016Y2343607D01*
X9839350Y2333193D01*
X9839350Y2322779D01*
X9834016Y2312365D01*
X9823602Y2296871D01*
X9771786Y2245055D01*
X9844430Y2245055D01*
X10880725Y2350515D02*
G01*
X10880725Y2241550D01*
X10880725Y2350515D02*
G01*
X10927461Y2350515D01*
X10942954Y2345436D01*
X10948288Y2340102D01*
X10953368Y2329687D01*
X10953368Y2319273D01*
X10948288Y2308860D01*
X10942954Y2303779D01*
X10927461Y2298700D01*
X10880725Y2298700D01*
X10917047Y2298700D02*
G01*
X10953368Y2241550D01*
X10987659Y2329687D02*
G01*
X10998072Y2335021D01*
X11013820Y2350515D01*
X11013820Y2241550D01*
X11058270Y2350515D02*
G01*
X11115420Y2350515D01*
X11084433Y2308860D01*
X11099927Y2308860D01*
X11110340Y2303779D01*
X11115420Y2298700D01*
X11120754Y2282952D01*
X11120754Y2272537D01*
X11115420Y2257044D01*
X11105261Y2246629D01*
X11089513Y2241550D01*
X11074018Y2241550D01*
X11058270Y2246629D01*
X11053190Y2251710D01*
X11048111Y2262123D01*
X11293500Y2354021D02*
G01*
X11293500Y2245055D01*
X11293500Y2354021D02*
G01*
X11340236Y2354021D01*
X11355730Y2348941D01*
X11361064Y2343607D01*
X11366144Y2333193D01*
X11366144Y2322779D01*
X11361064Y2312365D01*
X11355730Y2307285D01*
X11340236Y2302205D01*
X11293500Y2302205D01*
X11329822Y2302205D02*
G01*
X11366144Y2245055D01*
X11400434Y2333193D02*
G01*
X11410848Y2338527D01*
X11426596Y2354021D01*
X11426596Y2245055D01*
X11512702Y2354021D02*
G01*
X11460886Y2281377D01*
X11538610Y2281377D01*
X11512702Y2354021D02*
G01*
X11512702Y2245055D01*
X4836769Y2769615D02*
G01*
X4836769Y2686557D01*
X4831435Y2670810D01*
X4826355Y2665729D01*
X4815941Y2660650D01*
X4805527Y2660650D01*
X4795113Y2665729D01*
X4789779Y2670810D01*
X4784699Y2686557D01*
X4784699Y2696971D01*
X4871059Y2748787D02*
G01*
X4881219Y2754121D01*
X4896967Y2769615D01*
X4896967Y2660650D01*
X1055623Y549427D02*
G01*
X1050289Y559841D01*
X1039876Y570255D01*
X1029715Y575335D01*
X1008887Y575335D01*
X998473Y570255D01*
X988060Y559841D01*
X982726Y549427D01*
X977645Y533679D01*
X977645Y507771D01*
X982726Y492277D01*
X988060Y481863D01*
X998473Y471449D01*
X1008887Y466369D01*
X1029715Y466369D01*
X1039876Y471449D01*
X1050289Y481863D01*
X1055623Y492277D01*
X1089913Y554507D02*
G01*
X1100328Y559841D01*
X1115821Y575335D01*
X1115821Y466369D01*
X2755615Y549427D02*
G01*
X2750281Y559841D01*
X2739867Y570255D01*
X2729707Y575335D01*
X2708879Y575335D01*
X2698465Y570255D01*
X2688051Y559841D01*
X2682717Y549427D01*
X2677637Y533679D01*
X2677637Y507771D01*
X2682717Y492277D01*
X2688051Y481863D01*
X2698465Y471449D01*
X2708879Y466369D01*
X2729707Y466369D01*
X2739867Y471449D01*
X2750281Y481863D01*
X2755615Y492277D01*
X2794985Y549427D02*
G01*
X2794985Y554507D01*
X2800319Y564921D01*
X2805399Y570255D01*
X2815813Y575335D01*
X2836641Y575335D01*
X2847055Y570255D01*
X2852135Y564921D01*
X2857469Y554507D01*
X2857469Y544093D01*
X2852135Y533679D01*
X2841721Y518185D01*
X2789905Y466369D01*
X2862549Y466369D01*
X4451210Y549427D02*
G01*
X4445876Y559841D01*
X4435462Y570255D01*
X4425302Y575335D01*
X4404474Y575335D01*
X4394060Y570255D01*
X4383646Y559841D01*
X4378312Y549427D01*
X4373232Y533679D01*
X4373232Y507771D01*
X4378312Y492277D01*
X4383646Y481863D01*
X4394060Y471449D01*
X4404474Y466369D01*
X4425302Y466369D01*
X4435462Y471449D01*
X4445876Y481863D01*
X4451210Y492277D01*
X4495914Y575335D02*
G01*
X4553064Y575335D01*
X4521822Y533679D01*
X4537316Y533679D01*
X4547730Y528599D01*
X4553064Y523519D01*
X4558144Y507771D01*
X4558144Y497357D01*
X4553064Y481863D01*
X4542650Y471449D01*
X4526902Y466369D01*
X4511408Y466369D01*
X4495914Y471449D01*
X4490580Y476529D01*
X4485500Y486943D01*
X6155105Y549427D02*
G01*
X6149771Y559841D01*
X6139357Y570255D01*
X6129197Y575335D01*
X6108369Y575335D01*
X6097955Y570255D01*
X6087541Y559841D01*
X6082207Y549427D01*
X6077127Y533679D01*
X6077127Y507771D01*
X6082207Y492277D01*
X6087541Y481863D01*
X6097955Y471449D01*
X6108369Y466369D01*
X6129197Y466369D01*
X6139357Y471449D01*
X6149771Y481863D01*
X6155105Y492277D01*
X6241211Y575335D02*
G01*
X6189395Y502691D01*
X6267373Y502691D01*
X6241211Y575335D02*
G01*
X6241211Y466369D01*
X7855102Y549427D02*
G01*
X7849768Y559841D01*
X7839354Y570255D01*
X7829194Y575335D01*
X7808366Y575335D01*
X7797952Y570255D01*
X7787538Y559841D01*
X7782204Y549427D01*
X7777124Y533679D01*
X7777124Y507771D01*
X7782204Y492277D01*
X7787538Y481863D01*
X7797952Y471449D01*
X7808366Y466369D01*
X7829194Y466369D01*
X7839354Y471449D01*
X7849768Y481863D01*
X7855102Y492277D01*
X7951622Y575335D02*
G01*
X7899806Y575335D01*
X7894472Y528599D01*
X7899806Y533679D01*
X7915300Y539013D01*
X7930794Y539013D01*
X7946542Y533679D01*
X7956956Y523519D01*
X7962036Y507771D01*
X7962036Y497357D01*
X7956956Y481863D01*
X7946542Y471449D01*
X7930794Y466369D01*
X7915300Y466369D01*
X7899806Y471449D01*
X7894472Y476529D01*
X7889392Y486943D01*
X9555099Y549427D02*
G01*
X9549765Y559841D01*
X9539350Y570255D01*
X9529190Y575335D01*
X9508363Y575335D01*
X9497949Y570255D01*
X9487534Y559841D01*
X9482200Y549427D01*
X9477120Y533679D01*
X9477120Y507771D01*
X9482200Y492277D01*
X9487534Y481863D01*
X9497949Y471449D01*
X9508363Y466369D01*
X9529190Y466369D01*
X9539350Y471449D01*
X9549765Y481863D01*
X9555099Y492277D01*
X9651618Y559841D02*
G01*
X9646538Y570255D01*
X9630790Y575335D01*
X9620631Y575335D01*
X9604883Y570255D01*
X9594468Y554507D01*
X9589388Y528599D01*
X9589388Y502691D01*
X9594468Y481863D01*
X9604883Y471449D01*
X9620631Y466369D01*
X9625711Y466369D01*
X9641204Y471449D01*
X9651618Y481863D01*
X9656952Y497357D01*
X9656952Y502691D01*
X9651618Y518185D01*
X9641204Y528599D01*
X9625711Y533679D01*
X9620631Y533679D01*
X9604883Y528599D01*
X9594468Y518185D01*
X9589388Y502691D01*
X11255095Y549427D02*
G01*
X11249761Y559841D01*
X11239347Y570255D01*
X11229187Y575335D01*
X11208359Y575335D01*
X11197945Y570255D01*
X11187531Y559841D01*
X11182197Y549427D01*
X11177117Y533679D01*
X11177117Y507771D01*
X11182197Y492277D01*
X11187531Y481863D01*
X11197945Y471449D01*
X11208359Y466369D01*
X11229187Y466369D01*
X11239347Y471449D01*
X11249761Y481863D01*
X11255095Y492277D01*
X11362029Y575335D02*
G01*
X11310213Y466369D01*
X11289385Y575335D02*
G01*
X11362029Y575335D01*
D11*
X4690211Y689076D02*
G01*
X4110227Y689076D01*
X4110227Y689076D02*
G01*
X4110227Y1709089D01*
X4690211Y689076D02*
G01*
X4690211Y1709089D01*
X4110227Y1709089D02*
G01*
X4690211Y1709089D01*
X4120819Y1503883D02*
G01*
X4324019Y1707083D01*
X4480280Y1707083D01*
X4679619Y1503883D01*
D10*
X699140Y2006879D02*
G01*
X699140Y1910991D01*
X831260Y1910991D01*
X831260Y2006879D01*
X699140Y2092121D02*
G01*
X699140Y2188009D01*
X831260Y2188009D01*
X831260Y2092121D01*
X1313860Y2092121D02*
G01*
X1313860Y2188009D01*
X1181740Y2188009D01*
X1181740Y2092121D01*
X1313860Y2006879D02*
G01*
X1313860Y1910991D01*
X1181740Y1910991D01*
X1181740Y2006879D01*
D11*
X1290218Y689076D02*
G01*
X710234Y689076D01*
X710234Y689076D02*
G01*
X710234Y1709089D01*
X1290218Y689076D02*
G01*
X1290218Y1709089D01*
X710234Y1709089D02*
G01*
X1290218Y1709089D01*
X720826Y1503883D02*
G01*
X924026Y1707083D01*
X1080287Y1707083D01*
X1279626Y1503883D01*
X2990215Y689076D02*
G01*
X2410231Y689076D01*
X2410231Y689076D02*
G01*
X2410231Y1709089D01*
X2990215Y689076D02*
G01*
X2990215Y1709089D01*
X2410231Y1709089D02*
G01*
X2990215Y1709089D01*
X2420823Y1503883D02*
G01*
X2624023Y1707083D01*
X2780284Y1707083D01*
X2979623Y1503883D01*
X6390208Y689076D02*
G01*
X5810224Y689076D01*
X5810224Y689076D02*
G01*
X5810224Y1709089D01*
X6390208Y689076D02*
G01*
X6390208Y1709089D01*
X5810224Y1709089D02*
G01*
X6390208Y1709089D01*
X5820816Y1503883D02*
G01*
X6024016Y1707083D01*
X6180277Y1707083D01*
X6379616Y1503883D01*
X8090204Y689102D02*
G01*
X7510221Y689102D01*
X7510221Y689102D02*
G01*
X7510221Y1709115D01*
X8090204Y689102D02*
G01*
X8090204Y1709115D01*
X7510221Y1709115D02*
G01*
X8090204Y1709115D01*
X7520813Y1503908D02*
G01*
X7724013Y1707108D01*
X7880273Y1707108D01*
X8079613Y1503908D01*
X9790201Y689102D02*
G01*
X9210217Y689102D01*
X9210217Y689102D02*
G01*
X9210217Y1709115D01*
X9790201Y689102D02*
G01*
X9790201Y1709115D01*
X9210217Y1709115D02*
G01*
X9790201Y1709115D01*
X9220809Y1503908D02*
G01*
X9424009Y1707108D01*
X9580270Y1707108D01*
X9779609Y1503908D01*
X11490197Y689102D02*
G01*
X10910214Y689102D01*
X10910214Y689102D02*
G01*
X10910214Y1709115D01*
X11490197Y689102D02*
G01*
X11490197Y1709115D01*
X10910214Y1709115D02*
G01*
X11490197Y1709115D01*
X10920806Y1503908D02*
G01*
X11124006Y1707108D01*
X11280266Y1707108D01*
X11479606Y1503908D01*
D10*
X2350140Y2006879D02*
G01*
X2350140Y1910991D01*
X2482260Y1910991D01*
X2482260Y2006879D01*
X2350140Y2092121D02*
G01*
X2350140Y2188009D01*
X2482260Y2188009D01*
X2482260Y2092121D01*
X3002960Y2092121D02*
G01*
X3002960Y2188009D01*
X2870840Y2188009D01*
X2870840Y2092121D01*
X3002960Y2006879D02*
G01*
X3002960Y1910991D01*
X2870840Y1910991D01*
X2870840Y2006879D01*
X4102740Y2006879D02*
G01*
X4102740Y1910991D01*
X4234860Y1910991D01*
X4234860Y2006879D01*
X4102740Y2092121D02*
G01*
X4102740Y2188009D01*
X4234860Y2188009D01*
X4234860Y2092121D01*
X4704760Y2092121D02*
G01*
X4704760Y2188009D01*
X4572640Y2188009D01*
X4572640Y2092121D01*
X4704760Y2006879D02*
G01*
X4704760Y1910991D01*
X4572640Y1910991D01*
X4572640Y2006879D01*
X5791840Y2006879D02*
G01*
X5791840Y1910991D01*
X5923960Y1910991D01*
X5923960Y2006879D01*
X5791840Y2092121D02*
G01*
X5791840Y2188009D01*
X5923960Y2188009D01*
X5923960Y2092121D01*
X6419260Y2092121D02*
G01*
X6419260Y2188009D01*
X6287140Y2188009D01*
X6287140Y2092121D01*
X6419260Y2006879D02*
G01*
X6419260Y1910991D01*
X6287140Y1910991D01*
X6287140Y2006879D01*
X7493640Y2006879D02*
G01*
X7493640Y1910991D01*
X7625760Y1910991D01*
X7625760Y2006879D01*
X7493640Y2092121D02*
G01*
X7493640Y2188009D01*
X7625760Y2188009D01*
X7625760Y2092121D01*
X8066044Y2092121D02*
G01*
X8066044Y2188009D01*
X7933923Y2188009D01*
X7933923Y2092121D01*
X8066044Y2006879D02*
G01*
X8066044Y1910991D01*
X7933923Y1910991D01*
X7933923Y2006879D01*
X9233921Y2006879D02*
G01*
X9233921Y1910991D01*
X9366041Y1910991D01*
X9366041Y2006879D01*
X9233921Y2092121D02*
G01*
X9233921Y2188009D01*
X9366041Y2188009D01*
X9366041Y2092121D01*
X9766040Y2092121D02*
G01*
X9766040Y2188009D01*
X9633920Y2188009D01*
X9633920Y2092121D01*
X9766040Y2006879D02*
G01*
X9766040Y1910991D01*
X9633920Y1910991D01*
X9633920Y2006879D01*
X10933917Y2006879D02*
G01*
X10933917Y1910991D01*
X11066038Y1910991D01*
X11066038Y2006879D01*
X10933917Y2092121D02*
G01*
X10933917Y2188009D01*
X11066038Y2188009D01*
X11066038Y2092121D01*
X11466037Y2092121D02*
G01*
X11466037Y2188009D01*
X11333916Y2188009D01*
X11333916Y2092121D01*
X11466037Y2006879D02*
G01*
X11466037Y1910991D01*
X11333916Y1910991D01*
X11333916Y2006879D01*
D12*
X6988987Y2826994D02*
G01*
X5147487Y2826994D01*
D13*
X6988987Y2826994D02*
G01*
X7242987Y2826994D01*
X7242987Y2572994D01*
X4956987Y2572994D01*
X4956987Y2826994D01*
X5147487Y2826994D01*
D14*
X1254252Y426745D02*
G01*
X746252Y426745D01*
X746252Y172745D01*
X1254252Y172745D01*
X1254252Y426745D01*
X2954243Y426745D02*
G01*
X2446243Y426745D01*
X2446243Y172745D01*
X2954243Y172745D01*
X2954243Y426745D01*
X4649838Y426745D02*
G01*
X4141838Y426745D01*
X4141838Y172745D01*
X4649838Y172745D01*
X4649838Y426745D01*
X6353733Y426745D02*
G01*
X5845733Y426745D01*
X5845733Y172745D01*
X6353733Y172745D01*
X6353733Y426745D01*
X8053730Y426745D02*
G01*
X7545730Y426745D01*
X7545730Y172745D01*
X8053730Y172745D01*
X8053730Y426745D01*
X9753727Y426745D02*
G01*
X9245727Y426745D01*
X9245727Y172745D01*
X9753727Y172745D01*
X9753727Y426745D01*
X11453723Y426745D02*
G01*
X10945723Y426745D01*
X10945723Y172745D01*
X11453723Y172745D01*
X11453723Y426745D01*
M02*
