G04 Layer: TopPasteMaskLayer*
G04 EasyEDA v6.5.22, 2022-12-11 09:51:38*
G04 e12cfe8ce6ad4c4799b389a6830ee86a,10*
G04 Gerber Generator version 0.2*
G04 Scale: 100 percent, Rotated: No, Reflected: No *
G04 Dimensions in millimeters *
G04 leading zeros omitted , absolute positions ,4 integer and 5 decimal *
%FSLAX45Y45*%
%MOMM*%

%ADD10C,0.0001*%

%LPD*%
G36*
X725220Y2014982D02*
G01*
X720191Y2010003D01*
X720191Y1929993D01*
X725220Y1925015D01*
X805180Y1925015D01*
X810209Y1929993D01*
X810209Y2010003D01*
X805180Y2014982D01*
X782421Y2014982D01*
X782421Y1977999D01*
X749401Y1977999D01*
X749401Y2014982D01*
G37*
G36*
X725220Y2173986D02*
G01*
X720191Y2169007D01*
X720191Y2090013D01*
X725220Y2084984D01*
X749401Y2084984D01*
X749401Y2122982D01*
X782421Y2122982D01*
X782421Y2084984D01*
X805180Y2084984D01*
X810209Y2090013D01*
X810209Y2169007D01*
X805180Y2173986D01*
G37*
G36*
X1207820Y2173986D02*
G01*
X1202791Y2169007D01*
X1202791Y2088997D01*
X1207820Y2084019D01*
X1230579Y2084019D01*
X1230579Y2121001D01*
X1263599Y2121001D01*
X1263599Y2084019D01*
X1287780Y2084019D01*
X1292809Y2088997D01*
X1292809Y2169007D01*
X1287780Y2173986D01*
G37*
G36*
X1207820Y2014016D02*
G01*
X1202791Y2008987D01*
X1202791Y1929993D01*
X1207820Y1925015D01*
X1287780Y1925015D01*
X1292809Y1929993D01*
X1292809Y2008987D01*
X1287780Y2014016D01*
X1263599Y2014016D01*
X1263599Y1976018D01*
X1230579Y1976018D01*
X1230579Y2014016D01*
G37*
G36*
X2376220Y2014982D02*
G01*
X2371191Y2010003D01*
X2371191Y1929993D01*
X2376220Y1925015D01*
X2456180Y1925015D01*
X2461209Y1929993D01*
X2461209Y2010003D01*
X2456180Y2014982D01*
X2433421Y2014982D01*
X2433421Y1977999D01*
X2400401Y1977999D01*
X2400401Y2014982D01*
G37*
G36*
X2376220Y2173986D02*
G01*
X2371191Y2169007D01*
X2371191Y2090013D01*
X2376220Y2084984D01*
X2400401Y2084984D01*
X2400401Y2122982D01*
X2433421Y2122982D01*
X2433421Y2084984D01*
X2456180Y2084984D01*
X2461209Y2090013D01*
X2461209Y2169007D01*
X2456180Y2173986D01*
G37*
G36*
X2896920Y2173986D02*
G01*
X2891891Y2169007D01*
X2891891Y2088997D01*
X2896920Y2084019D01*
X2919679Y2084019D01*
X2919679Y2121001D01*
X2952699Y2121001D01*
X2952699Y2084019D01*
X2976880Y2084019D01*
X2981909Y2088997D01*
X2981909Y2169007D01*
X2976880Y2173986D01*
G37*
G36*
X2896920Y2014016D02*
G01*
X2891891Y2008987D01*
X2891891Y1929993D01*
X2896920Y1925015D01*
X2976880Y1925015D01*
X2981909Y1929993D01*
X2981909Y2008987D01*
X2976880Y2014016D01*
X2952699Y2014016D01*
X2952699Y1976018D01*
X2919679Y1976018D01*
X2919679Y2014016D01*
G37*
G36*
X4128820Y2014982D02*
G01*
X4123791Y2010003D01*
X4123791Y1929993D01*
X4128820Y1925015D01*
X4208780Y1925015D01*
X4213809Y1929993D01*
X4213809Y2010003D01*
X4208780Y2014982D01*
X4186021Y2014982D01*
X4186021Y1977999D01*
X4153001Y1977999D01*
X4153001Y2014982D01*
G37*
G36*
X4128820Y2173986D02*
G01*
X4123791Y2169007D01*
X4123791Y2090013D01*
X4128820Y2084984D01*
X4153001Y2084984D01*
X4153001Y2122982D01*
X4186021Y2122982D01*
X4186021Y2084984D01*
X4208780Y2084984D01*
X4213809Y2090013D01*
X4213809Y2169007D01*
X4208780Y2173986D01*
G37*
G36*
X4598720Y2173986D02*
G01*
X4593691Y2169007D01*
X4593691Y2088997D01*
X4598720Y2084019D01*
X4621479Y2084019D01*
X4621479Y2121001D01*
X4654499Y2121001D01*
X4654499Y2084019D01*
X4678680Y2084019D01*
X4683709Y2088997D01*
X4683709Y2169007D01*
X4678680Y2173986D01*
G37*
G36*
X4598720Y2014016D02*
G01*
X4593691Y2008987D01*
X4593691Y1929993D01*
X4598720Y1925015D01*
X4678680Y1925015D01*
X4683709Y1929993D01*
X4683709Y2008987D01*
X4678680Y2014016D01*
X4654499Y2014016D01*
X4654499Y1976018D01*
X4621479Y1976018D01*
X4621479Y2014016D01*
G37*
G36*
X5817920Y2014982D02*
G01*
X5812891Y2010003D01*
X5812891Y1929993D01*
X5817920Y1925015D01*
X5897880Y1925015D01*
X5902909Y1929993D01*
X5902909Y2010003D01*
X5897880Y2014982D01*
X5875121Y2014982D01*
X5875121Y1977999D01*
X5842101Y1977999D01*
X5842101Y2014982D01*
G37*
G36*
X5817920Y2173986D02*
G01*
X5812891Y2169007D01*
X5812891Y2090013D01*
X5817920Y2084984D01*
X5842101Y2084984D01*
X5842101Y2122982D01*
X5875121Y2122982D01*
X5875121Y2084984D01*
X5897880Y2084984D01*
X5902909Y2090013D01*
X5902909Y2169007D01*
X5897880Y2173986D01*
G37*
G36*
X6313220Y2173986D02*
G01*
X6308191Y2169007D01*
X6308191Y2088997D01*
X6313220Y2084019D01*
X6335979Y2084019D01*
X6335979Y2121001D01*
X6368999Y2121001D01*
X6368999Y2084019D01*
X6393180Y2084019D01*
X6398209Y2088997D01*
X6398209Y2169007D01*
X6393180Y2173986D01*
G37*
G36*
X6313220Y2014016D02*
G01*
X6308191Y2008987D01*
X6308191Y1929993D01*
X6313220Y1925015D01*
X6393180Y1925015D01*
X6398209Y1929993D01*
X6398209Y2008987D01*
X6393180Y2014016D01*
X6368999Y2014016D01*
X6368999Y1976018D01*
X6335979Y1976018D01*
X6335979Y2014016D01*
G37*
G36*
X7519720Y2014982D02*
G01*
X7514691Y2010003D01*
X7514691Y1929993D01*
X7519720Y1925015D01*
X7599680Y1925015D01*
X7604709Y1929993D01*
X7604709Y2010003D01*
X7599680Y2014982D01*
X7576921Y2014982D01*
X7576921Y1977999D01*
X7543901Y1977999D01*
X7543901Y2014982D01*
G37*
G36*
X7519720Y2173986D02*
G01*
X7514691Y2169007D01*
X7514691Y2090013D01*
X7519720Y2084984D01*
X7543901Y2084984D01*
X7543901Y2122982D01*
X7576921Y2122982D01*
X7576921Y2084984D01*
X7599680Y2084984D01*
X7604709Y2090013D01*
X7604709Y2169007D01*
X7599680Y2173986D01*
G37*
G36*
X7960004Y2173986D02*
G01*
X7954975Y2169007D01*
X7954975Y2088997D01*
X7960004Y2084019D01*
X7982762Y2084019D01*
X7982762Y2121001D01*
X8015782Y2121001D01*
X8015782Y2084019D01*
X8039963Y2084019D01*
X8044992Y2088997D01*
X8044992Y2169007D01*
X8039963Y2173986D01*
G37*
G36*
X7960004Y2014016D02*
G01*
X7954975Y2008987D01*
X7954975Y1929993D01*
X7960004Y1925015D01*
X8039963Y1925015D01*
X8044992Y1929993D01*
X8044992Y2008987D01*
X8039963Y2014016D01*
X8015782Y2014016D01*
X8015782Y1976018D01*
X7982762Y1976018D01*
X7982762Y2014016D01*
G37*
G36*
X9259976Y2014982D02*
G01*
X9254998Y2010003D01*
X9254998Y1929993D01*
X9259976Y1925015D01*
X9339986Y1925015D01*
X9344964Y1929993D01*
X9344964Y2010003D01*
X9339986Y2014982D01*
X9317177Y2014982D01*
X9317177Y1977999D01*
X9284208Y1977999D01*
X9284208Y2014982D01*
G37*
G36*
X9259976Y2173986D02*
G01*
X9254998Y2169007D01*
X9254998Y2090013D01*
X9259976Y2084984D01*
X9284208Y2084984D01*
X9284208Y2122982D01*
X9317177Y2122982D01*
X9317177Y2084984D01*
X9339986Y2084984D01*
X9344964Y2090013D01*
X9344964Y2169007D01*
X9339986Y2173986D01*
G37*
G36*
X9659975Y2173986D02*
G01*
X9654997Y2169007D01*
X9654997Y2088997D01*
X9659975Y2084019D01*
X9682784Y2084019D01*
X9682784Y2121001D01*
X9715804Y2121001D01*
X9715804Y2084019D01*
X9739985Y2084019D01*
X9744964Y2088997D01*
X9744964Y2169007D01*
X9739985Y2173986D01*
G37*
G36*
X9659975Y2014016D02*
G01*
X9654997Y2008987D01*
X9654997Y1929993D01*
X9659975Y1925015D01*
X9739985Y1925015D01*
X9744964Y1929993D01*
X9744964Y2008987D01*
X9739985Y2014016D01*
X9715804Y2014016D01*
X9715804Y1976018D01*
X9682784Y1976018D01*
X9682784Y2014016D01*
G37*
G36*
X10959998Y2014982D02*
G01*
X10954969Y2010003D01*
X10954969Y1929993D01*
X10959998Y1925015D01*
X11039957Y1925015D01*
X11044986Y1929993D01*
X11044986Y2010003D01*
X11039957Y2014982D01*
X11017199Y2014982D01*
X11017199Y1977999D01*
X10984179Y1977999D01*
X10984179Y2014982D01*
G37*
G36*
X10959998Y2173986D02*
G01*
X10954969Y2169007D01*
X10954969Y2090013D01*
X10959998Y2084984D01*
X10984179Y2084984D01*
X10984179Y2122982D01*
X11017199Y2122982D01*
X11017199Y2084984D01*
X11039957Y2084984D01*
X11044986Y2090013D01*
X11044986Y2169007D01*
X11039957Y2173986D01*
G37*
G36*
X11359997Y2173986D02*
G01*
X11354968Y2169007D01*
X11354968Y2088997D01*
X11359997Y2084019D01*
X11382756Y2084019D01*
X11382756Y2121001D01*
X11415776Y2121001D01*
X11415776Y2084019D01*
X11439956Y2084019D01*
X11444986Y2088997D01*
X11444986Y2169007D01*
X11439956Y2173986D01*
G37*
G36*
X11359997Y2014016D02*
G01*
X11354968Y2008987D01*
X11354968Y1929993D01*
X11359997Y1925015D01*
X11439956Y1925015D01*
X11444986Y1929993D01*
X11444986Y2008987D01*
X11439956Y2014016D01*
X11415776Y2014016D01*
X11415776Y1976018D01*
X11382756Y1976018D01*
X11382756Y2014016D01*
G37*
M02*
