G04 Layer: BottomLayer*
G04 EasyEDA v6.5.22, 2022-12-11 09:51:38*
G04 e12cfe8ce6ad4c4799b389a6830ee86a,10*
G04 Gerber Generator version 0.2*
G04 Scale: 100 percent, Rotated: No, Reflected: No *
G04 Dimensions in millimeters *
G04 leading zeros omitted , absolute positions ,4 integer and 5 decimal *
%FSLAX45Y45*%
%MOMM*%

%ADD10C,0.6000*%
%ADD11C,2.0000*%
%ADD12R,1.5748X1.5748*%
%ADD13C,1.5748*%
%ADD14C,1.5000*%
%ADD15C,0.0107*%

%LPD*%
G36*
X300685Y25908D02*
G01*
X278079Y26822D01*
X256743Y29362D01*
X235610Y33629D01*
X214934Y39471D01*
X194767Y46939D01*
X175209Y55981D01*
X156464Y66548D01*
X138582Y78536D01*
X121716Y91846D01*
X105918Y106476D01*
X91338Y122326D01*
X78028Y139242D01*
X66141Y157124D01*
X55626Y175920D01*
X46634Y195478D01*
X39217Y215696D01*
X33426Y236423D01*
X29260Y257505D01*
X26771Y278892D01*
X25908Y300685D01*
X25908Y2699308D01*
X26822Y2721914D01*
X29362Y2743250D01*
X33629Y2764383D01*
X39471Y2785059D01*
X46939Y2805226D01*
X55981Y2824784D01*
X66548Y2843530D01*
X78536Y2861411D01*
X91846Y2878277D01*
X106476Y2894076D01*
X122326Y2908655D01*
X139242Y2921965D01*
X157124Y2933852D01*
X175920Y2944368D01*
X195478Y2953359D01*
X215696Y2960776D01*
X236423Y2966567D01*
X257505Y2970733D01*
X278892Y2973222D01*
X300685Y2974086D01*
X11899290Y2974086D01*
X11921896Y2973171D01*
X11943232Y2970631D01*
X11964365Y2966364D01*
X11985040Y2960522D01*
X12005208Y2953054D01*
X12024766Y2944012D01*
X12043511Y2933446D01*
X12061393Y2921457D01*
X12078258Y2908147D01*
X12094057Y2893517D01*
X12108637Y2877667D01*
X12121946Y2860751D01*
X12133834Y2842869D01*
X12144349Y2824073D01*
X12153341Y2804515D01*
X12160758Y2784297D01*
X12166549Y2763570D01*
X12170714Y2742488D01*
X12173204Y2721102D01*
X12174067Y2699308D01*
X12174067Y300685D01*
X12173153Y278079D01*
X12170613Y256743D01*
X12166346Y235610D01*
X12160504Y214934D01*
X12153036Y194767D01*
X12143994Y175209D01*
X12133427Y156464D01*
X12121438Y138582D01*
X12108129Y121716D01*
X12093498Y105918D01*
X12077649Y91338D01*
X12060732Y78028D01*
X12042851Y66141D01*
X12024055Y55626D01*
X12004497Y46634D01*
X11984278Y39217D01*
X11963552Y33426D01*
X11942470Y29260D01*
X11921083Y26771D01*
X11899290Y25908D01*
G37*

%LPC*%
G36*
X7006081Y2745689D02*
G01*
X7070293Y2745689D01*
X7070293Y2810052D01*
X7056374Y2803245D01*
X7044131Y2795168D01*
X7033006Y2785618D01*
X7023100Y2774746D01*
X7014616Y2762758D01*
X7007656Y2749854D01*
G37*
G36*
X11895226Y109575D02*
G01*
X11914225Y110032D01*
X11933072Y112369D01*
X11951563Y116636D01*
X11969597Y122682D01*
X11986869Y130454D01*
X12003328Y139954D01*
X12018772Y151079D01*
X12032996Y163626D01*
X12045899Y177546D01*
X12057380Y192684D01*
X12067286Y208889D01*
X12075515Y226009D01*
X12082018Y243840D01*
X12086691Y262229D01*
X12089536Y281025D01*
X12090501Y299974D01*
X12089536Y318973D01*
X12086691Y337769D01*
X12082018Y356158D01*
X12075515Y373989D01*
X12067286Y391109D01*
X12057380Y407314D01*
X12045899Y422452D01*
X12032996Y436372D01*
X12018772Y448919D01*
X12003328Y460044D01*
X11986869Y469544D01*
X11969597Y477316D01*
X11951563Y483362D01*
X11933072Y487629D01*
X11914225Y489966D01*
X11895226Y490423D01*
X11876278Y489000D01*
X11857583Y485698D01*
X11839295Y480568D01*
X11821617Y473659D01*
X11804751Y464972D01*
X11788749Y454659D01*
X11773916Y442823D01*
X11760352Y429564D01*
X11748109Y415035D01*
X11737441Y399338D01*
X11728348Y382676D01*
X11720982Y365150D01*
X11715343Y347014D01*
X11711584Y328371D01*
X11709704Y309473D01*
X11709704Y290525D01*
X11711584Y271627D01*
X11715343Y252984D01*
X11720982Y234848D01*
X11728348Y217322D01*
X11737441Y200660D01*
X11748109Y184962D01*
X11760352Y170434D01*
X11773916Y157175D01*
X11788749Y145338D01*
X11804751Y135026D01*
X11821617Y126339D01*
X11839295Y119430D01*
X11857583Y114300D01*
X11876278Y110998D01*
G37*
G36*
X866241Y184759D02*
G01*
X880770Y184759D01*
X895146Y186537D01*
X909218Y190144D01*
X922680Y195478D01*
X935380Y202488D01*
X947115Y211023D01*
X957681Y220929D01*
X966927Y232105D01*
X974699Y244348D01*
X980897Y257505D01*
X985367Y271272D01*
X988110Y285546D01*
X988974Y299974D01*
X988110Y314452D01*
X985367Y328726D01*
X980897Y342493D01*
X974699Y355650D01*
X966927Y367893D01*
X957681Y379069D01*
X947115Y388975D01*
X935380Y397510D01*
X922680Y404520D01*
X909218Y409854D01*
X895146Y413461D01*
X880770Y415239D01*
X866241Y415239D01*
X851865Y413461D01*
X837793Y409854D01*
X824331Y404520D01*
X811631Y397510D01*
X799896Y388975D01*
X789330Y379069D01*
X780084Y367893D01*
X772312Y355650D01*
X766114Y342493D01*
X761644Y328726D01*
X758901Y314452D01*
X758037Y299974D01*
X758901Y285546D01*
X761644Y271272D01*
X766114Y257505D01*
X772312Y244348D01*
X780084Y232105D01*
X789330Y220929D01*
X799896Y211023D01*
X811631Y202488D01*
X824331Y195478D01*
X837793Y190144D01*
X851865Y186537D01*
G37*
G36*
X2566263Y184759D02*
G01*
X2580741Y184759D01*
X2595118Y186537D01*
X2609189Y190144D01*
X2622651Y195478D01*
X2635402Y202488D01*
X2647137Y211023D01*
X2657703Y220929D01*
X2666949Y232105D01*
X2674721Y244348D01*
X2680868Y257505D01*
X2685338Y271272D01*
X2688082Y285546D01*
X2688996Y299974D01*
X2688336Y310286D01*
X2688996Y314502D01*
X2691282Y318109D01*
X2714091Y340868D01*
X2717393Y343052D01*
X2721254Y343865D01*
X2783636Y343865D01*
X2783636Y406247D01*
X2784398Y410108D01*
X2786634Y413410D01*
X2849829Y476656D01*
X2853131Y478840D01*
X2857042Y479602D01*
X2959049Y479602D01*
X2970479Y480517D01*
X2981248Y483108D01*
X2991459Y487324D01*
X3000857Y493115D01*
X3009595Y500532D01*
X4621530Y2112467D01*
X4624832Y2114651D01*
X4628692Y2115464D01*
X5137200Y2115464D01*
X5141061Y2114651D01*
X5144363Y2112467D01*
X5146548Y2109165D01*
X5147360Y2105304D01*
X5146548Y2101392D01*
X5144363Y2098090D01*
X4883556Y1837334D01*
X4876139Y1828596D01*
X4870348Y1819198D01*
X4866132Y1808937D01*
X4863541Y1798218D01*
X4862626Y1786788D01*
X4862626Y885190D01*
X4861864Y881278D01*
X4859680Y878027D01*
X4745888Y764184D01*
X4742484Y761949D01*
X4738522Y761238D01*
X4734560Y762101D01*
X4731258Y764438D01*
X4729124Y767892D01*
X4728006Y770991D01*
X4722114Y782116D01*
X4714697Y792327D01*
X4705908Y801420D01*
X4695952Y809193D01*
X4685030Y815492D01*
X4673295Y820216D01*
X4661052Y823264D01*
X4643983Y825144D01*
X4640681Y827074D01*
X4638344Y830071D01*
X4637278Y833729D01*
X4637633Y837539D01*
X4639360Y840943D01*
X4642967Y845616D01*
X4651248Y859332D01*
X4655464Y868578D01*
X4583328Y868578D01*
X4583328Y804316D01*
X4582718Y800811D01*
X4580940Y797763D01*
X4572152Y787349D01*
X4565446Y776630D01*
X4560316Y765098D01*
X4556861Y752957D01*
X4555083Y740460D01*
X4555083Y727862D01*
X4556861Y715365D01*
X4560316Y703224D01*
X4563668Y695655D01*
X4564583Y691743D01*
X4563872Y687781D01*
X4561687Y684428D01*
X4558334Y682142D01*
X4554423Y681380D01*
X4353661Y681380D01*
X4349750Y682142D01*
X4346498Y684326D01*
X4344263Y687628D01*
X4343501Y691540D01*
X4343501Y797966D01*
X4344060Y801268D01*
X4345686Y804214D01*
X4348175Y806500D01*
X4355592Y811276D01*
X4367987Y821385D01*
X4379163Y832916D01*
X4388967Y845616D01*
X4391304Y849477D01*
X4394098Y852525D01*
X4397908Y854151D01*
X4402074Y854151D01*
X4405884Y852525D01*
X4408678Y849477D01*
X4411014Y845616D01*
X4420819Y832916D01*
X4431995Y821385D01*
X4444390Y811276D01*
X4457903Y802589D01*
X4470654Y796340D01*
X4470654Y868578D01*
X4416145Y868578D01*
X4412386Y869289D01*
X4409186Y871321D01*
X4406950Y874420D01*
X4406036Y878078D01*
X4406493Y881887D01*
X4408881Y889203D01*
X4412081Y904900D01*
X4413453Y920902D01*
X4412996Y936955D01*
X4410710Y952804D01*
X4406544Y968502D01*
X4406290Y972210D01*
X4407357Y975766D01*
X4409592Y978662D01*
X4412742Y980592D01*
X4416399Y981252D01*
X4470654Y981252D01*
X4470654Y1053388D01*
X4465015Y1051001D01*
X4451045Y1043127D01*
X4438040Y1033678D01*
X4426254Y1022807D01*
X4415739Y1010716D01*
X4408373Y999947D01*
X4405579Y997203D01*
X4401972Y995730D01*
X4398010Y995730D01*
X4394403Y997203D01*
X4391609Y999947D01*
X4384243Y1010716D01*
X4373727Y1022807D01*
X4361942Y1033678D01*
X4348937Y1043127D01*
X4334967Y1051001D01*
X4320997Y1056894D01*
X4317542Y1059281D01*
X4315358Y1062888D01*
X4314850Y1067003D01*
X4316018Y1071067D01*
X4319219Y1074674D01*
X4331868Y1086967D01*
X4343095Y1100531D01*
X4352848Y1115212D01*
X4360976Y1130858D01*
X4367377Y1147267D01*
X4372000Y1164234D01*
X4374794Y1181658D01*
X4375759Y1199235D01*
X4374794Y1216812D01*
X4372000Y1234236D01*
X4367377Y1251204D01*
X4360976Y1267612D01*
X4352848Y1283258D01*
X4343095Y1297940D01*
X4331868Y1311503D01*
X4319219Y1323797D01*
X4317187Y1325372D01*
X4314444Y1328674D01*
X4313326Y1332839D01*
X4314037Y1337106D01*
X4316425Y1340662D01*
X4320082Y1342948D01*
X4327702Y1345641D01*
X4342079Y1352753D01*
X4355592Y1361440D01*
X4367987Y1371549D01*
X4379163Y1383080D01*
X4388967Y1395780D01*
X4391304Y1399641D01*
X4394098Y1402689D01*
X4397908Y1404315D01*
X4402074Y1404315D01*
X4405884Y1402689D01*
X4408678Y1399641D01*
X4411014Y1395780D01*
X4420819Y1383080D01*
X4431995Y1371549D01*
X4444390Y1361440D01*
X4457903Y1352753D01*
X4470654Y1346504D01*
X4470654Y1418742D01*
X4416145Y1418742D01*
X4412386Y1419453D01*
X4409186Y1421485D01*
X4406950Y1424584D01*
X4406036Y1428242D01*
X4406493Y1432052D01*
X4408881Y1439367D01*
X4412081Y1455064D01*
X4413453Y1471066D01*
X4412996Y1487119D01*
X4410710Y1502968D01*
X4406544Y1518666D01*
X4406290Y1522374D01*
X4407357Y1525930D01*
X4409592Y1528826D01*
X4412742Y1530756D01*
X4416399Y1531416D01*
X4470654Y1531416D01*
X4470654Y1603552D01*
X4465015Y1601165D01*
X4451045Y1593291D01*
X4438040Y1583842D01*
X4426254Y1572971D01*
X4415739Y1560880D01*
X4408373Y1550111D01*
X4405579Y1547368D01*
X4401972Y1545894D01*
X4398010Y1545894D01*
X4394403Y1547368D01*
X4391609Y1550111D01*
X4384243Y1560880D01*
X4373727Y1572971D01*
X4361942Y1583842D01*
X4348937Y1593291D01*
X4334967Y1601165D01*
X4320184Y1607413D01*
X4304792Y1611934D01*
X4288993Y1614678D01*
X4272991Y1615592D01*
X4256989Y1614678D01*
X4241190Y1611934D01*
X4225798Y1607413D01*
X4211015Y1601165D01*
X4197045Y1593291D01*
X4184040Y1583842D01*
X4172254Y1572971D01*
X4161739Y1560880D01*
X4152696Y1547622D01*
X4145178Y1533448D01*
X4139387Y1518513D01*
X4135272Y1502968D01*
X4132986Y1487119D01*
X4132529Y1471066D01*
X4133900Y1455064D01*
X4137101Y1439367D01*
X4142079Y1424127D01*
X4148734Y1409496D01*
X4157014Y1395780D01*
X4166819Y1383080D01*
X4173423Y1376222D01*
X4175658Y1372768D01*
X4176318Y1368653D01*
X4175251Y1364691D01*
X4172712Y1361389D01*
X4169105Y1359458D01*
X4154119Y1354937D01*
X4137863Y1348079D01*
X4122470Y1339545D01*
X4108043Y1329385D01*
X4094784Y1317802D01*
X4082846Y1304848D01*
X4072331Y1290726D01*
X4063390Y1275537D01*
X4056126Y1259484D01*
X4050588Y1242771D01*
X4046880Y1225550D01*
X4045000Y1208024D01*
X4045000Y1190447D01*
X4046880Y1172921D01*
X4050588Y1155700D01*
X4056126Y1138986D01*
X4063390Y1122934D01*
X4072331Y1107744D01*
X4082846Y1093622D01*
X4094784Y1080668D01*
X4108043Y1069086D01*
X4122470Y1058926D01*
X4137863Y1050391D01*
X4154119Y1043533D01*
X4167682Y1039469D01*
X4171238Y1037539D01*
X4173778Y1034440D01*
X4174896Y1030579D01*
X4174439Y1026566D01*
X4172458Y1023061D01*
X4161739Y1010716D01*
X4152696Y997458D01*
X4145178Y983284D01*
X4139387Y968349D01*
X4135272Y952804D01*
X4132986Y936955D01*
X4132529Y920902D01*
X4133900Y904900D01*
X4137101Y889203D01*
X4142079Y873963D01*
X4148734Y859332D01*
X4157014Y845616D01*
X4166819Y832916D01*
X4177995Y821385D01*
X4190390Y811276D01*
X4197807Y806500D01*
X4200296Y804214D01*
X4201922Y801268D01*
X4202480Y797966D01*
X4202480Y399237D01*
X4201972Y396087D01*
X4200550Y393293D01*
X4198264Y391007D01*
X4195470Y388975D01*
X4184904Y379069D01*
X4175658Y367893D01*
X4167886Y355650D01*
X4161688Y342493D01*
X4157218Y328726D01*
X4154525Y314452D01*
X4153611Y299974D01*
X4154525Y285546D01*
X4157218Y271272D01*
X4161688Y257505D01*
X4167886Y244348D01*
X4175658Y232105D01*
X4184904Y220929D01*
X4195470Y211023D01*
X4207205Y202488D01*
X4219905Y195478D01*
X4233418Y190144D01*
X4247438Y186537D01*
X4261815Y184759D01*
X4276344Y184759D01*
X4290720Y186537D01*
X4304792Y190144D01*
X4318254Y195478D01*
X4330954Y202488D01*
X4342688Y211023D01*
X4353306Y220929D01*
X4362551Y232105D01*
X4370324Y244348D01*
X4376470Y257505D01*
X4380941Y271272D01*
X4383684Y285546D01*
X4384598Y299974D01*
X4383684Y314452D01*
X4380941Y328726D01*
X4376470Y342493D01*
X4370324Y355650D01*
X4362551Y367893D01*
X4353306Y379069D01*
X4346702Y385216D01*
X4344314Y388620D01*
X4343501Y392633D01*
X4343501Y530199D01*
X4344263Y534060D01*
X4346498Y537362D01*
X4349750Y539546D01*
X4353661Y540359D01*
X4691837Y540359D01*
X4703267Y541223D01*
X4714036Y543814D01*
X4724247Y548030D01*
X4733645Y553821D01*
X4742383Y561289D01*
X4982718Y801624D01*
X4990185Y810361D01*
X4995976Y819759D01*
X5000193Y829970D01*
X5002784Y840740D01*
X5003647Y852169D01*
X5003647Y1753768D01*
X5004460Y1757629D01*
X5006644Y1760931D01*
X5824474Y2578760D01*
X5828233Y2581148D01*
X5832602Y2581706D01*
X5842304Y2580792D01*
X5856681Y2581249D01*
X5860643Y2580589D01*
X5864047Y2578455D01*
X5866333Y2575153D01*
X5867146Y2571191D01*
X5866384Y2567279D01*
X5864199Y2563926D01*
X5663234Y2362962D01*
X5655767Y2354275D01*
X5650026Y2344826D01*
X5645759Y2334615D01*
X5643219Y2323846D01*
X5642305Y2312416D01*
X5642305Y1117600D01*
X5643219Y1106170D01*
X5645759Y1095400D01*
X5650026Y1085189D01*
X5655767Y1075740D01*
X5663234Y1067054D01*
X5833922Y896315D01*
X5835700Y893978D01*
X5842050Y873963D01*
X5848705Y859332D01*
X5857036Y845616D01*
X5866790Y832916D01*
X5877966Y821385D01*
X5890412Y811276D01*
X5897778Y806500D01*
X5900318Y804214D01*
X5901893Y801268D01*
X5902452Y797966D01*
X5902452Y396290D01*
X5901639Y392277D01*
X5899251Y388874D01*
X5888786Y379069D01*
X5879541Y367893D01*
X5871768Y355650D01*
X5865622Y342493D01*
X5861100Y328726D01*
X5858408Y314452D01*
X5857494Y299974D01*
X5858408Y285546D01*
X5861100Y271272D01*
X5865622Y257505D01*
X5871768Y244348D01*
X5879541Y232105D01*
X5888786Y220929D01*
X5899353Y211023D01*
X5911088Y202488D01*
X5923838Y195478D01*
X5937300Y190144D01*
X5951321Y186537D01*
X5965748Y184759D01*
X5980226Y184759D01*
X5994654Y186537D01*
X6008674Y190144D01*
X6022187Y195478D01*
X6034887Y202488D01*
X6046622Y211023D01*
X6057188Y220929D01*
X6066434Y232105D01*
X6074206Y244348D01*
X6080353Y257505D01*
X6084874Y271272D01*
X6087567Y285546D01*
X6088481Y299974D01*
X6087567Y314452D01*
X6084874Y328726D01*
X6080353Y342493D01*
X6074206Y355650D01*
X6066434Y367893D01*
X6057188Y379069D01*
X6046724Y388874D01*
X6044336Y392277D01*
X6043472Y396290D01*
X6043472Y797966D01*
X6044031Y801268D01*
X6045657Y804214D01*
X6048146Y806500D01*
X6055563Y811276D01*
X6068009Y821385D01*
X6079185Y832916D01*
X6088938Y845616D01*
X6091275Y849477D01*
X6094120Y852525D01*
X6097930Y854151D01*
X6102045Y854151D01*
X6105855Y852525D01*
X6108700Y849477D01*
X6111036Y845616D01*
X6120790Y832916D01*
X6131966Y821385D01*
X6144412Y811276D01*
X6157925Y802589D01*
X6170625Y796340D01*
X6170625Y868578D01*
X6116167Y868578D01*
X6112408Y869289D01*
X6109208Y871321D01*
X6106972Y874420D01*
X6106007Y878078D01*
X6106464Y881887D01*
X6108852Y889203D01*
X6112052Y904900D01*
X6113424Y920902D01*
X6112967Y936955D01*
X6110681Y952804D01*
X6106566Y968502D01*
X6106261Y972210D01*
X6107328Y975766D01*
X6109614Y978662D01*
X6112764Y980592D01*
X6116370Y981252D01*
X6170625Y981252D01*
X6170625Y1053388D01*
X6164986Y1051001D01*
X6151016Y1043127D01*
X6138062Y1033678D01*
X6126226Y1022807D01*
X6115710Y1010716D01*
X6108395Y999947D01*
X6105601Y997203D01*
X6101943Y995730D01*
X6098032Y995730D01*
X6094374Y997203D01*
X6091580Y999947D01*
X6084265Y1010716D01*
X6073749Y1022807D01*
X6061913Y1033678D01*
X6048959Y1043127D01*
X6034989Y1051001D01*
X6021019Y1056894D01*
X6017564Y1059281D01*
X6015380Y1062888D01*
X6014821Y1067003D01*
X6015990Y1071067D01*
X6019241Y1074674D01*
X6031839Y1086967D01*
X6043117Y1100531D01*
X6052820Y1115212D01*
X6060948Y1130858D01*
X6067399Y1147267D01*
X6072022Y1164234D01*
X6074816Y1181658D01*
X6075730Y1199235D01*
X6074816Y1216812D01*
X6072022Y1234236D01*
X6067399Y1251204D01*
X6060948Y1267612D01*
X6052820Y1283258D01*
X6043117Y1297940D01*
X6031839Y1311503D01*
X6019241Y1323797D01*
X6017209Y1325372D01*
X6014466Y1328674D01*
X6013348Y1332839D01*
X6014008Y1337106D01*
X6016396Y1340662D01*
X6020054Y1342948D01*
X6027674Y1345641D01*
X6042050Y1352753D01*
X6055563Y1361440D01*
X6068009Y1371549D01*
X6079185Y1383080D01*
X6088938Y1395780D01*
X6091275Y1399641D01*
X6094120Y1402689D01*
X6097930Y1404315D01*
X6102045Y1404315D01*
X6105855Y1402689D01*
X6108700Y1399641D01*
X6111036Y1395780D01*
X6120790Y1383080D01*
X6131966Y1371549D01*
X6144412Y1361440D01*
X6157925Y1352753D01*
X6170625Y1346504D01*
X6170625Y1418742D01*
X6116167Y1418742D01*
X6112408Y1419453D01*
X6109208Y1421485D01*
X6106972Y1424584D01*
X6106007Y1428242D01*
X6106464Y1432052D01*
X6108852Y1439367D01*
X6112052Y1455064D01*
X6113424Y1471066D01*
X6112967Y1487119D01*
X6110681Y1502968D01*
X6106566Y1518666D01*
X6106261Y1522374D01*
X6107328Y1525930D01*
X6109614Y1528826D01*
X6112764Y1530756D01*
X6116370Y1531416D01*
X6170625Y1531416D01*
X6170625Y1603552D01*
X6164986Y1601165D01*
X6151016Y1593291D01*
X6138062Y1583842D01*
X6126226Y1572971D01*
X6115710Y1560880D01*
X6108395Y1550111D01*
X6105601Y1547368D01*
X6101943Y1545894D01*
X6098032Y1545894D01*
X6094374Y1547368D01*
X6091580Y1550111D01*
X6084265Y1560880D01*
X6073749Y1572971D01*
X6061913Y1583842D01*
X6048654Y1593443D01*
X6045911Y1595678D01*
X6044133Y1598777D01*
X6043472Y1602282D01*
X6043472Y1732940D01*
X6044285Y1736801D01*
X6046470Y1740103D01*
X6230366Y1924050D01*
X6237833Y1932736D01*
X6243624Y1942185D01*
X6247841Y1952396D01*
X6250432Y1963166D01*
X6251295Y1974189D01*
X6250432Y1985213D01*
X6247841Y1995932D01*
X6243624Y2006193D01*
X6237833Y2015591D01*
X6230620Y2024024D01*
X6222238Y2031187D01*
X6212789Y2036978D01*
X6202578Y2041194D01*
X6191808Y2043785D01*
X6180785Y2044649D01*
X6169761Y2043785D01*
X6159042Y2041194D01*
X6148832Y2036978D01*
X6139383Y2031187D01*
X6130645Y2023770D01*
X5923381Y1816506D01*
X5915964Y1807768D01*
X5910173Y1798370D01*
X5905957Y1788109D01*
X5903366Y1777390D01*
X5902452Y1765960D01*
X5902452Y1602282D01*
X5901842Y1598777D01*
X5900064Y1595678D01*
X5884062Y1583842D01*
X5872226Y1572971D01*
X5861710Y1560880D01*
X5852668Y1547622D01*
X5845200Y1533448D01*
X5839358Y1518513D01*
X5835294Y1502968D01*
X5833008Y1487119D01*
X5832551Y1471066D01*
X5833922Y1455064D01*
X5837123Y1439367D01*
X5842050Y1424127D01*
X5848705Y1409496D01*
X5857036Y1395780D01*
X5866790Y1383080D01*
X5873445Y1376222D01*
X5875680Y1372768D01*
X5876290Y1368653D01*
X5875274Y1364691D01*
X5872734Y1361389D01*
X5869076Y1359458D01*
X5854090Y1354937D01*
X5837885Y1348079D01*
X5822442Y1339545D01*
X5808065Y1329385D01*
X5800191Y1322527D01*
X5796838Y1320596D01*
X5793028Y1320038D01*
X5789269Y1320901D01*
X5786120Y1323136D01*
X5784037Y1326388D01*
X5783326Y1330147D01*
X5783326Y2279396D01*
X5784088Y2283307D01*
X5786323Y2286609D01*
X6078474Y2578760D01*
X6082233Y2581148D01*
X6086602Y2581706D01*
X6096304Y2580792D01*
X6110986Y2581249D01*
X6125514Y2583535D01*
X6139637Y2587548D01*
X6153150Y2593238D01*
X6165850Y2600604D01*
X6177584Y2609443D01*
X6188100Y2619654D01*
X6197295Y2631084D01*
X6205016Y2643581D01*
X6211163Y2656941D01*
X6215634Y2670911D01*
X6216904Y2677718D01*
X6218326Y2681325D01*
X6221018Y2684170D01*
X6224625Y2685745D01*
X6228537Y2685846D01*
X6232194Y2684475D01*
X6235039Y2681833D01*
X6236716Y2678328D01*
X6240373Y2663850D01*
X6245656Y2650134D01*
X6252616Y2637231D01*
X6261100Y2625242D01*
X6271006Y2614371D01*
X6279896Y2606751D01*
X6282537Y2603246D01*
X6283452Y2599029D01*
X6283452Y2163876D01*
X6284366Y2152446D01*
X6286957Y2141677D01*
X6291173Y2131466D01*
X6296964Y2122068D01*
X6304381Y2113330D01*
X7539532Y878230D01*
X7541006Y876350D01*
X7548727Y859383D01*
X7557008Y845616D01*
X7566812Y832916D01*
X7577988Y821436D01*
X7590383Y811276D01*
X7597800Y806500D01*
X7600289Y804265D01*
X7601915Y801319D01*
X7602474Y797966D01*
X7602474Y396290D01*
X7601610Y392277D01*
X7599273Y388874D01*
X7588808Y379069D01*
X7579563Y367893D01*
X7571790Y355650D01*
X7565593Y342493D01*
X7561122Y328726D01*
X7558379Y314452D01*
X7557516Y299974D01*
X7558379Y285546D01*
X7561122Y271272D01*
X7565593Y257505D01*
X7571790Y244348D01*
X7579563Y232105D01*
X7588808Y220929D01*
X7599375Y211023D01*
X7611109Y202488D01*
X7623809Y195478D01*
X7637272Y190144D01*
X7651343Y186537D01*
X7665720Y184759D01*
X7680248Y184759D01*
X7694625Y186537D01*
X7708696Y190144D01*
X7722158Y195478D01*
X7734858Y202488D01*
X7746593Y211023D01*
X7757159Y220929D01*
X7766405Y232105D01*
X7774178Y244348D01*
X7780375Y257505D01*
X7784846Y271272D01*
X7787589Y285546D01*
X7788452Y299974D01*
X7787589Y314452D01*
X7784846Y328726D01*
X7780375Y342493D01*
X7774178Y355650D01*
X7766405Y367893D01*
X7757159Y379069D01*
X7746695Y388874D01*
X7744307Y392277D01*
X7743494Y396290D01*
X7743494Y797966D01*
X7744053Y801268D01*
X7745679Y804265D01*
X7748168Y806500D01*
X7755585Y811276D01*
X7767980Y821436D01*
X7779156Y832916D01*
X7788960Y845616D01*
X7791297Y849477D01*
X7794091Y852525D01*
X7797901Y854202D01*
X7802067Y854202D01*
X7805877Y852525D01*
X7808671Y849477D01*
X7811008Y845616D01*
X7820812Y832916D01*
X7831988Y821436D01*
X7844383Y811276D01*
X7857896Y802589D01*
X7870647Y796340D01*
X7870647Y868578D01*
X7816138Y868578D01*
X7812379Y869289D01*
X7809179Y871321D01*
X7806944Y874420D01*
X7806029Y878128D01*
X7806486Y881887D01*
X7808874Y889203D01*
X7812074Y904951D01*
X7813446Y920953D01*
X7812989Y936955D01*
X7810703Y952855D01*
X7806537Y968552D01*
X7806283Y972210D01*
X7807350Y975766D01*
X7809585Y978712D01*
X7812735Y980643D01*
X7816392Y981303D01*
X7870647Y981303D01*
X7870647Y1053388D01*
X7865008Y1051001D01*
X7851038Y1043127D01*
X7838033Y1033729D01*
X7826248Y1022858D01*
X7815732Y1010716D01*
X7808366Y999998D01*
X7805572Y997254D01*
X7801965Y995730D01*
X7798003Y995730D01*
X7794396Y997254D01*
X7791602Y999998D01*
X7784236Y1010716D01*
X7773720Y1022858D01*
X7761935Y1033729D01*
X7748930Y1043127D01*
X7734960Y1051001D01*
X7720990Y1056944D01*
X7717536Y1059332D01*
X7715351Y1062888D01*
X7714843Y1067054D01*
X7716012Y1071067D01*
X7719212Y1074724D01*
X7731861Y1087018D01*
X7743088Y1100582D01*
X7752842Y1115263D01*
X7760970Y1130858D01*
X7767370Y1147267D01*
X7771993Y1164285D01*
X7774787Y1181658D01*
X7775752Y1199235D01*
X7774787Y1216863D01*
X7771993Y1234236D01*
X7767370Y1251254D01*
X7760970Y1267663D01*
X7752842Y1283258D01*
X7743088Y1297940D01*
X7731861Y1311503D01*
X7719212Y1323797D01*
X7717180Y1325422D01*
X7714437Y1328724D01*
X7713319Y1332890D01*
X7714030Y1337106D01*
X7716418Y1340713D01*
X7720075Y1342948D01*
X7727696Y1345692D01*
X7742072Y1352753D01*
X7755585Y1361440D01*
X7767980Y1371600D01*
X7779156Y1383080D01*
X7788960Y1395780D01*
X7791297Y1399641D01*
X7794091Y1402689D01*
X7797901Y1404366D01*
X7802067Y1404366D01*
X7805877Y1402689D01*
X7808671Y1399641D01*
X7811008Y1395780D01*
X7820812Y1383080D01*
X7831988Y1371600D01*
X7844383Y1361440D01*
X7857896Y1352753D01*
X7870647Y1346504D01*
X7870647Y1418742D01*
X7816138Y1418742D01*
X7812379Y1419453D01*
X7809179Y1421485D01*
X7806944Y1424584D01*
X7806029Y1428292D01*
X7806486Y1432052D01*
X7808874Y1439367D01*
X7812074Y1455115D01*
X7813446Y1471117D01*
X7812989Y1487119D01*
X7810703Y1503019D01*
X7806537Y1518716D01*
X7806283Y1522374D01*
X7807350Y1525930D01*
X7809585Y1528876D01*
X7812735Y1530807D01*
X7816392Y1531467D01*
X7870647Y1531467D01*
X7870647Y1603552D01*
X7865008Y1601165D01*
X7851038Y1593291D01*
X7838033Y1583893D01*
X7826248Y1573022D01*
X7815732Y1560880D01*
X7808366Y1550162D01*
X7805572Y1547418D01*
X7801965Y1545894D01*
X7798003Y1545894D01*
X7794396Y1547418D01*
X7791602Y1550162D01*
X7784236Y1560880D01*
X7773720Y1573022D01*
X7761935Y1583893D01*
X7748930Y1593291D01*
X7734960Y1601165D01*
X7720177Y1607413D01*
X7704785Y1611934D01*
X7688986Y1614678D01*
X7672984Y1615592D01*
X7656982Y1614678D01*
X7641183Y1611934D01*
X7625791Y1607413D01*
X7611008Y1601165D01*
X7597038Y1593291D01*
X7584033Y1583893D01*
X7572248Y1573022D01*
X7561732Y1560880D01*
X7552690Y1547672D01*
X7545171Y1533448D01*
X7539380Y1518513D01*
X7535265Y1503019D01*
X7532979Y1487119D01*
X7532522Y1471117D01*
X7533894Y1455115D01*
X7537094Y1439367D01*
X7542072Y1424127D01*
X7548727Y1409547D01*
X7557008Y1395780D01*
X7566812Y1383080D01*
X7573416Y1376273D01*
X7575651Y1372768D01*
X7576312Y1368704D01*
X7575245Y1364691D01*
X7572705Y1361440D01*
X7569098Y1359458D01*
X7554112Y1354937D01*
X7537856Y1348079D01*
X7522464Y1339545D01*
X7508036Y1329436D01*
X7494778Y1317853D01*
X7482840Y1304899D01*
X7472324Y1290726D01*
X7463383Y1275588D01*
X7456119Y1259535D01*
X7450581Y1242822D01*
X7446873Y1225600D01*
X7444994Y1208074D01*
X7444994Y1196746D01*
X7444231Y1192834D01*
X7441996Y1189532D01*
X7438694Y1187348D01*
X7434834Y1186586D01*
X7430922Y1187348D01*
X7427620Y1189532D01*
X6427470Y2189734D01*
X6425285Y2192985D01*
X6424472Y2196896D01*
X6424472Y2599029D01*
X6424980Y2602128D01*
X6426352Y2604922D01*
X6428536Y2607157D01*
X6431584Y2609443D01*
X6442100Y2619654D01*
X6451295Y2631084D01*
X6459016Y2643581D01*
X6465163Y2656941D01*
X6469634Y2670911D01*
X6470904Y2677718D01*
X6472326Y2681325D01*
X6475018Y2684170D01*
X6478625Y2685745D01*
X6482537Y2685846D01*
X6486194Y2684475D01*
X6489039Y2681833D01*
X6490716Y2678328D01*
X6494373Y2663850D01*
X6499656Y2650134D01*
X6506616Y2637231D01*
X6515100Y2625242D01*
X6525006Y2614371D01*
X6536131Y2604820D01*
X6548374Y2596743D01*
X6561531Y2590190D01*
X6575348Y2585313D01*
X6589674Y2582164D01*
X6604304Y2580792D01*
X6624015Y2581554D01*
X6627012Y2580538D01*
X6629552Y2578709D01*
X7015683Y2192578D01*
X7024420Y2185111D01*
X7033869Y2179320D01*
X7044080Y2175103D01*
X7054799Y2172512D01*
X7066229Y2171649D01*
X7709916Y2171649D01*
X7713776Y2170836D01*
X7717078Y2168652D01*
X9010345Y875385D01*
X9019082Y867918D01*
X9028531Y862126D01*
X9038742Y857910D01*
X9049461Y855319D01*
X9060891Y854456D01*
X9245955Y854456D01*
X9249359Y853846D01*
X9252407Y852119D01*
X9254642Y849528D01*
X9257030Y845616D01*
X9266783Y832916D01*
X9277959Y821436D01*
X9290405Y811276D01*
X9297771Y806500D01*
X9300311Y804265D01*
X9301886Y801319D01*
X9302445Y797966D01*
X9302445Y396290D01*
X9301632Y392277D01*
X9299244Y388874D01*
X9288780Y379069D01*
X9279534Y367893D01*
X9271762Y355650D01*
X9265615Y342493D01*
X9261094Y328726D01*
X9258401Y314452D01*
X9257487Y299974D01*
X9258401Y285546D01*
X9261094Y271272D01*
X9265615Y257505D01*
X9271762Y244348D01*
X9279534Y232105D01*
X9288780Y220929D01*
X9299346Y211023D01*
X9311081Y202488D01*
X9323832Y195478D01*
X9337294Y190144D01*
X9351314Y186537D01*
X9365742Y184759D01*
X9380220Y184759D01*
X9394647Y186537D01*
X9408668Y190144D01*
X9422180Y195478D01*
X9434880Y202488D01*
X9446615Y211023D01*
X9457182Y220929D01*
X9466427Y232105D01*
X9474200Y244348D01*
X9480346Y257505D01*
X9484868Y271272D01*
X9487560Y285546D01*
X9488474Y299974D01*
X9487560Y314452D01*
X9484868Y328726D01*
X9480346Y342493D01*
X9474200Y355650D01*
X9466427Y367893D01*
X9457182Y379069D01*
X9446717Y388874D01*
X9444329Y392277D01*
X9443466Y396290D01*
X9443466Y797966D01*
X9444024Y801268D01*
X9445650Y804265D01*
X9448139Y806500D01*
X9455556Y811276D01*
X9468002Y821436D01*
X9479178Y832916D01*
X9488932Y845616D01*
X9491268Y849477D01*
X9494113Y852525D01*
X9497923Y854202D01*
X9502038Y854202D01*
X9505848Y852525D01*
X9508693Y849477D01*
X9511030Y845616D01*
X9520783Y832916D01*
X9531959Y821436D01*
X9544405Y811276D01*
X9557918Y802589D01*
X9570618Y796340D01*
X9570618Y868578D01*
X9516160Y868578D01*
X9512401Y869289D01*
X9509201Y871321D01*
X9506966Y874420D01*
X9506000Y878128D01*
X9506458Y881887D01*
X9508845Y889203D01*
X9512046Y904951D01*
X9513417Y920953D01*
X9512960Y936955D01*
X9510674Y952855D01*
X9506559Y968552D01*
X9506254Y972210D01*
X9507321Y975766D01*
X9509607Y978712D01*
X9512757Y980643D01*
X9516364Y981303D01*
X9570618Y981303D01*
X9570618Y1053388D01*
X9564979Y1051001D01*
X9551009Y1043127D01*
X9538055Y1033729D01*
X9526219Y1022858D01*
X9515703Y1010716D01*
X9508388Y999998D01*
X9505594Y997254D01*
X9501936Y995730D01*
X9498025Y995730D01*
X9494367Y997254D01*
X9491573Y999998D01*
X9484258Y1010716D01*
X9473742Y1022858D01*
X9461906Y1033729D01*
X9448952Y1043127D01*
X9434982Y1051001D01*
X9421012Y1056944D01*
X9417558Y1059332D01*
X9415373Y1062888D01*
X9414814Y1067054D01*
X9415983Y1071067D01*
X9419234Y1074724D01*
X9431832Y1087018D01*
X9443110Y1100582D01*
X9452813Y1115263D01*
X9460941Y1130858D01*
X9467392Y1147267D01*
X9472015Y1164285D01*
X9474809Y1181658D01*
X9475724Y1199235D01*
X9474809Y1216863D01*
X9472015Y1234236D01*
X9467392Y1251254D01*
X9460941Y1267663D01*
X9452813Y1283258D01*
X9443110Y1297940D01*
X9431832Y1311503D01*
X9419234Y1323797D01*
X9417202Y1325422D01*
X9414459Y1328724D01*
X9413341Y1332890D01*
X9414002Y1337106D01*
X9416389Y1340713D01*
X9420047Y1342948D01*
X9427667Y1345692D01*
X9442043Y1352753D01*
X9455556Y1361440D01*
X9468002Y1371600D01*
X9479178Y1383080D01*
X9488932Y1395780D01*
X9491268Y1399641D01*
X9494113Y1402689D01*
X9497923Y1404366D01*
X9502038Y1404366D01*
X9505848Y1402689D01*
X9508693Y1399641D01*
X9511030Y1395780D01*
X9520783Y1383080D01*
X9531959Y1371600D01*
X9544405Y1361440D01*
X9557918Y1352753D01*
X9570618Y1346504D01*
X9570618Y1418742D01*
X9516160Y1418742D01*
X9512401Y1419453D01*
X9509201Y1421485D01*
X9506966Y1424584D01*
X9506000Y1428292D01*
X9506458Y1432052D01*
X9508845Y1439367D01*
X9512046Y1455115D01*
X9513417Y1471117D01*
X9512960Y1487119D01*
X9510674Y1503019D01*
X9506559Y1518716D01*
X9506254Y1522374D01*
X9507321Y1525930D01*
X9509607Y1528876D01*
X9512757Y1530807D01*
X9516364Y1531467D01*
X9570618Y1531467D01*
X9570618Y1603552D01*
X9564979Y1601165D01*
X9551009Y1593291D01*
X9538055Y1583893D01*
X9526219Y1573022D01*
X9515703Y1560880D01*
X9508388Y1550162D01*
X9505594Y1547418D01*
X9501936Y1545894D01*
X9498025Y1545894D01*
X9494367Y1547418D01*
X9491573Y1550162D01*
X9484258Y1560880D01*
X9473742Y1573022D01*
X9461906Y1583893D01*
X9448952Y1593291D01*
X9434982Y1601165D01*
X9420199Y1607413D01*
X9404807Y1611934D01*
X9389008Y1614678D01*
X9373006Y1615592D01*
X9356953Y1614678D01*
X9341154Y1611934D01*
X9325762Y1607413D01*
X9310979Y1601165D01*
X9297009Y1593291D01*
X9284055Y1583893D01*
X9272219Y1573022D01*
X9261703Y1560880D01*
X9252661Y1547672D01*
X9245193Y1533448D01*
X9239351Y1518513D01*
X9235287Y1503019D01*
X9233001Y1487119D01*
X9232544Y1471117D01*
X9233916Y1455115D01*
X9237116Y1439367D01*
X9242044Y1424127D01*
X9248698Y1409547D01*
X9257030Y1395780D01*
X9266783Y1383080D01*
X9273438Y1376273D01*
X9275673Y1372768D01*
X9276283Y1368704D01*
X9275267Y1364691D01*
X9272727Y1361440D01*
X9269069Y1359458D01*
X9254083Y1354937D01*
X9237878Y1348079D01*
X9222435Y1339545D01*
X9208058Y1329436D01*
X9194800Y1317853D01*
X9182811Y1304899D01*
X9172346Y1290726D01*
X9163405Y1275588D01*
X9156090Y1259535D01*
X9150553Y1242822D01*
X9146844Y1225600D01*
X9144965Y1208074D01*
X9144965Y1190447D01*
X9146844Y1172921D01*
X9150553Y1155700D01*
X9156090Y1138986D01*
X9163405Y1122934D01*
X9172346Y1107795D01*
X9182811Y1093622D01*
X9194800Y1080668D01*
X9208058Y1069086D01*
X9222435Y1058976D01*
X9237878Y1050442D01*
X9254083Y1043584D01*
X9267698Y1039469D01*
X9271254Y1037590D01*
X9273743Y1034440D01*
X9274860Y1030579D01*
X9274403Y1026617D01*
X9272422Y1023112D01*
X9261703Y1010716D01*
X9254286Y999896D01*
X9252051Y997508D01*
X9249156Y995984D01*
X9245904Y995476D01*
X9093911Y995476D01*
X9090050Y996238D01*
X9086748Y998423D01*
X7793431Y2291740D01*
X7784744Y2299157D01*
X7775295Y2304948D01*
X7765084Y2309164D01*
X7754315Y2311755D01*
X7742936Y2312670D01*
X7099249Y2312670D01*
X7095388Y2313432D01*
X7092086Y2315616D01*
X6843572Y2564130D01*
X6841337Y2567584D01*
X6840626Y2571648D01*
X6841540Y2575610D01*
X6844030Y2578912D01*
X6847586Y2580995D01*
X6851700Y2581452D01*
X6858304Y2580792D01*
X6878015Y2581554D01*
X6881012Y2580538D01*
X6883552Y2578709D01*
X7105954Y2356307D01*
X7114641Y2348890D01*
X7124090Y2343099D01*
X7134301Y2338882D01*
X7145070Y2336292D01*
X7156500Y2335377D01*
X9488982Y2335377D01*
X9492843Y2334615D01*
X9496145Y2332431D01*
X10934344Y894181D01*
X10935868Y892302D01*
X10936833Y890117D01*
X10942066Y873963D01*
X10948720Y859383D01*
X10957001Y845616D01*
X10966805Y832916D01*
X10977981Y821436D01*
X10990376Y811276D01*
X10997793Y806500D01*
X11000282Y804265D01*
X11001908Y801319D01*
X11002467Y797966D01*
X11002467Y396290D01*
X11001603Y392277D01*
X10999266Y388874D01*
X10988802Y379069D01*
X10979556Y367893D01*
X10971784Y355650D01*
X10965586Y342493D01*
X10961116Y328726D01*
X10958372Y314452D01*
X10957509Y299974D01*
X10958372Y285546D01*
X10961116Y271272D01*
X10965586Y257505D01*
X10971784Y244348D01*
X10979556Y232105D01*
X10988802Y220929D01*
X10999368Y211023D01*
X11011103Y202488D01*
X11023803Y195478D01*
X11037265Y190144D01*
X11051336Y186537D01*
X11065713Y184759D01*
X11080242Y184759D01*
X11094618Y186537D01*
X11108690Y190144D01*
X11122152Y195478D01*
X11134852Y202488D01*
X11146586Y211023D01*
X11157153Y220929D01*
X11166398Y232105D01*
X11174171Y244348D01*
X11180368Y257505D01*
X11184839Y271272D01*
X11187582Y285546D01*
X11188446Y299974D01*
X11187582Y314452D01*
X11184839Y328726D01*
X11180368Y342493D01*
X11174171Y355650D01*
X11166398Y367893D01*
X11157153Y379069D01*
X11146688Y388874D01*
X11144300Y392277D01*
X11143488Y396290D01*
X11143488Y797966D01*
X11144046Y801268D01*
X11145672Y804265D01*
X11148161Y806500D01*
X11155578Y811276D01*
X11167973Y821436D01*
X11179149Y832916D01*
X11188954Y845616D01*
X11191290Y849477D01*
X11194084Y852525D01*
X11197894Y854202D01*
X11202060Y854202D01*
X11205870Y852525D01*
X11208664Y849477D01*
X11211001Y845616D01*
X11220805Y832916D01*
X11231981Y821436D01*
X11244376Y811276D01*
X11257889Y802589D01*
X11270640Y796340D01*
X11270640Y868578D01*
X11216132Y868578D01*
X11212372Y869289D01*
X11209172Y871321D01*
X11206937Y874420D01*
X11206022Y878128D01*
X11206480Y881887D01*
X11208867Y889203D01*
X11212068Y904951D01*
X11213439Y920953D01*
X11212982Y936955D01*
X11210696Y952855D01*
X11206530Y968552D01*
X11206276Y972210D01*
X11207343Y975766D01*
X11209578Y978712D01*
X11212728Y980643D01*
X11216386Y981303D01*
X11270640Y981303D01*
X11270640Y1053388D01*
X11265001Y1051001D01*
X11251031Y1043127D01*
X11238026Y1033729D01*
X11226241Y1022858D01*
X11215725Y1010716D01*
X11208359Y999998D01*
X11205565Y997254D01*
X11201958Y995730D01*
X11197996Y995730D01*
X11194389Y997254D01*
X11191595Y999998D01*
X11184229Y1010716D01*
X11173714Y1022858D01*
X11161928Y1033729D01*
X11148923Y1043127D01*
X11134953Y1051001D01*
X11120983Y1056944D01*
X11117529Y1059332D01*
X11115344Y1062888D01*
X11114836Y1067054D01*
X11116005Y1071067D01*
X11119205Y1074724D01*
X11131854Y1087018D01*
X11143081Y1100582D01*
X11152835Y1115263D01*
X11160963Y1130858D01*
X11167364Y1147267D01*
X11171986Y1164285D01*
X11174780Y1181658D01*
X11175746Y1199235D01*
X11174780Y1216863D01*
X11171986Y1234236D01*
X11167364Y1251254D01*
X11160963Y1267663D01*
X11152835Y1283258D01*
X11143081Y1297940D01*
X11131854Y1311503D01*
X11119205Y1323797D01*
X11117173Y1325422D01*
X11114430Y1328724D01*
X11113312Y1332890D01*
X11114024Y1337106D01*
X11116411Y1340713D01*
X11120069Y1342948D01*
X11127689Y1345692D01*
X11142065Y1352753D01*
X11155578Y1361440D01*
X11167973Y1371600D01*
X11179149Y1383080D01*
X11188954Y1395780D01*
X11191290Y1399641D01*
X11194084Y1402689D01*
X11197894Y1404366D01*
X11202060Y1404366D01*
X11205870Y1402689D01*
X11208664Y1399641D01*
X11211001Y1395780D01*
X11220805Y1383080D01*
X11231981Y1371600D01*
X11244376Y1361440D01*
X11257889Y1352753D01*
X11270640Y1346504D01*
X11270640Y1418742D01*
X11216132Y1418742D01*
X11212372Y1419453D01*
X11209172Y1421485D01*
X11206937Y1424584D01*
X11206022Y1428292D01*
X11206480Y1432052D01*
X11208867Y1439367D01*
X11212068Y1455115D01*
X11213439Y1471117D01*
X11212982Y1487119D01*
X11210696Y1503019D01*
X11206530Y1518716D01*
X11206276Y1522374D01*
X11207343Y1525930D01*
X11209578Y1528876D01*
X11212728Y1530807D01*
X11216386Y1531467D01*
X11270640Y1531467D01*
X11270640Y1603552D01*
X11265001Y1601165D01*
X11251031Y1593291D01*
X11238026Y1583893D01*
X11226241Y1573022D01*
X11215725Y1560880D01*
X11208359Y1550162D01*
X11205565Y1547418D01*
X11201958Y1545894D01*
X11197996Y1545894D01*
X11194389Y1547418D01*
X11191595Y1550162D01*
X11184229Y1560880D01*
X11173714Y1573022D01*
X11161928Y1583893D01*
X11148923Y1593291D01*
X11134953Y1601165D01*
X11120170Y1607413D01*
X11104778Y1611934D01*
X11088979Y1614678D01*
X11072977Y1615592D01*
X11056975Y1614678D01*
X11041176Y1611934D01*
X11025784Y1607413D01*
X11011001Y1601165D01*
X10997031Y1593291D01*
X10984026Y1583893D01*
X10972241Y1573022D01*
X10961725Y1560880D01*
X10952683Y1547672D01*
X10945164Y1533448D01*
X10939373Y1518513D01*
X10935258Y1503019D01*
X10932972Y1487119D01*
X10932515Y1471117D01*
X10933887Y1455115D01*
X10937087Y1439367D01*
X10942066Y1424127D01*
X10948720Y1409547D01*
X10957001Y1395780D01*
X10966805Y1383080D01*
X10973409Y1376273D01*
X10975644Y1372768D01*
X10976305Y1368704D01*
X10975238Y1364691D01*
X10972698Y1361440D01*
X10969091Y1359458D01*
X10954105Y1354937D01*
X10937849Y1348079D01*
X10922457Y1339545D01*
X10908030Y1329436D01*
X10894771Y1317853D01*
X10882833Y1304899D01*
X10872317Y1290726D01*
X10863376Y1275588D01*
X10856112Y1259535D01*
X10850575Y1242822D01*
X10846866Y1225600D01*
X10844987Y1207566D01*
X10844225Y1203655D01*
X10841990Y1200353D01*
X10838688Y1198168D01*
X10834827Y1197406D01*
X10830915Y1198168D01*
X10827613Y1200353D01*
X10565231Y1462786D01*
X10563047Y1466088D01*
X10562285Y1469948D01*
X10563047Y1473860D01*
X10565231Y1477162D01*
X11162792Y2074722D01*
X11170259Y2083409D01*
X11176050Y2092858D01*
X11180267Y2103069D01*
X11182858Y2113838D01*
X11183721Y2124862D01*
X11182858Y2135886D01*
X11180267Y2146604D01*
X11176050Y2156866D01*
X11170259Y2166264D01*
X11163046Y2174697D01*
X11154664Y2181860D01*
X11145215Y2187651D01*
X11135004Y2191867D01*
X11124234Y2194458D01*
X11113211Y2195322D01*
X11102187Y2194458D01*
X11091468Y2191867D01*
X11081258Y2187651D01*
X11071809Y2181860D01*
X11063071Y2174443D01*
X10465511Y1576882D01*
X10462209Y1574647D01*
X10458348Y1573885D01*
X10454436Y1574647D01*
X10451134Y1576882D01*
X9572498Y2455468D01*
X9563811Y2462936D01*
X9554362Y2468676D01*
X9544151Y2472944D01*
X9533382Y2475534D01*
X9522002Y2476398D01*
X7189520Y2476398D01*
X7185609Y2477160D01*
X7182307Y2479395D01*
X7073239Y2588463D01*
X7071055Y2591765D01*
X7070293Y2595626D01*
X7070293Y2654249D01*
X7011619Y2654249D01*
X7007758Y2655062D01*
X7004456Y2657246D01*
X6983323Y2678379D01*
X6980986Y2681986D01*
X6980377Y2686202D01*
X6981240Y2699969D01*
X6980326Y2714650D01*
X6977634Y2729077D01*
X6973163Y2743047D01*
X6967016Y2756408D01*
X6959295Y2768904D01*
X6950100Y2780334D01*
X6939584Y2790545D01*
X6927850Y2799384D01*
X6915150Y2806750D01*
X6901637Y2812440D01*
X6887514Y2816453D01*
X6872986Y2818739D01*
X6858304Y2819196D01*
X6843674Y2817825D01*
X6829348Y2814675D01*
X6815531Y2809798D01*
X6802374Y2803245D01*
X6790131Y2795168D01*
X6779006Y2785618D01*
X6769100Y2774746D01*
X6760616Y2762758D01*
X6753656Y2749854D01*
X6748373Y2736138D01*
X6744716Y2721660D01*
X6743039Y2718155D01*
X6740194Y2715514D01*
X6736537Y2714142D01*
X6732625Y2714244D01*
X6729018Y2715818D01*
X6726326Y2718663D01*
X6724903Y2722270D01*
X6723634Y2729077D01*
X6719163Y2743047D01*
X6713016Y2756408D01*
X6705295Y2768904D01*
X6696100Y2780334D01*
X6685584Y2790545D01*
X6673850Y2799384D01*
X6661150Y2806750D01*
X6647637Y2812440D01*
X6633514Y2816453D01*
X6618986Y2818739D01*
X6604304Y2819196D01*
X6589674Y2817825D01*
X6575348Y2814675D01*
X6561531Y2809798D01*
X6548374Y2803245D01*
X6536131Y2795168D01*
X6525006Y2785618D01*
X6515100Y2774746D01*
X6506616Y2762758D01*
X6499656Y2749854D01*
X6494373Y2736138D01*
X6490716Y2721660D01*
X6489039Y2718155D01*
X6486194Y2715514D01*
X6482537Y2714142D01*
X6478625Y2714244D01*
X6475018Y2715818D01*
X6472326Y2718663D01*
X6470904Y2722270D01*
X6469634Y2729077D01*
X6465163Y2743047D01*
X6459016Y2756408D01*
X6451295Y2768904D01*
X6442100Y2780334D01*
X6431584Y2790545D01*
X6419850Y2799384D01*
X6407150Y2806750D01*
X6393637Y2812440D01*
X6379514Y2816453D01*
X6364986Y2818739D01*
X6350304Y2819196D01*
X6335674Y2817825D01*
X6321348Y2814675D01*
X6307531Y2809798D01*
X6294374Y2803245D01*
X6282131Y2795168D01*
X6271006Y2785618D01*
X6261100Y2774746D01*
X6252616Y2762758D01*
X6245656Y2749854D01*
X6240373Y2736138D01*
X6236716Y2721660D01*
X6235039Y2718155D01*
X6232194Y2715514D01*
X6228537Y2714142D01*
X6224625Y2714244D01*
X6221018Y2715818D01*
X6218326Y2718663D01*
X6216904Y2722270D01*
X6215634Y2729077D01*
X6211163Y2743047D01*
X6205016Y2756408D01*
X6197295Y2768904D01*
X6188100Y2780334D01*
X6177584Y2790545D01*
X6165850Y2799384D01*
X6153150Y2806750D01*
X6139637Y2812440D01*
X6125514Y2816453D01*
X6110986Y2818739D01*
X6096304Y2819196D01*
X6081674Y2817825D01*
X6067348Y2814675D01*
X6053531Y2809798D01*
X6040374Y2803245D01*
X6028131Y2795168D01*
X6017006Y2785618D01*
X6007100Y2774746D01*
X5998616Y2762758D01*
X5991656Y2749854D01*
X5986373Y2736138D01*
X5982716Y2721660D01*
X5981039Y2718155D01*
X5978194Y2715514D01*
X5974537Y2714142D01*
X5970625Y2714244D01*
X5967018Y2715818D01*
X5964326Y2718663D01*
X5962904Y2722270D01*
X5961634Y2729077D01*
X5957163Y2743047D01*
X5951016Y2756408D01*
X5943295Y2768904D01*
X5934100Y2780334D01*
X5923584Y2790545D01*
X5911850Y2799384D01*
X5899150Y2806750D01*
X5885637Y2812440D01*
X5871514Y2816453D01*
X5856986Y2818739D01*
X5842304Y2819196D01*
X5827674Y2817825D01*
X5813348Y2814675D01*
X5799531Y2809798D01*
X5786374Y2803245D01*
X5774131Y2795168D01*
X5763006Y2785618D01*
X5753100Y2774746D01*
X5744616Y2762758D01*
X5737656Y2749854D01*
X5732373Y2736138D01*
X5728716Y2721660D01*
X5727039Y2718155D01*
X5724194Y2715514D01*
X5720537Y2714142D01*
X5716625Y2714244D01*
X5713018Y2715818D01*
X5710326Y2718663D01*
X5708904Y2722270D01*
X5707634Y2729077D01*
X5703163Y2743047D01*
X5697016Y2756408D01*
X5689295Y2768904D01*
X5680100Y2780334D01*
X5669584Y2790545D01*
X5657850Y2799384D01*
X5645150Y2806750D01*
X5631637Y2812440D01*
X5617514Y2816453D01*
X5602986Y2818739D01*
X5588304Y2819196D01*
X5573674Y2817825D01*
X5559348Y2814675D01*
X5545531Y2809798D01*
X5532374Y2803245D01*
X5520131Y2795168D01*
X5509006Y2785618D01*
X5499100Y2774746D01*
X5490616Y2762758D01*
X5483656Y2749854D01*
X5478373Y2736138D01*
X5474716Y2721660D01*
X5473039Y2718155D01*
X5470194Y2715514D01*
X5466537Y2714142D01*
X5462625Y2714244D01*
X5459018Y2715818D01*
X5456326Y2718663D01*
X5454904Y2722270D01*
X5453634Y2729077D01*
X5449163Y2743047D01*
X5443016Y2756408D01*
X5435295Y2768904D01*
X5426100Y2780334D01*
X5415584Y2790545D01*
X5403850Y2799384D01*
X5391150Y2806750D01*
X5377637Y2812440D01*
X5363514Y2816453D01*
X5348986Y2818739D01*
X5334304Y2819196D01*
X5319674Y2817825D01*
X5305348Y2814675D01*
X5291531Y2809798D01*
X5278374Y2803245D01*
X5266131Y2795168D01*
X5255006Y2785618D01*
X5245100Y2774746D01*
X5236616Y2762758D01*
X5229656Y2749854D01*
X5224373Y2736138D01*
X5223256Y2731719D01*
X5221427Y2727960D01*
X5218226Y2725267D01*
X5214264Y2724099D01*
X5210098Y2724607D01*
X5206542Y2726740D01*
X5204104Y2730093D01*
X5203240Y2734208D01*
X5203240Y2778252D01*
X5202428Y2786634D01*
X5200091Y2794203D01*
X5196382Y2801213D01*
X5191353Y2807360D01*
X5185206Y2812389D01*
X5178196Y2816098D01*
X5170627Y2818434D01*
X5162245Y2819247D01*
X5005730Y2819247D01*
X4997348Y2818434D01*
X4989779Y2816098D01*
X4982768Y2812389D01*
X4976622Y2807360D01*
X4971592Y2801213D01*
X4967884Y2794203D01*
X4965547Y2786634D01*
X4964734Y2778252D01*
X4964734Y2621737D01*
X4965547Y2613355D01*
X4967884Y2605786D01*
X4971592Y2598775D01*
X4976622Y2592628D01*
X4982768Y2587599D01*
X4989779Y2583891D01*
X4997348Y2581554D01*
X5004308Y2580894D01*
X5007864Y2579827D01*
X5010861Y2577592D01*
X5012791Y2574442D01*
X5013452Y2570784D01*
X5013452Y2305659D01*
X5014366Y2294229D01*
X5016957Y2283460D01*
X5021173Y2273249D01*
X5021986Y2271928D01*
X5023408Y2267915D01*
X5023053Y2263648D01*
X5020970Y2259888D01*
X5017516Y2257348D01*
X5013350Y2256485D01*
X4595672Y2256485D01*
X4584242Y2255570D01*
X4573524Y2252980D01*
X4563313Y2248763D01*
X4553864Y2242972D01*
X4545126Y2235555D01*
X3051962Y742340D01*
X3048304Y740003D01*
X3044037Y739394D01*
X3039872Y740613D01*
X3036620Y743458D01*
X3034842Y747420D01*
X3032353Y759104D01*
X3028035Y770991D01*
X3022092Y782116D01*
X3014675Y792327D01*
X3005886Y801420D01*
X2995980Y809193D01*
X2985008Y815492D01*
X2973324Y820216D01*
X2961081Y823264D01*
X2944012Y825144D01*
X2940710Y827074D01*
X2938373Y830071D01*
X2937306Y833729D01*
X2937611Y837539D01*
X2939338Y840943D01*
X2942945Y845616D01*
X2951276Y859332D01*
X2955442Y868578D01*
X2883357Y868578D01*
X2883357Y804316D01*
X2882747Y800811D01*
X2880969Y797763D01*
X2872130Y787349D01*
X2865475Y776630D01*
X2860344Y765098D01*
X2856839Y752957D01*
X2855112Y740460D01*
X2855112Y727862D01*
X2856839Y715365D01*
X2860344Y703224D01*
X2865475Y691692D01*
X2872130Y680974D01*
X2880258Y671322D01*
X2889656Y662838D01*
X2900121Y655777D01*
X2911449Y650240D01*
X2923489Y646379D01*
X2931871Y644855D01*
X2935935Y643178D01*
X2938932Y639978D01*
X2940253Y635762D01*
X2939643Y631393D01*
X2937306Y627684D01*
X2933242Y623620D01*
X2929940Y621385D01*
X2926029Y620623D01*
X2824022Y620623D01*
X2812592Y619760D01*
X2801823Y617169D01*
X2791612Y612902D01*
X2782163Y607161D01*
X2773476Y599694D01*
X2660853Y487070D01*
X2657551Y484885D01*
X2653639Y484124D01*
X2649778Y484885D01*
X2646476Y487070D01*
X2644292Y490372D01*
X2643479Y494284D01*
X2643479Y797966D01*
X2644038Y801268D01*
X2645664Y804214D01*
X2648153Y806500D01*
X2655570Y811276D01*
X2668016Y821385D01*
X2679192Y832916D01*
X2688945Y845616D01*
X2691282Y849477D01*
X2694127Y852525D01*
X2697937Y854151D01*
X2702052Y854151D01*
X2705862Y852525D01*
X2708706Y849477D01*
X2711043Y845616D01*
X2720797Y832916D01*
X2731973Y821385D01*
X2744419Y811276D01*
X2757932Y802589D01*
X2770632Y796340D01*
X2770632Y868578D01*
X2716174Y868578D01*
X2712415Y869289D01*
X2709214Y871321D01*
X2706979Y874420D01*
X2706014Y878078D01*
X2706471Y881887D01*
X2708859Y889203D01*
X2712059Y904900D01*
X2713431Y920902D01*
X2712974Y936955D01*
X2710688Y952804D01*
X2706573Y968502D01*
X2706268Y972210D01*
X2707335Y975766D01*
X2709621Y978662D01*
X2712770Y980592D01*
X2716377Y981252D01*
X2770632Y981252D01*
X2770632Y1053388D01*
X2764993Y1051001D01*
X2751023Y1043127D01*
X2738069Y1033678D01*
X2726232Y1022807D01*
X2715717Y1010716D01*
X2708402Y999947D01*
X2705608Y997203D01*
X2701950Y995730D01*
X2698038Y995730D01*
X2694381Y997203D01*
X2691587Y999947D01*
X2684272Y1010716D01*
X2673756Y1022807D01*
X2661920Y1033678D01*
X2648966Y1043127D01*
X2634996Y1051001D01*
X2621026Y1056894D01*
X2617571Y1059281D01*
X2615387Y1062888D01*
X2614828Y1067003D01*
X2615996Y1071067D01*
X2619248Y1074674D01*
X2631846Y1086967D01*
X2643124Y1100531D01*
X2652826Y1115212D01*
X2660954Y1130858D01*
X2667406Y1147267D01*
X2672029Y1164234D01*
X2674823Y1181658D01*
X2675737Y1199235D01*
X2674823Y1216812D01*
X2672029Y1234236D01*
X2667406Y1251204D01*
X2660954Y1267612D01*
X2652826Y1283258D01*
X2643124Y1297940D01*
X2631846Y1311503D01*
X2619248Y1323797D01*
X2617216Y1325372D01*
X2614472Y1328674D01*
X2613355Y1332839D01*
X2614015Y1337106D01*
X2616403Y1340662D01*
X2620060Y1342948D01*
X2627680Y1345641D01*
X2642057Y1352753D01*
X2655570Y1361440D01*
X2668016Y1371549D01*
X2679192Y1383080D01*
X2688945Y1395780D01*
X2691282Y1399641D01*
X2694127Y1402689D01*
X2697937Y1404315D01*
X2702052Y1404315D01*
X2705862Y1402689D01*
X2708706Y1399641D01*
X2711043Y1395780D01*
X2720797Y1383080D01*
X2731973Y1371549D01*
X2744419Y1361440D01*
X2757932Y1352753D01*
X2770632Y1346504D01*
X2770632Y1418742D01*
X2716174Y1418742D01*
X2712415Y1419453D01*
X2709214Y1421485D01*
X2706979Y1424584D01*
X2706014Y1428242D01*
X2706471Y1432052D01*
X2708859Y1439367D01*
X2712059Y1455064D01*
X2713431Y1471066D01*
X2712974Y1487119D01*
X2710688Y1502968D01*
X2706573Y1518666D01*
X2706268Y1522374D01*
X2707335Y1525930D01*
X2709621Y1528826D01*
X2712770Y1530756D01*
X2716377Y1531416D01*
X2770632Y1531416D01*
X2770632Y1603552D01*
X2764993Y1601165D01*
X2751023Y1593291D01*
X2738069Y1583842D01*
X2726232Y1572971D01*
X2715717Y1560880D01*
X2708402Y1550111D01*
X2705608Y1547368D01*
X2701950Y1545894D01*
X2698038Y1545894D01*
X2694381Y1547368D01*
X2691587Y1550111D01*
X2684272Y1560880D01*
X2673756Y1572971D01*
X2661920Y1583842D01*
X2648966Y1593291D01*
X2634996Y1601165D01*
X2620213Y1607413D01*
X2604820Y1611934D01*
X2589022Y1614678D01*
X2573020Y1615592D01*
X2556967Y1614678D01*
X2541168Y1611934D01*
X2525776Y1607413D01*
X2510993Y1601165D01*
X2497023Y1593291D01*
X2484069Y1583842D01*
X2472232Y1572971D01*
X2461717Y1560880D01*
X2452674Y1547622D01*
X2445207Y1533448D01*
X2439365Y1518513D01*
X2435301Y1502968D01*
X2433015Y1487119D01*
X2432558Y1471066D01*
X2433929Y1455064D01*
X2437130Y1439367D01*
X2442057Y1424127D01*
X2448712Y1409496D01*
X2457043Y1395780D01*
X2466797Y1383080D01*
X2473452Y1376222D01*
X2475687Y1372768D01*
X2476296Y1368653D01*
X2475280Y1364691D01*
X2472740Y1361389D01*
X2469083Y1359458D01*
X2454097Y1354937D01*
X2437892Y1348079D01*
X2422448Y1339545D01*
X2408072Y1329385D01*
X2394813Y1317802D01*
X2388971Y1311503D01*
X2385720Y1309116D01*
X2381758Y1308201D01*
X2377795Y1308912D01*
X2374392Y1311097D01*
X2372156Y1314450D01*
X2371344Y1318361D01*
X2371344Y1857502D01*
X2372106Y1861362D01*
X2374341Y1864664D01*
X2584348Y2074722D01*
X2591765Y2083409D01*
X2597556Y2092858D01*
X2601772Y2103069D01*
X2604363Y2113838D01*
X2605227Y2124862D01*
X2604363Y2135886D01*
X2601772Y2146604D01*
X2597556Y2156866D01*
X2591765Y2166264D01*
X2584602Y2174697D01*
X2576169Y2181860D01*
X2566771Y2187651D01*
X2556560Y2191867D01*
X2545791Y2194458D01*
X2534767Y2195322D01*
X2523744Y2194458D01*
X2512974Y2191867D01*
X2502763Y2187651D01*
X2493314Y2181860D01*
X2484628Y2174443D01*
X2251252Y1941068D01*
X2243785Y1932330D01*
X2238044Y1922932D01*
X2233777Y1912670D01*
X2231237Y1901952D01*
X2230323Y1890522D01*
X2230323Y1123950D01*
X2231237Y1112520D01*
X2233777Y1101750D01*
X2238044Y1091539D01*
X2243785Y1082090D01*
X2251252Y1073404D01*
X2436215Y888441D01*
X2437688Y886561D01*
X2438654Y884377D01*
X2442057Y873963D01*
X2448712Y859332D01*
X2457043Y845616D01*
X2466797Y832916D01*
X2477973Y821385D01*
X2490419Y811276D01*
X2497785Y806500D01*
X2500325Y804214D01*
X2501900Y801268D01*
X2502458Y797966D01*
X2502458Y395833D01*
X2501646Y391769D01*
X2499258Y388416D01*
X2489301Y379069D01*
X2480056Y367893D01*
X2472283Y355650D01*
X2466136Y342493D01*
X2461615Y328726D01*
X2458923Y314452D01*
X2458008Y299974D01*
X2458923Y285546D01*
X2461615Y271272D01*
X2466136Y257505D01*
X2472283Y244348D01*
X2480056Y232105D01*
X2489301Y220929D01*
X2499868Y211023D01*
X2511602Y202488D01*
X2524302Y195478D01*
X2537815Y190144D01*
X2551836Y186537D01*
G37*
G36*
X7161733Y2745689D02*
G01*
X7225944Y2745689D01*
X7221016Y2756408D01*
X7213295Y2768904D01*
X7204100Y2780334D01*
X7193584Y2790545D01*
X7181850Y2799384D01*
X7169150Y2806750D01*
X7161733Y2809849D01*
G37*
G36*
X7161733Y2590139D02*
G01*
X7169150Y2593238D01*
X7181850Y2600604D01*
X7193584Y2609443D01*
X7204100Y2619654D01*
X7213295Y2631084D01*
X7221016Y2643581D01*
X7225944Y2654249D01*
X7161733Y2654249D01*
G37*
G36*
X11895226Y2509570D02*
G01*
X11914225Y2510028D01*
X11933072Y2512364D01*
X11951563Y2516632D01*
X11969597Y2522677D01*
X11986869Y2530449D01*
X12003328Y2539949D01*
X12018772Y2551074D01*
X12032996Y2563622D01*
X12045899Y2577541D01*
X12057380Y2592679D01*
X12067286Y2608884D01*
X12075515Y2626004D01*
X12082018Y2643835D01*
X12086691Y2662224D01*
X12089536Y2681020D01*
X12090501Y2699969D01*
X12089536Y2718968D01*
X12086691Y2737764D01*
X12082018Y2756154D01*
X12075515Y2773984D01*
X12067286Y2791104D01*
X12057380Y2807309D01*
X12045899Y2822448D01*
X12032996Y2836367D01*
X12018772Y2848914D01*
X12003328Y2860040D01*
X11986869Y2869539D01*
X11969597Y2877312D01*
X11951563Y2883357D01*
X11933072Y2887624D01*
X11914225Y2889961D01*
X11895226Y2890418D01*
X11876278Y2888996D01*
X11857583Y2885694D01*
X11839295Y2880563D01*
X11821617Y2873654D01*
X11804751Y2864967D01*
X11788749Y2854655D01*
X11773916Y2842818D01*
X11760352Y2829560D01*
X11748109Y2815031D01*
X11737441Y2799334D01*
X11728348Y2782671D01*
X11720982Y2765145D01*
X11715343Y2747010D01*
X11711584Y2728366D01*
X11709704Y2709468D01*
X11709704Y2690520D01*
X11711584Y2671622D01*
X11715343Y2652979D01*
X11720982Y2634843D01*
X11728348Y2617317D01*
X11737441Y2600655D01*
X11748109Y2584958D01*
X11760352Y2570429D01*
X11773916Y2557170D01*
X11788749Y2545334D01*
X11804751Y2535021D01*
X11821617Y2526334D01*
X11839295Y2519426D01*
X11857583Y2514295D01*
X11876278Y2510993D01*
G37*
G36*
X295249Y2509570D02*
G01*
X314248Y2510028D01*
X333095Y2512364D01*
X351586Y2516632D01*
X369620Y2522677D01*
X386892Y2530449D01*
X403352Y2539949D01*
X418795Y2551074D01*
X433019Y2563622D01*
X445922Y2577541D01*
X457403Y2592679D01*
X467309Y2608884D01*
X475538Y2626004D01*
X482041Y2643835D01*
X486714Y2662224D01*
X489559Y2681020D01*
X490524Y2699969D01*
X489559Y2718968D01*
X486714Y2737764D01*
X482041Y2756154D01*
X475538Y2773984D01*
X467309Y2791104D01*
X457403Y2807309D01*
X445922Y2822448D01*
X433019Y2836367D01*
X418795Y2848914D01*
X403352Y2860040D01*
X386892Y2869539D01*
X369620Y2877312D01*
X351586Y2883357D01*
X333095Y2887624D01*
X314248Y2889961D01*
X295249Y2890418D01*
X276301Y2888996D01*
X257606Y2885694D01*
X239318Y2880563D01*
X221640Y2873654D01*
X204774Y2864967D01*
X188772Y2854655D01*
X173939Y2842818D01*
X160375Y2829560D01*
X148132Y2815031D01*
X137464Y2799334D01*
X128371Y2782671D01*
X121005Y2765145D01*
X115366Y2747010D01*
X111607Y2728366D01*
X109728Y2709468D01*
X109728Y2690520D01*
X111607Y2671622D01*
X115366Y2652979D01*
X121005Y2634843D01*
X128371Y2617317D01*
X137464Y2600655D01*
X148132Y2584958D01*
X160375Y2570429D01*
X173939Y2557170D01*
X188772Y2545334D01*
X204774Y2535021D01*
X221640Y2526334D01*
X239318Y2519426D01*
X257606Y2514295D01*
X276301Y2510993D01*
G37*
G36*
X11383314Y1531467D02*
G01*
X11455552Y1531467D01*
X11454790Y1533499D01*
X11447272Y1547672D01*
X11438229Y1560880D01*
X11427714Y1573022D01*
X11415928Y1583893D01*
X11402923Y1593291D01*
X11388953Y1601165D01*
X11383314Y1603552D01*
G37*
G36*
X1171346Y193395D02*
G01*
X1176680Y195478D01*
X1189380Y202488D01*
X1201115Y211023D01*
X1211681Y220929D01*
X1220927Y232105D01*
X1228699Y244348D01*
X1234236Y256133D01*
X1171346Y256133D01*
G37*
G36*
X1083665Y193395D02*
G01*
X1083665Y256133D01*
X1020775Y256133D01*
X1026312Y244348D01*
X1034084Y232105D01*
X1043330Y220929D01*
X1053896Y211023D01*
X1065631Y202488D01*
X1078331Y195478D01*
G37*
G36*
X9583115Y193395D02*
G01*
X9583115Y256133D01*
X9520224Y256133D01*
X9525762Y244348D01*
X9533534Y232105D01*
X9542780Y220929D01*
X9553346Y211023D01*
X9565081Y202488D01*
X9577832Y195478D01*
G37*
G36*
X6183122Y193395D02*
G01*
X6183122Y256133D01*
X6120231Y256133D01*
X6125768Y244348D01*
X6133541Y232105D01*
X6142786Y220929D01*
X6153353Y211023D01*
X6165088Y202488D01*
X6177838Y195478D01*
G37*
G36*
X4566920Y193395D02*
G01*
X4572254Y195478D01*
X4584954Y202488D01*
X4596688Y211023D01*
X4607306Y220929D01*
X4616551Y232105D01*
X4624324Y244348D01*
X4629861Y256133D01*
X4566920Y256133D01*
G37*
G36*
X6270853Y193395D02*
G01*
X6276187Y195478D01*
X6288887Y202488D01*
X6300622Y211023D01*
X6311188Y220929D01*
X6320434Y232105D01*
X6328206Y244348D01*
X6333744Y256133D01*
X6270853Y256133D01*
G37*
G36*
X7883144Y193395D02*
G01*
X7883144Y256133D01*
X7820253Y256133D01*
X7825790Y244348D01*
X7833563Y232105D01*
X7842808Y220929D01*
X7853375Y211023D01*
X7865109Y202488D01*
X7877809Y195478D01*
G37*
G36*
X2871368Y193395D02*
G01*
X2876651Y195478D01*
X2889402Y202488D01*
X2901137Y211023D01*
X2911703Y220929D01*
X2920949Y232105D01*
X2928721Y244348D01*
X2934258Y256133D01*
X2871368Y256133D01*
G37*
G36*
X11283137Y193395D02*
G01*
X11283137Y256133D01*
X11220246Y256133D01*
X11225784Y244348D01*
X11233556Y232105D01*
X11242802Y220929D01*
X11253368Y211023D01*
X11265103Y202488D01*
X11277803Y195478D01*
G37*
G36*
X7970824Y193395D02*
G01*
X7976158Y195478D01*
X7988858Y202488D01*
X8000593Y211023D01*
X8011159Y220929D01*
X8020405Y232105D01*
X8028178Y244348D01*
X8033715Y256133D01*
X7970824Y256133D01*
G37*
G36*
X9670846Y193395D02*
G01*
X9676180Y195478D01*
X9688880Y202488D01*
X9700615Y211023D01*
X9711182Y220929D01*
X9720427Y232105D01*
X9728200Y244348D01*
X9733737Y256133D01*
X9670846Y256133D01*
G37*
G36*
X2783636Y193395D02*
G01*
X2783636Y256133D01*
X2720746Y256133D01*
X2726283Y244348D01*
X2734056Y232105D01*
X2743301Y220929D01*
X2753868Y211023D01*
X2765602Y202488D01*
X2778302Y195478D01*
G37*
G36*
X4479239Y193395D02*
G01*
X4479239Y256133D01*
X4416348Y256133D01*
X4421886Y244348D01*
X4429658Y232105D01*
X4438904Y220929D01*
X4449470Y211023D01*
X4461205Y202488D01*
X4473905Y195478D01*
G37*
G36*
X11370818Y193395D02*
G01*
X11376152Y195478D01*
X11388852Y202488D01*
X11400586Y211023D01*
X11411153Y220929D01*
X11420398Y232105D01*
X11428171Y244348D01*
X11433708Y256133D01*
X11370818Y256133D01*
G37*
G36*
X1020775Y343865D02*
G01*
X1083665Y343865D01*
X1083665Y406603D01*
X1078331Y404520D01*
X1065631Y397510D01*
X1053896Y388975D01*
X1043330Y379069D01*
X1034084Y367893D01*
X1026312Y355650D01*
G37*
G36*
X1171346Y343865D02*
G01*
X1234236Y343865D01*
X1228699Y355650D01*
X1220927Y367893D01*
X1211681Y379069D01*
X1201115Y388975D01*
X1189380Y397510D01*
X1176680Y404520D01*
X1171346Y406603D01*
G37*
G36*
X7820253Y343865D02*
G01*
X7883144Y343865D01*
X7883144Y406603D01*
X7877809Y404520D01*
X7865109Y397510D01*
X7853375Y388975D01*
X7842808Y379069D01*
X7833563Y367893D01*
X7825790Y355650D01*
G37*
G36*
X9520224Y343865D02*
G01*
X9583115Y343865D01*
X9583115Y406603D01*
X9577832Y404520D01*
X9565081Y397510D01*
X9553346Y388975D01*
X9542780Y379069D01*
X9533534Y367893D01*
X9525762Y355650D01*
G37*
G36*
X4416348Y343865D02*
G01*
X4479239Y343865D01*
X4479239Y406603D01*
X4473905Y404520D01*
X4461205Y397510D01*
X4449470Y388975D01*
X4438904Y379069D01*
X4429658Y367893D01*
X4421886Y355650D01*
G37*
G36*
X9670846Y343865D02*
G01*
X9733737Y343865D01*
X9728200Y355650D01*
X9720427Y367893D01*
X9711182Y379069D01*
X9700615Y388975D01*
X9688880Y397510D01*
X9676180Y404520D01*
X9670846Y406603D01*
G37*
G36*
X7970824Y343865D02*
G01*
X8033715Y343865D01*
X8028178Y355650D01*
X8020405Y367893D01*
X8011159Y379069D01*
X8000593Y388975D01*
X7988858Y397510D01*
X7976158Y404520D01*
X7970824Y406603D01*
G37*
G36*
X6270853Y343865D02*
G01*
X6333744Y343865D01*
X6328206Y355650D01*
X6320434Y367893D01*
X6311188Y379069D01*
X6300622Y388975D01*
X6288887Y397510D01*
X6276187Y404520D01*
X6270853Y406603D01*
G37*
G36*
X2871368Y343865D02*
G01*
X2934258Y343865D01*
X2928721Y355650D01*
X2920949Y367893D01*
X2911703Y379069D01*
X2901137Y388975D01*
X2889402Y397510D01*
X2876651Y404520D01*
X2871368Y406603D01*
G37*
G36*
X6120231Y343865D02*
G01*
X6183122Y343865D01*
X6183122Y406603D01*
X6177838Y404520D01*
X6165088Y397510D01*
X6153353Y388975D01*
X6142786Y379069D01*
X6133541Y367893D01*
X6125768Y355650D01*
G37*
G36*
X4566920Y343865D02*
G01*
X4629861Y343865D01*
X4624324Y355650D01*
X4616551Y367893D01*
X4607306Y379069D01*
X4596688Y388975D01*
X4584954Y397510D01*
X4572254Y404520D01*
X4566920Y406603D01*
G37*
G36*
X11220246Y343865D02*
G01*
X11283137Y343865D01*
X11283137Y406603D01*
X11277803Y404520D01*
X11265103Y397510D01*
X11253368Y388975D01*
X11242802Y379069D01*
X11233556Y367893D01*
X11225784Y355650D01*
G37*
G36*
X11370818Y343865D02*
G01*
X11433708Y343865D01*
X11428171Y355650D01*
X11420398Y367893D01*
X11411153Y379069D01*
X11400586Y388975D01*
X11388852Y397510D01*
X11376152Y404520D01*
X11370818Y406603D01*
G37*
G36*
X7983321Y1531467D02*
G01*
X8055559Y1531467D01*
X8054797Y1533499D01*
X8047278Y1547672D01*
X8038236Y1560880D01*
X8027720Y1573022D01*
X8015935Y1583893D01*
X8002930Y1593291D01*
X7988960Y1601165D01*
X7983321Y1603552D01*
G37*
G36*
X1248511Y643737D02*
G01*
X1261059Y645058D01*
X1273302Y648106D01*
X1285036Y652830D01*
X1295958Y659130D01*
X1305915Y666902D01*
X1314704Y675995D01*
X1322120Y686206D01*
X1328013Y697331D01*
X1332331Y709218D01*
X1334973Y721563D01*
X1335836Y734161D01*
X1334973Y746760D01*
X1332331Y759104D01*
X1328013Y770991D01*
X1322120Y782116D01*
X1314704Y792327D01*
X1305915Y801420D01*
X1295958Y809193D01*
X1285036Y815492D01*
X1273302Y820216D01*
X1261059Y823264D01*
X1243990Y825144D01*
X1240688Y827074D01*
X1238351Y830071D01*
X1237284Y833729D01*
X1237640Y837539D01*
X1239367Y840943D01*
X1242974Y845616D01*
X1251254Y859332D01*
X1255471Y868578D01*
X1183335Y868578D01*
X1183335Y804316D01*
X1182725Y800811D01*
X1180947Y797763D01*
X1172159Y787349D01*
X1165453Y776630D01*
X1160322Y765098D01*
X1156868Y752957D01*
X1155090Y740460D01*
X1155090Y727862D01*
X1156868Y715365D01*
X1160322Y703224D01*
X1165453Y691692D01*
X1172159Y680974D01*
X1180287Y671322D01*
X1189634Y662838D01*
X1200099Y655777D01*
X1211478Y650240D01*
X1223467Y646379D01*
X1235913Y644144D01*
G37*
G36*
X6348526Y643737D02*
G01*
X6361074Y645058D01*
X6373317Y648106D01*
X6385001Y652830D01*
X6395974Y659130D01*
X6405880Y666902D01*
X6414668Y675995D01*
X6422085Y686206D01*
X6428028Y697331D01*
X6432346Y709218D01*
X6434937Y721563D01*
X6435852Y734161D01*
X6434937Y746760D01*
X6432346Y759104D01*
X6428028Y770991D01*
X6422085Y782116D01*
X6414668Y792327D01*
X6405880Y801420D01*
X6395974Y809193D01*
X6385001Y815492D01*
X6373317Y820216D01*
X6361074Y823264D01*
X6344005Y825144D01*
X6340703Y827074D01*
X6338366Y830071D01*
X6337300Y833729D01*
X6337604Y837539D01*
X6339332Y840943D01*
X6342938Y845616D01*
X6351270Y859332D01*
X6355435Y868578D01*
X6283350Y868578D01*
X6283350Y804316D01*
X6282740Y800811D01*
X6280962Y797763D01*
X6272123Y787349D01*
X6265468Y776630D01*
X6260338Y765098D01*
X6256832Y752957D01*
X6255105Y740460D01*
X6255105Y727862D01*
X6256832Y715365D01*
X6260338Y703224D01*
X6265468Y691692D01*
X6272123Y680974D01*
X6280251Y671322D01*
X6289649Y662838D01*
X6300114Y655777D01*
X6311442Y650240D01*
X6323482Y646379D01*
X6335877Y644144D01*
G37*
G36*
X8048498Y643737D02*
G01*
X8061045Y645058D01*
X8073288Y648106D01*
X8085023Y652881D01*
X8095945Y659180D01*
X8105902Y666953D01*
X8114690Y676046D01*
X8122107Y686257D01*
X8128000Y697382D01*
X8132318Y709269D01*
X8134959Y721614D01*
X8135823Y734161D01*
X8134959Y746760D01*
X8132318Y759104D01*
X8128000Y770991D01*
X8122107Y782116D01*
X8114690Y792327D01*
X8105902Y801420D01*
X8095945Y809193D01*
X8085023Y815492D01*
X8073288Y820267D01*
X8061045Y823315D01*
X8043976Y825195D01*
X8040674Y827125D01*
X8038338Y830122D01*
X8037271Y833780D01*
X8037626Y837539D01*
X8039353Y840943D01*
X8042960Y845616D01*
X8051241Y859383D01*
X8055457Y868578D01*
X7983321Y868578D01*
X7983321Y804316D01*
X7982712Y800862D01*
X7980934Y797763D01*
X7972145Y787349D01*
X7965440Y776681D01*
X7960309Y765149D01*
X7956854Y753008D01*
X7955076Y740511D01*
X7955076Y727862D01*
X7956854Y715365D01*
X7960309Y703224D01*
X7965440Y691692D01*
X7972145Y680974D01*
X7980273Y671322D01*
X7989620Y662889D01*
X8000085Y655828D01*
X8011464Y650290D01*
X8023453Y646379D01*
X8035899Y644194D01*
G37*
G36*
X9748520Y643737D02*
G01*
X9761067Y645058D01*
X9773310Y648106D01*
X9784994Y652881D01*
X9795967Y659180D01*
X9805873Y666953D01*
X9814661Y676046D01*
X9822078Y686257D01*
X9828022Y697382D01*
X9832340Y709269D01*
X9834930Y721614D01*
X9835845Y734161D01*
X9834930Y746760D01*
X9832340Y759104D01*
X9828022Y770991D01*
X9822078Y782116D01*
X9814661Y792327D01*
X9805873Y801420D01*
X9795967Y809193D01*
X9784994Y815492D01*
X9773310Y820267D01*
X9761067Y823315D01*
X9743998Y825195D01*
X9740696Y827125D01*
X9738360Y830122D01*
X9737293Y833780D01*
X9737598Y837539D01*
X9739325Y840943D01*
X9742932Y845616D01*
X9751263Y859383D01*
X9755428Y868578D01*
X9683343Y868578D01*
X9683343Y804316D01*
X9682734Y800862D01*
X9680956Y797763D01*
X9672116Y787349D01*
X9665462Y776681D01*
X9660331Y765149D01*
X9656826Y753008D01*
X9655098Y740511D01*
X9655098Y727862D01*
X9656826Y715365D01*
X9660331Y703224D01*
X9665462Y691692D01*
X9672116Y680974D01*
X9680244Y671322D01*
X9689642Y662889D01*
X9700107Y655828D01*
X9711436Y650290D01*
X9723475Y646379D01*
X9735870Y644194D01*
G37*
G36*
X11448491Y643737D02*
G01*
X11461038Y645058D01*
X11473281Y648106D01*
X11485016Y652881D01*
X11495938Y659180D01*
X11505895Y666953D01*
X11514683Y676046D01*
X11522100Y686257D01*
X11527993Y697382D01*
X11532311Y709269D01*
X11534952Y721614D01*
X11535816Y734161D01*
X11534952Y746760D01*
X11532311Y759104D01*
X11527993Y770991D01*
X11522100Y782116D01*
X11514683Y792327D01*
X11505895Y801420D01*
X11495938Y809193D01*
X11485016Y815492D01*
X11473281Y820267D01*
X11461038Y823315D01*
X11443970Y825195D01*
X11440668Y827125D01*
X11438331Y830122D01*
X11437264Y833780D01*
X11437620Y837539D01*
X11439347Y840943D01*
X11442954Y845616D01*
X11451234Y859383D01*
X11455450Y868578D01*
X11383314Y868578D01*
X11383314Y804316D01*
X11382705Y800862D01*
X11380927Y797763D01*
X11372138Y787349D01*
X11365433Y776681D01*
X11360302Y765149D01*
X11356848Y753008D01*
X11355070Y740511D01*
X11355070Y727862D01*
X11356848Y715365D01*
X11360302Y703224D01*
X11365433Y691692D01*
X11372138Y680974D01*
X11380266Y671322D01*
X11389614Y662889D01*
X11400078Y655828D01*
X11411458Y650290D01*
X11423446Y646379D01*
X11435892Y644194D01*
G37*
G36*
X9683343Y1531467D02*
G01*
X9755581Y1531467D01*
X9754768Y1533499D01*
X9747300Y1547672D01*
X9738258Y1560880D01*
X9727742Y1573022D01*
X9715906Y1583893D01*
X9702952Y1593291D01*
X9688982Y1601165D01*
X9683343Y1603552D01*
G37*
G36*
X1183335Y1531416D02*
G01*
X1255572Y1531416D01*
X1254810Y1533448D01*
X1247292Y1547622D01*
X1238250Y1560880D01*
X1227734Y1572971D01*
X1215948Y1583842D01*
X1202944Y1593291D01*
X1188974Y1601165D01*
X1183335Y1603552D01*
G37*
G36*
X2883357Y1531416D02*
G01*
X2955594Y1531416D01*
X2954782Y1533448D01*
X2947314Y1547622D01*
X2938272Y1560880D01*
X2927756Y1572971D01*
X2915920Y1583842D01*
X2902966Y1593291D01*
X2888996Y1601165D01*
X2883357Y1603552D01*
G37*
G36*
X864971Y784656D02*
G01*
X881024Y784656D01*
X896975Y786485D01*
X912571Y790092D01*
X927709Y795477D01*
X942086Y802589D01*
X955598Y811276D01*
X967994Y821385D01*
X979169Y832916D01*
X988974Y845616D01*
X991311Y849477D01*
X994105Y852525D01*
X997915Y854151D01*
X1002080Y854151D01*
X1005890Y852525D01*
X1008684Y849477D01*
X1011021Y845616D01*
X1020826Y832916D01*
X1032002Y821385D01*
X1044397Y811276D01*
X1057910Y802589D01*
X1070660Y796340D01*
X1070660Y868578D01*
X1016152Y868578D01*
X1012393Y869289D01*
X1009192Y871321D01*
X1006957Y874420D01*
X1006043Y878078D01*
X1006500Y881887D01*
X1008887Y889203D01*
X1012088Y904900D01*
X1013460Y920902D01*
X1013002Y936955D01*
X1010716Y952804D01*
X1006551Y968502D01*
X1006297Y972210D01*
X1007364Y975766D01*
X1009599Y978662D01*
X1012748Y980592D01*
X1016406Y981252D01*
X1070660Y981252D01*
X1070660Y1053388D01*
X1065022Y1051001D01*
X1051052Y1043127D01*
X1038047Y1033678D01*
X1026261Y1022807D01*
X1015746Y1010716D01*
X1008380Y999947D01*
X1005586Y997203D01*
X1001979Y995730D01*
X998016Y995730D01*
X994410Y997203D01*
X991616Y999947D01*
X984250Y1010716D01*
X973734Y1022807D01*
X961948Y1033678D01*
X948944Y1043127D01*
X934974Y1051001D01*
X921003Y1056894D01*
X917549Y1059281D01*
X915365Y1062888D01*
X914857Y1067003D01*
X916025Y1071067D01*
X919226Y1074674D01*
X931875Y1086967D01*
X943102Y1100531D01*
X952855Y1115212D01*
X960983Y1130858D01*
X967384Y1147267D01*
X972007Y1164234D01*
X974801Y1181658D01*
X975766Y1199235D01*
X974801Y1216812D01*
X972007Y1234236D01*
X967384Y1251204D01*
X960983Y1267612D01*
X952855Y1283258D01*
X943102Y1297940D01*
X931875Y1311503D01*
X919226Y1323797D01*
X917194Y1325372D01*
X914450Y1328674D01*
X913333Y1332839D01*
X914044Y1337106D01*
X916432Y1340662D01*
X920089Y1342948D01*
X927709Y1345641D01*
X942086Y1352753D01*
X955598Y1361440D01*
X967994Y1371549D01*
X979169Y1383080D01*
X988974Y1395780D01*
X991311Y1399641D01*
X994105Y1402689D01*
X997915Y1404315D01*
X1002080Y1404315D01*
X1005890Y1402689D01*
X1008684Y1399641D01*
X1011021Y1395780D01*
X1020826Y1383080D01*
X1032002Y1371549D01*
X1044397Y1361440D01*
X1057910Y1352753D01*
X1070660Y1346504D01*
X1070660Y1418742D01*
X1016152Y1418742D01*
X1012393Y1419453D01*
X1009192Y1421485D01*
X1006957Y1424584D01*
X1006043Y1428242D01*
X1006500Y1432052D01*
X1008887Y1439367D01*
X1012088Y1455064D01*
X1013460Y1471066D01*
X1013002Y1487119D01*
X1010716Y1502968D01*
X1006551Y1518666D01*
X1006297Y1522374D01*
X1007364Y1525930D01*
X1009599Y1528826D01*
X1012748Y1530756D01*
X1016406Y1531416D01*
X1070660Y1531416D01*
X1070660Y1603552D01*
X1065022Y1601165D01*
X1051052Y1593291D01*
X1038047Y1583842D01*
X1026261Y1572971D01*
X1015746Y1560880D01*
X1008380Y1550111D01*
X1005586Y1547368D01*
X1001979Y1545894D01*
X998016Y1545894D01*
X994410Y1547368D01*
X991616Y1550111D01*
X984250Y1560880D01*
X973734Y1572971D01*
X961948Y1583842D01*
X948944Y1593291D01*
X934974Y1601165D01*
X920191Y1607413D01*
X904798Y1611934D01*
X889000Y1614678D01*
X872998Y1615592D01*
X856996Y1614678D01*
X841197Y1611934D01*
X825804Y1607413D01*
X811022Y1601165D01*
X797052Y1593291D01*
X784047Y1583842D01*
X772261Y1572971D01*
X761746Y1560880D01*
X752703Y1547622D01*
X745185Y1533448D01*
X739394Y1518513D01*
X735279Y1502968D01*
X732993Y1487119D01*
X732536Y1471066D01*
X733907Y1455064D01*
X737108Y1439367D01*
X742086Y1424127D01*
X748741Y1409496D01*
X757021Y1395780D01*
X766826Y1383080D01*
X773430Y1376222D01*
X775665Y1372768D01*
X776325Y1368653D01*
X775258Y1364691D01*
X772718Y1361389D01*
X769112Y1359458D01*
X754126Y1354937D01*
X737870Y1348079D01*
X722477Y1339545D01*
X708050Y1329385D01*
X698195Y1320749D01*
X694842Y1318818D01*
X691032Y1318260D01*
X687273Y1319174D01*
X684123Y1321409D01*
X682040Y1324610D01*
X681329Y1328420D01*
X681329Y1821281D01*
X682091Y1825142D01*
X684326Y1828444D01*
X930554Y2074722D01*
X937971Y2083409D01*
X943762Y2092858D01*
X947978Y2103069D01*
X950569Y2113838D01*
X951433Y2124862D01*
X950569Y2135886D01*
X947978Y2146604D01*
X943762Y2156866D01*
X937971Y2166264D01*
X930808Y2174697D01*
X922375Y2181860D01*
X912977Y2187651D01*
X902766Y2191867D01*
X891997Y2194458D01*
X880973Y2195322D01*
X869950Y2194458D01*
X859180Y2191867D01*
X848969Y2187651D01*
X839520Y2181860D01*
X830834Y2174443D01*
X561238Y1904847D01*
X553770Y1896110D01*
X548030Y1886712D01*
X543763Y1876450D01*
X541223Y1865731D01*
X540308Y1854301D01*
X540308Y1102258D01*
X541223Y1090828D01*
X543763Y1080058D01*
X548030Y1069848D01*
X553770Y1060399D01*
X561238Y1051712D01*
X737565Y875334D01*
X742188Y871423D01*
X744829Y867918D01*
X748741Y859332D01*
X757021Y845616D01*
X766826Y832916D01*
X778002Y821385D01*
X790397Y811276D01*
X803910Y802589D01*
X818286Y795477D01*
X833424Y790092D01*
X849020Y786485D01*
G37*
G36*
X4583328Y1531416D02*
G01*
X4655566Y1531416D01*
X4654804Y1533448D01*
X4647285Y1547622D01*
X4638243Y1560880D01*
X4627727Y1572971D01*
X4615942Y1583842D01*
X4602937Y1593291D01*
X4588967Y1601165D01*
X4583328Y1603552D01*
G37*
G36*
X6283350Y1531416D02*
G01*
X6355588Y1531416D01*
X6354775Y1533448D01*
X6347307Y1547622D01*
X6338265Y1560880D01*
X6327749Y1572971D01*
X6315913Y1583842D01*
X6302959Y1593291D01*
X6288989Y1601165D01*
X6283350Y1603552D01*
G37*
G36*
X11383314Y981303D02*
G01*
X11455552Y981303D01*
X11454790Y983335D01*
X11447272Y997508D01*
X11438229Y1010716D01*
X11427561Y1023010D01*
X11425580Y1026617D01*
X11425174Y1030732D01*
X11426393Y1034643D01*
X11429136Y1037793D01*
X11432844Y1039571D01*
X11438026Y1040790D01*
X11454587Y1046784D01*
X11470436Y1054506D01*
X11485372Y1063853D01*
X11499189Y1074724D01*
X11511838Y1087018D01*
X11523065Y1100582D01*
X11532819Y1115263D01*
X11540947Y1130858D01*
X11547348Y1147267D01*
X11551970Y1164285D01*
X11554764Y1181658D01*
X11555730Y1199235D01*
X11554764Y1216863D01*
X11551970Y1234236D01*
X11547348Y1251254D01*
X11540947Y1267663D01*
X11532819Y1283258D01*
X11523065Y1297940D01*
X11511838Y1311503D01*
X11499189Y1323797D01*
X11485372Y1334668D01*
X11470436Y1344015D01*
X11454587Y1351737D01*
X11438026Y1357731D01*
X11431422Y1359306D01*
X11427561Y1361186D01*
X11424869Y1364437D01*
X11423700Y1368501D01*
X11424259Y1372666D01*
X11426545Y1376273D01*
X11433149Y1383080D01*
X11442954Y1395780D01*
X11451234Y1409547D01*
X11455450Y1418742D01*
X11383314Y1418742D01*
X11383314Y1373886D01*
X11382654Y1370177D01*
X11380622Y1366977D01*
X11377625Y1364742D01*
X11373967Y1363776D01*
X11368278Y1363319D01*
X11350955Y1360017D01*
X11334089Y1354937D01*
X11317833Y1348079D01*
X11302441Y1339545D01*
X11288014Y1329436D01*
X11285118Y1327607D01*
X11283645Y1325575D01*
X11274755Y1317853D01*
X11262817Y1304899D01*
X11252301Y1290726D01*
X11243360Y1275588D01*
X11236096Y1259535D01*
X11230559Y1242822D01*
X11226850Y1225600D01*
X11224971Y1208074D01*
X11224971Y1190447D01*
X11226850Y1172921D01*
X11230559Y1155700D01*
X11236096Y1138986D01*
X11243360Y1122934D01*
X11252301Y1107795D01*
X11262817Y1093622D01*
X11274755Y1080668D01*
X11282222Y1074166D01*
X11284305Y1071422D01*
X11288014Y1069086D01*
X11302441Y1058976D01*
X11317833Y1050442D01*
X11334089Y1043584D01*
X11350955Y1038504D01*
X11368278Y1035202D01*
X11373967Y1034745D01*
X11377625Y1033780D01*
X11380622Y1031544D01*
X11382654Y1028344D01*
X11383314Y1024636D01*
G37*
G36*
X7983321Y981303D02*
G01*
X8055559Y981303D01*
X8054797Y983335D01*
X8047278Y997508D01*
X8038236Y1010716D01*
X8027568Y1023010D01*
X8025587Y1026617D01*
X8025180Y1030732D01*
X8026400Y1034643D01*
X8029143Y1037793D01*
X8032851Y1039571D01*
X8038033Y1040790D01*
X8054594Y1046784D01*
X8070443Y1054506D01*
X8085378Y1063853D01*
X8099196Y1074724D01*
X8111845Y1087018D01*
X8123072Y1100582D01*
X8132825Y1115263D01*
X8140953Y1130858D01*
X8147354Y1147267D01*
X8151977Y1164285D01*
X8154771Y1181658D01*
X8155736Y1199235D01*
X8154771Y1216863D01*
X8151977Y1234236D01*
X8147354Y1251254D01*
X8140953Y1267663D01*
X8132825Y1283258D01*
X8123072Y1297940D01*
X8111845Y1311503D01*
X8099196Y1323797D01*
X8085378Y1334668D01*
X8070443Y1344015D01*
X8054594Y1351737D01*
X8038033Y1357731D01*
X8031429Y1359306D01*
X8027568Y1361186D01*
X8024875Y1364437D01*
X8023707Y1368501D01*
X8024266Y1372666D01*
X8026552Y1376273D01*
X8033156Y1383080D01*
X8042960Y1395780D01*
X8051241Y1409547D01*
X8055457Y1418742D01*
X7983321Y1418742D01*
X7983321Y1373886D01*
X7982661Y1370177D01*
X7980629Y1366977D01*
X7977631Y1364742D01*
X7973974Y1363776D01*
X7968284Y1363319D01*
X7950962Y1360017D01*
X7934096Y1354937D01*
X7917840Y1348079D01*
X7902448Y1339545D01*
X7888020Y1329436D01*
X7885125Y1327607D01*
X7883652Y1325575D01*
X7874762Y1317853D01*
X7862824Y1304899D01*
X7852308Y1290726D01*
X7843367Y1275588D01*
X7836103Y1259535D01*
X7830566Y1242822D01*
X7826857Y1225600D01*
X7824978Y1208074D01*
X7824978Y1190447D01*
X7826857Y1172921D01*
X7830566Y1155700D01*
X7836103Y1138986D01*
X7843367Y1122934D01*
X7852308Y1107795D01*
X7862824Y1093622D01*
X7874762Y1080668D01*
X7882229Y1074166D01*
X7884312Y1071422D01*
X7888020Y1069086D01*
X7902448Y1058976D01*
X7917840Y1050442D01*
X7934096Y1043584D01*
X7950962Y1038504D01*
X7968284Y1035202D01*
X7973974Y1034745D01*
X7977631Y1033780D01*
X7980629Y1031544D01*
X7982661Y1028344D01*
X7983321Y1024636D01*
G37*
G36*
X9683343Y981303D02*
G01*
X9755581Y981303D01*
X9754768Y983335D01*
X9747300Y997508D01*
X9738258Y1010716D01*
X9727590Y1023010D01*
X9725558Y1026617D01*
X9725152Y1030732D01*
X9726422Y1034643D01*
X9729114Y1037793D01*
X9732873Y1039571D01*
X9738004Y1040790D01*
X9754565Y1046784D01*
X9770414Y1054506D01*
X9785350Y1063853D01*
X9799218Y1074724D01*
X9811816Y1087018D01*
X9823094Y1100582D01*
X9832797Y1115263D01*
X9840925Y1130858D01*
X9847376Y1147267D01*
X9851999Y1164285D01*
X9854793Y1181658D01*
X9855708Y1199235D01*
X9854793Y1216863D01*
X9851999Y1234236D01*
X9847376Y1251254D01*
X9840925Y1267663D01*
X9832797Y1283258D01*
X9823094Y1297940D01*
X9811816Y1311503D01*
X9799218Y1323797D01*
X9785350Y1334668D01*
X9770414Y1344015D01*
X9754565Y1351737D01*
X9738004Y1357731D01*
X9731400Y1359306D01*
X9727590Y1361186D01*
X9724847Y1364437D01*
X9723678Y1368501D01*
X9724288Y1372666D01*
X9726523Y1376273D01*
X9733178Y1383080D01*
X9742932Y1395780D01*
X9751263Y1409547D01*
X9755428Y1418742D01*
X9683343Y1418742D01*
X9683343Y1373886D01*
X9682632Y1370177D01*
X9680651Y1366977D01*
X9677603Y1364742D01*
X9673996Y1363776D01*
X9668256Y1363319D01*
X9650933Y1360017D01*
X9634067Y1354937D01*
X9617862Y1348079D01*
X9602419Y1339545D01*
X9588042Y1329436D01*
X9585147Y1327607D01*
X9583623Y1325575D01*
X9574784Y1317853D01*
X9562795Y1304899D01*
X9552330Y1290726D01*
X9543389Y1275588D01*
X9536074Y1259535D01*
X9530537Y1242822D01*
X9526828Y1225600D01*
X9524949Y1208074D01*
X9524949Y1190447D01*
X9526828Y1172921D01*
X9530537Y1155700D01*
X9536074Y1138986D01*
X9543389Y1122934D01*
X9552330Y1107795D01*
X9562795Y1093622D01*
X9574784Y1080668D01*
X9582251Y1074166D01*
X9584334Y1071422D01*
X9588042Y1069086D01*
X9602419Y1058976D01*
X9617862Y1050442D01*
X9634067Y1043584D01*
X9650933Y1038504D01*
X9668256Y1035202D01*
X9673996Y1034745D01*
X9677603Y1033780D01*
X9680651Y1031544D01*
X9682632Y1028344D01*
X9683343Y1024636D01*
G37*
G36*
X1183335Y981252D02*
G01*
X1255572Y981252D01*
X1254810Y983284D01*
X1247292Y997458D01*
X1238250Y1010716D01*
X1227582Y1023010D01*
X1225600Y1026617D01*
X1225194Y1030732D01*
X1226413Y1034643D01*
X1229156Y1037742D01*
X1232865Y1039520D01*
X1238046Y1040790D01*
X1254607Y1046734D01*
X1270457Y1054455D01*
X1285392Y1063802D01*
X1299210Y1074674D01*
X1311859Y1086967D01*
X1323086Y1100531D01*
X1332839Y1115212D01*
X1340967Y1130858D01*
X1347368Y1147267D01*
X1351991Y1164234D01*
X1354785Y1181658D01*
X1355750Y1199235D01*
X1354785Y1216812D01*
X1351991Y1234236D01*
X1347368Y1251204D01*
X1340967Y1267612D01*
X1332839Y1283258D01*
X1323086Y1297940D01*
X1311859Y1311503D01*
X1299210Y1323797D01*
X1285392Y1334668D01*
X1270457Y1344015D01*
X1254607Y1351737D01*
X1238046Y1357680D01*
X1231442Y1359306D01*
X1227582Y1361135D01*
X1224889Y1364386D01*
X1223721Y1368450D01*
X1224280Y1372666D01*
X1226566Y1376273D01*
X1233170Y1383080D01*
X1242974Y1395780D01*
X1251254Y1409496D01*
X1255471Y1418742D01*
X1183335Y1418742D01*
X1183335Y1373835D01*
X1182674Y1370177D01*
X1180642Y1366977D01*
X1177645Y1364742D01*
X1173988Y1363726D01*
X1168298Y1363268D01*
X1150975Y1360017D01*
X1134110Y1354937D01*
X1117854Y1348079D01*
X1102461Y1339545D01*
X1088034Y1329385D01*
X1085138Y1327556D01*
X1083665Y1325575D01*
X1074775Y1317802D01*
X1062837Y1304848D01*
X1052322Y1290726D01*
X1043381Y1275537D01*
X1036116Y1259484D01*
X1030579Y1242771D01*
X1026871Y1225550D01*
X1024991Y1208024D01*
X1024991Y1190447D01*
X1026871Y1172921D01*
X1030579Y1155700D01*
X1036116Y1138986D01*
X1043381Y1122934D01*
X1052322Y1107744D01*
X1062837Y1093622D01*
X1074775Y1080668D01*
X1082243Y1074115D01*
X1084326Y1071372D01*
X1088034Y1069086D01*
X1102461Y1058926D01*
X1117854Y1050391D01*
X1134110Y1043533D01*
X1150975Y1038453D01*
X1168298Y1035202D01*
X1173988Y1034745D01*
X1177645Y1033729D01*
X1180642Y1031494D01*
X1182674Y1028293D01*
X1183335Y1024636D01*
G37*
G36*
X295249Y109575D02*
G01*
X314248Y110032D01*
X333095Y112369D01*
X351586Y116636D01*
X369620Y122682D01*
X386892Y130454D01*
X403352Y139954D01*
X418795Y151079D01*
X433019Y163626D01*
X445922Y177546D01*
X457403Y192684D01*
X467309Y208889D01*
X475538Y226009D01*
X482041Y243840D01*
X486714Y262229D01*
X489559Y281025D01*
X490524Y299974D01*
X489559Y318973D01*
X486714Y337769D01*
X482041Y356158D01*
X475538Y373989D01*
X467309Y391109D01*
X457403Y407314D01*
X445922Y422452D01*
X433019Y436372D01*
X418795Y448919D01*
X403352Y460044D01*
X386892Y469544D01*
X369620Y477316D01*
X351586Y483362D01*
X333095Y487629D01*
X314248Y489966D01*
X295249Y490423D01*
X276301Y489000D01*
X257606Y485698D01*
X239318Y480568D01*
X221640Y473659D01*
X204774Y464972D01*
X188772Y454659D01*
X173939Y442823D01*
X160375Y429564D01*
X148132Y415035D01*
X137464Y399338D01*
X128371Y382676D01*
X121005Y365150D01*
X115366Y347014D01*
X111607Y328371D01*
X109728Y309473D01*
X109728Y290525D01*
X111607Y271627D01*
X115366Y252984D01*
X121005Y234848D01*
X128371Y217322D01*
X137464Y200660D01*
X148132Y184962D01*
X160375Y170434D01*
X173939Y157175D01*
X188772Y145338D01*
X204774Y135026D01*
X221640Y126339D01*
X239318Y119430D01*
X257606Y114300D01*
X276301Y110998D01*
G37*
G36*
X6283350Y981252D02*
G01*
X6355588Y981252D01*
X6354775Y983284D01*
X6347307Y997458D01*
X6338265Y1010716D01*
X6327597Y1023010D01*
X6325565Y1026617D01*
X6325158Y1030732D01*
X6326428Y1034643D01*
X6329121Y1037742D01*
X6332880Y1039520D01*
X6338011Y1040790D01*
X6354572Y1046734D01*
X6370421Y1054455D01*
X6385356Y1063802D01*
X6399225Y1074674D01*
X6411823Y1086967D01*
X6423101Y1100531D01*
X6432804Y1115212D01*
X6440932Y1130858D01*
X6447383Y1147267D01*
X6452006Y1164234D01*
X6454800Y1181658D01*
X6455714Y1199235D01*
X6454800Y1216812D01*
X6452006Y1234236D01*
X6447383Y1251204D01*
X6440932Y1267612D01*
X6432804Y1283258D01*
X6423101Y1297940D01*
X6411823Y1311503D01*
X6399225Y1323797D01*
X6385356Y1334668D01*
X6370421Y1344015D01*
X6354572Y1351737D01*
X6338011Y1357680D01*
X6331407Y1359306D01*
X6327597Y1361135D01*
X6324854Y1364386D01*
X6323685Y1368450D01*
X6324295Y1372666D01*
X6326530Y1376273D01*
X6333185Y1383080D01*
X6342938Y1395780D01*
X6351270Y1409496D01*
X6355435Y1418742D01*
X6283350Y1418742D01*
X6283350Y1373835D01*
X6282639Y1370177D01*
X6280658Y1366977D01*
X6277610Y1364742D01*
X6274003Y1363726D01*
X6268262Y1363268D01*
X6250940Y1360017D01*
X6234074Y1354937D01*
X6217869Y1348079D01*
X6202426Y1339545D01*
X6188049Y1329385D01*
X6185154Y1327556D01*
X6183630Y1325575D01*
X6174790Y1317802D01*
X6162802Y1304848D01*
X6152337Y1290726D01*
X6143396Y1275537D01*
X6136081Y1259484D01*
X6130544Y1242771D01*
X6126835Y1225550D01*
X6124956Y1208024D01*
X6124956Y1190447D01*
X6126835Y1172921D01*
X6130544Y1155700D01*
X6136081Y1138986D01*
X6143396Y1122934D01*
X6152337Y1107744D01*
X6162802Y1093622D01*
X6174790Y1080668D01*
X6182258Y1074115D01*
X6184341Y1071372D01*
X6188049Y1069086D01*
X6202426Y1058926D01*
X6217869Y1050391D01*
X6234074Y1043533D01*
X6250940Y1038453D01*
X6268262Y1035202D01*
X6274003Y1034745D01*
X6277610Y1033729D01*
X6280658Y1031494D01*
X6282639Y1028293D01*
X6283350Y1024636D01*
G37*
G36*
X4583328Y981252D02*
G01*
X4655566Y981252D01*
X4654804Y983284D01*
X4647285Y997458D01*
X4638243Y1010716D01*
X4627575Y1023010D01*
X4625594Y1026617D01*
X4625187Y1030732D01*
X4626406Y1034643D01*
X4629150Y1037742D01*
X4632858Y1039520D01*
X4638040Y1040790D01*
X4654600Y1046734D01*
X4670450Y1054455D01*
X4685385Y1063802D01*
X4699203Y1074674D01*
X4711852Y1086967D01*
X4723079Y1100531D01*
X4732832Y1115212D01*
X4740960Y1130858D01*
X4747361Y1147267D01*
X4751984Y1164234D01*
X4754778Y1181658D01*
X4755743Y1199235D01*
X4754778Y1216812D01*
X4751984Y1234236D01*
X4747361Y1251204D01*
X4740960Y1267612D01*
X4732832Y1283258D01*
X4723079Y1297940D01*
X4711852Y1311503D01*
X4699203Y1323797D01*
X4685385Y1334668D01*
X4670450Y1344015D01*
X4654600Y1351737D01*
X4638040Y1357680D01*
X4631436Y1359306D01*
X4627575Y1361135D01*
X4624882Y1364386D01*
X4623714Y1368450D01*
X4624273Y1372666D01*
X4626559Y1376273D01*
X4633163Y1383080D01*
X4642967Y1395780D01*
X4651248Y1409496D01*
X4655464Y1418742D01*
X4583328Y1418742D01*
X4583328Y1373835D01*
X4582668Y1370177D01*
X4580636Y1366977D01*
X4577638Y1364742D01*
X4573981Y1363726D01*
X4568291Y1363268D01*
X4550968Y1360017D01*
X4534103Y1354937D01*
X4517847Y1348079D01*
X4502454Y1339545D01*
X4488027Y1329385D01*
X4485132Y1327556D01*
X4483658Y1325575D01*
X4474768Y1317802D01*
X4462830Y1304848D01*
X4452315Y1290726D01*
X4443374Y1275537D01*
X4436110Y1259484D01*
X4430572Y1242771D01*
X4426864Y1225550D01*
X4424984Y1208024D01*
X4424984Y1190447D01*
X4426864Y1172921D01*
X4430572Y1155700D01*
X4436110Y1138986D01*
X4443374Y1122934D01*
X4452315Y1107744D01*
X4462830Y1093622D01*
X4474768Y1080668D01*
X4482236Y1074115D01*
X4484319Y1071372D01*
X4488027Y1069086D01*
X4502454Y1058926D01*
X4517847Y1050391D01*
X4534103Y1043533D01*
X4550968Y1038453D01*
X4568291Y1035202D01*
X4573981Y1034745D01*
X4577638Y1033729D01*
X4580636Y1031494D01*
X4582668Y1028293D01*
X4583328Y1024636D01*
G37*
G36*
X2883357Y981252D02*
G01*
X2955594Y981252D01*
X2954782Y983284D01*
X2947314Y997458D01*
X2938272Y1010716D01*
X2927604Y1023010D01*
X2925572Y1026617D01*
X2925165Y1030732D01*
X2926435Y1034643D01*
X2929128Y1037742D01*
X2932887Y1039520D01*
X2938018Y1040790D01*
X2954578Y1046734D01*
X2970428Y1054455D01*
X2985363Y1063802D01*
X2999232Y1074674D01*
X3011830Y1086967D01*
X3023108Y1100531D01*
X3032810Y1115212D01*
X3040938Y1130858D01*
X3047390Y1147267D01*
X3052013Y1164234D01*
X3054807Y1181658D01*
X3055721Y1199235D01*
X3054807Y1216812D01*
X3052013Y1234236D01*
X3047390Y1251204D01*
X3040938Y1267612D01*
X3032810Y1283258D01*
X3023108Y1297940D01*
X3011830Y1311503D01*
X2999232Y1323797D01*
X2985363Y1334668D01*
X2970428Y1344015D01*
X2954578Y1351737D01*
X2938018Y1357680D01*
X2931414Y1359306D01*
X2927604Y1361135D01*
X2924860Y1364386D01*
X2923692Y1368450D01*
X2924302Y1372666D01*
X2926537Y1376273D01*
X2933192Y1383080D01*
X2942945Y1395780D01*
X2951276Y1409496D01*
X2955442Y1418742D01*
X2883357Y1418742D01*
X2883357Y1373835D01*
X2882646Y1370177D01*
X2880664Y1366977D01*
X2877616Y1364742D01*
X2874010Y1363726D01*
X2868269Y1363268D01*
X2850946Y1360017D01*
X2834081Y1354937D01*
X2817876Y1348079D01*
X2802432Y1339545D01*
X2788056Y1329385D01*
X2785160Y1327556D01*
X2783636Y1325575D01*
X2774797Y1317802D01*
X2762808Y1304848D01*
X2752344Y1290726D01*
X2743403Y1275537D01*
X2736088Y1259484D01*
X2730550Y1242771D01*
X2726842Y1225550D01*
X2724962Y1208024D01*
X2724962Y1190447D01*
X2726842Y1172921D01*
X2730550Y1155700D01*
X2736088Y1138986D01*
X2743403Y1122934D01*
X2752344Y1107744D01*
X2762808Y1093622D01*
X2774797Y1080668D01*
X2782265Y1074115D01*
X2784348Y1071372D01*
X2788056Y1069086D01*
X2802432Y1058926D01*
X2817876Y1050391D01*
X2834081Y1043533D01*
X2850946Y1038453D01*
X2868269Y1035202D01*
X2874010Y1034745D01*
X2877616Y1033729D01*
X2880664Y1031494D01*
X2882646Y1028293D01*
X2883357Y1024636D01*
G37*

%LPD*%
D10*
X11072972Y300009D02*
G01*
X11072972Y924951D01*
X10458343Y1469958D02*
G01*
X9522378Y2405898D01*
X7156089Y2405898D01*
X6861982Y2700004D01*
X11072972Y924951D02*
G01*
X11003325Y924951D01*
X10458343Y1469958D01*
X10458343Y1469958D02*
G01*
X11113231Y2124847D01*
X9372975Y300009D02*
G01*
X9372975Y924951D01*
X9372975Y924951D02*
G01*
X9060505Y924951D01*
X7743311Y2242144D01*
X7065843Y2242144D01*
X6607982Y2700004D01*
X7672979Y300009D02*
G01*
X7672979Y924951D01*
X6353982Y2700004D02*
G01*
X6353982Y2163480D01*
X7592512Y924951D01*
X7672979Y924951D01*
X5972982Y1475089D02*
G01*
X5972982Y1766351D01*
X6180805Y1974174D01*
X5972982Y300009D02*
G01*
X5972982Y924925D01*
X6099982Y2700004D02*
G01*
X5712810Y2312832D01*
X5712810Y1117178D01*
X5905063Y924925D01*
X5972982Y924925D01*
X2573497Y300009D02*
G01*
X2572989Y300517D01*
X2572989Y924925D01*
X2572989Y924925D02*
G01*
X2499431Y924925D01*
X2300828Y1123528D01*
X2300828Y1890913D01*
X2534762Y2124847D01*
X2573497Y300009D02*
G01*
X2823611Y550123D01*
X2959450Y550123D01*
X4595286Y2185959D01*
X5144637Y2185959D01*
X5591982Y2633304D01*
X5591982Y2700004D01*
X872992Y924925D02*
G01*
X787725Y924925D01*
X610814Y1101836D01*
X610814Y1854692D01*
X880968Y2124847D01*
X5103134Y2286111D02*
G01*
X5083982Y2305263D01*
X5083982Y2700004D01*
X5845982Y2700004D02*
G01*
X4933157Y1787179D01*
X4933157Y851773D01*
X4692238Y610854D01*
X4272986Y610854D01*
X4269074Y300009D02*
G01*
X4272986Y303921D01*
X4272986Y610854D01*
X4272986Y610854D02*
G01*
X4272986Y924925D01*
D11*
G01*
X4272991Y924915D03*
G01*
X4272991Y1475079D03*
G01*
X4526991Y924915D03*
G01*
X4526991Y1475079D03*
G01*
X872997Y924915D03*
G01*
X872997Y1475079D03*
G01*
X1126997Y924915D03*
G01*
X1126997Y1475079D03*
G01*
X2572994Y924915D03*
G01*
X2572994Y1475079D03*
G01*
X2826994Y924915D03*
G01*
X2826994Y1475079D03*
G01*
X5972987Y924915D03*
G01*
X5972987Y1475079D03*
G01*
X6226987Y924915D03*
G01*
X6226987Y1475079D03*
G01*
X7672984Y924940D03*
G01*
X7672984Y1475104D03*
G01*
X7926984Y924940D03*
G01*
X7926984Y1475104D03*
G01*
X9372981Y924940D03*
G01*
X9372981Y1475104D03*
G01*
X9626981Y924940D03*
G01*
X9626981Y1475104D03*
G01*
X11072977Y924940D03*
G01*
X11072977Y1475104D03*
G01*
X11326977Y924940D03*
G01*
X11326977Y1475104D03*
D12*
G01*
X5083987Y2699994D03*
D13*
G01*
X5337987Y2699994D03*
G01*
X5591987Y2699994D03*
G01*
X5845987Y2699994D03*
G01*
X6099987Y2699994D03*
G01*
X6353987Y2699994D03*
G01*
X6607987Y2699994D03*
G01*
X6861987Y2699994D03*
G01*
X7115987Y2699994D03*
D14*
G01*
X873505Y299999D03*
G01*
X1127505Y299999D03*
G01*
X2573502Y299999D03*
G01*
X2827502Y299999D03*
G01*
X4269079Y299999D03*
G01*
X4523104Y299999D03*
G01*
X5972987Y299999D03*
G01*
X6226987Y299999D03*
G01*
X7672984Y299999D03*
G01*
X7926984Y299999D03*
G01*
X9372981Y299999D03*
G01*
X9626981Y299999D03*
G01*
X11072977Y299999D03*
G01*
X11326977Y299999D03*
D10*
G01*
X5103134Y2286111D03*
G01*
X880968Y2124847D03*
G01*
X2534762Y2124847D03*
G01*
X6180805Y1974174D03*
G01*
X11113231Y2124847D03*
M02*
