M48
METRIC,LZ,000.000
;FILE_FORMAT=3:3
;TYPE=PLATED
;Layer: PTH_Through_Via
;EasyEDA v6.5.22, 2022-12-10 21:12:04
;e12cfe8ce6ad4c4799b389a6830ee86a,10
;Gerber Generator version 0.2
;Holesize 1 = 0.400 mm
T01C0.400
%
G05
G90
T01
X053206Y019700
X100267Y007236
X107959Y010183
X136922Y068432
X135907Y055946
X145361Y054945
X114584Y068206
X112008Y041270
X087578Y001358
X095542Y029404
X068698Y020909
X063219Y027881
X077965Y058068
X107677Y069596
X135708Y072891
X100278Y019225
X100278Y009906
X104973Y004219
X104077Y008423
X098612Y034570
X089272Y027981
X095706Y012901
X101563Y034699
X097402Y014197
X144636Y061475
X143697Y057238
X143917Y054917
X132133Y054917
X134127Y053131
X065095Y045996
X089508Y057922
X090630Y059044
X099257Y016062
X095751Y022566
X102100Y021602
X100752Y028422
X098999Y028422
M30
