M48
METRIC,LZ,000.000
;FILE_FORMAT=3:3
;TYPE=PLATED
;Layer: PTH_Through
;EasyEDA v6.5.22, 2022-12-10 21:12:04
;e12cfe8ce6ad4c4799b389a6830ee86a,10
;Gerber Generator version 0.2
;Holesize 1 = 0.712 mm
T01C0.712
;Holesize 2 = 0.889 mm
T02C0.889
;Holesize 3 = 0.901 mm
T03C0.901
;Holesize 4 = 0.915 mm
T04C0.915
;Holesize 5 = 1.000 mm
T05C1.000
;Holesize 6 = 1.200 mm
T06C1.200
%
G05
G90
T01
X016730Y066000
X019270Y066000
X055000Y047730
X055000Y050270
X019270Y043000
X016730Y043000
X055000Y025730
X055000Y028270
X019270Y020000
X016730Y020000
X055000Y003730
X055000Y006270
T02
X139810Y003000
X137270Y003000
X134730Y003000
X132190Y003000
X089380Y077000
X091920Y077000
X094460Y077000
X097000Y077000
X099540Y077000
X102080Y077000
X102080Y003000
X099540Y003000
X097000Y003000
X094460Y003000
X091920Y003000
X089380Y003000
X063840Y003000
X066380Y003000
X068920Y003000
X071460Y003000
X074000Y003000
X076540Y003000
X079080Y003000
X081620Y003000
X081620Y018240
X079080Y018240
X076540Y018240
X074000Y018240
X071460Y018240
X068920Y018240
X066380Y018240
X063840Y018240
X081620Y077000
X079080Y077000
X076540Y077000
X074000Y077000
X071460Y077000
X068920Y077000
X066380Y077000
X063840Y077000
X063840Y061760
X066380Y061760
X068920Y061760
X071460Y061760
X074000Y061760
X076540Y061760
X079080Y061760
X081620Y061760
X108000Y062540
X108000Y060000
X105460Y062540
X105460Y060000
X102920Y062540
X102920Y060000
X102920Y017460
X102920Y020000
X105460Y017460
X105460Y020000
X108000Y017460
X108000Y020000
X129080Y075540
X129080Y073000
X126540Y075540
X126540Y073000
X124000Y075540
X124000Y073000
X147000Y068160
X147000Y065620
X147000Y063080
X147000Y060540
X147000Y058000
X147000Y055460
X147000Y052920
X147000Y050380
X147000Y047840
X089460Y069500
X092000Y069500
X094540Y069500
X089460Y010500
X092000Y010500
X094540Y010500
T03
X096510Y056000
X093970Y056000
X091430Y056000
X088890Y056000
X086350Y056000
X083810Y056000
X081270Y056000
X078730Y056000
X076190Y056000
X073650Y056000
X071110Y056000
X068570Y056000
X066030Y056000
X063490Y056000
X096510Y048000
X093970Y048000
X091430Y048000
X088890Y048000
X086350Y048000
X083810Y048000
X081270Y048000
X078730Y048000
X076190Y048000
X073650Y048000
X071110Y048000
X068570Y048000
X066030Y048000
X063490Y048000
X096510Y032000
X093970Y032000
X091430Y032000
X088890Y032000
X086350Y032000
X083810Y032000
X081270Y032000
X078730Y032000
X076190Y032000
X073650Y032000
X071110Y032000
X068570Y032000
X066030Y032000
X063490Y032000
X096510Y024000
X093970Y024000
X091430Y024000
X088890Y024000
X086350Y024000
X083810Y024000
X081270Y024000
X078730Y024000
X076190Y024000
X073650Y024000
X071110Y024000
X068570Y024000
X066030Y024000
X063490Y024000
T04
X147000Y035000
X147000Y032460
X147000Y029920
X147000Y027380
X147000Y024840
X147000Y022300
X147000Y019760
T05
X020540Y054000
X015460Y054000
X015460Y031000
X020540Y031000
X015460Y008000
X020540Y008000
X030000Y074750
X030000Y071250
X042000Y074750
X042000Y071250
X054000Y074750
X054000Y071250
X114380Y018410
X114380Y023490
X114380Y020950
X114380Y033650
X114380Y043810
X114380Y046350
X114380Y048890
X114380Y051430
X114380Y053970
X114380Y056510
X114380Y059050
X114380Y061590
X114380Y064130
X114380Y041270
X114380Y036190
X114380Y038730
X114380Y031110
X114380Y026030
X114380Y028570
X114380Y015870
X129620Y061590
X129620Y064130
X129620Y059050
X129620Y056510
X129620Y026030
X129620Y028570
X129620Y031110
X129620Y033650
X129620Y023490
X129620Y020950
X129620Y018410
X129620Y015870
X129620Y043810
X129620Y041270
X129620Y038730
X129620Y036190
X129620Y046350
X129620Y048890
X129620Y051430
X129620Y053970
T06
X010100Y064100G85X010100Y066600
X003900Y066600G85X003900Y064100
X005850Y060650G85X008350Y060650
X010100Y017100G85X010100Y019600
X003900Y019600G85X003900Y017100
X005850Y013650G85X008350Y013650
M30
