G04 Layer: TopPasteMaskLayer*
G04 EasyEDA v6.5.22, 2022-12-10 21:12:04*
G04 e12cfe8ce6ad4c4799b389a6830ee86a,10*
G04 Gerber Generator version 0.2*
G04 Scale: 100 percent, Rotated: No, Reflected: No *
G04 Dimensions in millimeters *
G04 leading zeros omitted , absolute positions ,4 integer and 5 decimal *
%FSLAX45Y45*%
%MOMM*%

%AMMACRO1*21,1,$1,$2,0,0,$3*%
%ADD10R,2.4000X2.0000*%
%ADD11R,2.0000X2.4000*%
%ADD12R,1.7000X1.6000*%
%ADD13R,1.4000X1.5000*%
%ADD14R,4.0000X6.0000*%
%ADD15R,11.0000X9.0000*%
%ADD16MACRO1,1.02X3.3585X0.0000*%
%ADD17R,0.9000X0.8000*%
%ADD18R,0.8000X0.9000*%
%ADD19R,5.0000X1.5000*%
%ADD20R,5.0000X1.3000*%
%ADD21R,1.5000X5.0000*%
%ADD22R,1.3000X5.0000*%

%LPD*%
G36*
X10376001Y7028586D02*
G01*
X10370972Y7023608D01*
X10370972Y6895592D01*
X10376001Y6890613D01*
X10491012Y6890613D01*
X10495991Y6895592D01*
X10495483Y6937603D01*
X10451490Y6937603D01*
X10451490Y6982612D01*
X10496499Y6982612D01*
X10495991Y7023608D01*
X10491012Y7028586D01*
G37*
G36*
X10590987Y7028586D02*
G01*
X10586008Y7023608D01*
X10586516Y6982612D01*
X10630509Y6982612D01*
X10630509Y6937603D01*
X10586008Y6937603D01*
X10586008Y6895592D01*
X10590987Y6890613D01*
X10705998Y6890613D01*
X10710976Y6895592D01*
X10710976Y7023608D01*
X10705998Y7028586D01*
G37*
G36*
X10590987Y1059586D02*
G01*
X10586008Y1054608D01*
X10586516Y1012596D01*
X10630509Y1012596D01*
X10630509Y967587D01*
X10585500Y967587D01*
X10586008Y926592D01*
X10590987Y921613D01*
X10705998Y921613D01*
X10711027Y926592D01*
X10711027Y1054608D01*
X10705998Y1059586D01*
G37*
G36*
X10376001Y1059586D02*
G01*
X10371023Y1054608D01*
X10371023Y926592D01*
X10376001Y921613D01*
X10491012Y921613D01*
X10495991Y926592D01*
X10495483Y967587D01*
X10451490Y967587D01*
X10451490Y1012596D01*
X10495991Y1012596D01*
X10495991Y1054608D01*
X10491012Y1059586D01*
G37*
G36*
X13627201Y7053986D02*
G01*
X13622172Y7049008D01*
X13622172Y6920992D01*
X13627201Y6916013D01*
X13742212Y6916013D01*
X13747191Y6920992D01*
X13746683Y6963003D01*
X13702690Y6963003D01*
X13702690Y7008012D01*
X13747699Y7008012D01*
X13747191Y7049008D01*
X13742212Y7053986D01*
G37*
G36*
X13842187Y7053986D02*
G01*
X13837208Y7049008D01*
X13837716Y7008012D01*
X13881709Y7008012D01*
X13881709Y6963003D01*
X13837208Y6963003D01*
X13837208Y6920992D01*
X13842187Y6916013D01*
X13957198Y6916013D01*
X13962176Y6920992D01*
X13962176Y7049008D01*
X13957198Y7053986D01*
G37*
G36*
X13776960Y3255517D02*
G01*
X13735964Y3255010D01*
X13730986Y3249980D01*
X13730986Y3134969D01*
X13735964Y3129991D01*
X13863980Y3129991D01*
X13868958Y3134969D01*
X13868958Y3249980D01*
X13863980Y3255010D01*
X13821968Y3254502D01*
X13821968Y3210509D01*
X13776960Y3210509D01*
G37*
G36*
X13735964Y3469995D02*
G01*
X13730986Y3464966D01*
X13730986Y3350006D01*
X13735964Y3344976D01*
X13776960Y3345484D01*
X13776960Y3389477D01*
X13821968Y3389477D01*
X13821968Y3344976D01*
X13863980Y3344976D01*
X13868958Y3350006D01*
X13868958Y3464966D01*
X13863980Y3469995D01*
G37*
G36*
X13776960Y2155494D02*
G01*
X13735964Y2154986D01*
X13730986Y2150008D01*
X13730986Y2034997D01*
X13735964Y2029968D01*
X13863980Y2029968D01*
X13868958Y2034997D01*
X13868958Y2150008D01*
X13863980Y2154986D01*
X13821968Y2154478D01*
X13821968Y2110486D01*
X13776960Y2110486D01*
G37*
G36*
X13735964Y2369972D02*
G01*
X13730986Y2364994D01*
X13730986Y2249982D01*
X13735964Y2245004D01*
X13776960Y2245512D01*
X13776960Y2289505D01*
X13821968Y2289505D01*
X13821968Y2245004D01*
X13863980Y2245004D01*
X13868958Y2249982D01*
X13868958Y2364994D01*
X13863980Y2369972D01*
G37*
D10*
G01*
X399999Y2959988D03*
G01*
X399999Y3439972D03*
D11*
G01*
X1559991Y7499985D03*
G01*
X2039975Y7499985D03*
D12*
G01*
X4499990Y4703978D03*
G01*
X4499990Y5095976D03*
G01*
X4499990Y2503982D03*
G01*
X4499990Y2895980D03*
G01*
X4499990Y303987D03*
G01*
X4499990Y695985D03*
D13*
G01*
X10919993Y7699984D03*
G01*
X11679961Y7699984D03*
G01*
X13419988Y7699982D03*
G01*
X14179956Y7699982D03*
D14*
G01*
X4474997Y5999987D03*
G01*
X5524982Y5999987D03*
G01*
X4474997Y3799992D03*
G01*
X5524982Y3799992D03*
G01*
X4474997Y1599996D03*
G01*
X5524982Y1599996D03*
D15*
G01*
X3199993Y6018326D03*
D16*
G01*
X3539994Y4981661D03*
G01*
X3369993Y4981661D03*
G01*
X3199993Y4981661D03*
G01*
X3029993Y4981661D03*
G01*
X2859993Y4981661D03*
D15*
G01*
X3199993Y3818331D03*
D16*
G01*
X3539994Y2781665D03*
G01*
X3369993Y2781665D03*
G01*
X3199993Y2781665D03*
G01*
X3029993Y2781665D03*
G01*
X2859993Y2781665D03*
D15*
G01*
X3199993Y1618335D03*
D16*
G01*
X3539994Y581670D03*
G01*
X3369993Y581670D03*
G01*
X3199993Y581670D03*
G01*
X3029993Y581670D03*
G01*
X2859993Y581670D03*
D17*
G01*
X8902700Y3822854D03*
G01*
X8902700Y3682850D03*
G01*
X8407400Y3822852D03*
G01*
X8407400Y3682847D03*
G01*
X7264400Y4159097D03*
G01*
X7264400Y4299102D03*
G01*
X6705600Y4159097D03*
G01*
X6705600Y4299102D03*
D18*
G01*
X10407802Y4182998D03*
G01*
X10267797Y4182998D03*
G01*
X10407802Y3657600D03*
G01*
X10267797Y3657600D03*
D19*
G01*
X9065996Y4299991D03*
D20*
G01*
X8206003Y4299991D03*
D19*
G01*
X7429982Y3699992D03*
D20*
G01*
X6569989Y3699992D03*
D21*
G01*
X10883900Y4341596D03*
D22*
G01*
X10883900Y3481603D03*
D13*
G01*
X11679961Y299999D03*
G01*
X10919993Y299999D03*
M02*
