G04 Layer: TopSolderMaskLayer*
G04 EasyEDA v6.5.22, 2022-12-10 21:12:04*
G04 e12cfe8ce6ad4c4799b389a6830ee86a,10*
G04 Gerber Generator version 0.2*
G04 Scale: 100 percent, Rotated: No, Reflected: No *
G04 Dimensions in millimeters *
G04 leading zeros omitted , absolute positions ,4 integer and 5 decimal *
%FSLAX45Y45*%
%MOMM*%

%AMMACRO1*1,1,$1,$2,$3*1,1,$1,$4,$5*1,1,$1,0-$2,0-$3*1,1,$1,0-$4,0-$5*20,1,$1,$2,$3,$4,$5,0*20,1,$1,$4,$5,0-$2,0-$3,0*20,1,$1,0-$2,0-$3,0-$4,0-$5,0*20,1,$1,0-$4,0-$5,$2,$3,0*4,1,4,$2,$3,$4,$5,0-$2,0-$3,0-$4,0-$5,$2,$3,0*%
%ADD10O,2.101596X4.701590799999999*%
%ADD11O,4.701590799999999X2.101596*%
%ADD12MACRO1,0.1016X1.2X1X1.2X-1*%
%ADD13MACRO1,0.1016X0.7874X-0.7874X-0.7874X-0.7874*%
%ADD14C,1.6764*%
%ADD15C,1.7016*%
%ADD16C,1.2954*%
%ADD17MACRO1,0.1016X1X-1.2X-1X-1.2*%
%ADD18MACRO1,0.1016X-0.85X-0.8X-0.85X0.8*%
%ADD19MACRO1,0.1016X-0.7874X0.7874X0.7874X0.7874*%
%ADD20MACRO1,0.1016X-0.7X-0.75X-0.7X0.75*%
%ADD21MACRO1,0.1016X-2X3X2X3*%
%ADD22MACRO1,0.1016X5.5X4.5X5.5X-4.5*%
%ADD23MACRO1,0.1016X0.51X1.6793X-0.51X1.6793*%
%ADD24C,1.6256*%
%ADD25MACRO1,0.1016X-0.7874X-0.7874X-0.7874X0.7874*%
%ADD26MACRO1,0.1016X-0.45X-0.4X-0.45X0.4*%
%ADD27MACRO1,0.1016X0.45X0.4X0.45X-0.4*%
%ADD28MACRO1,0.1016X-0.4X0.45X0.4X0.45*%
%ADD29C,1.9016*%
%ADD30MACRO1,0.1016X0.9X0.9X0.9X-0.9*%
%ADD31MACRO1,0.1016X0.75X0.75X0.75X-0.75*%
%ADD32C,1.6016*%
%ADD33MACRO1,0.1016X-2.5X0.75X2.5X0.75*%
%ADD34MACRO1,0.1016X-2.5X0.65X2.5X0.65*%
%ADD35MACRO1,0.1016X-0.75X-2.5X-0.75X2.5*%
%ADD36MACRO1,0.1016X-0.65X-2.5X-0.65X2.5*%
%ADD37MACRO1,0.1016X0.7X0.75X0.7X-0.75*%
%ADD38MACRO1,0.1016X-0.5663X-0.6885X-0.5663X0.6885*%
%ADD39MACRO1,0.1016X0.5663X-0.6885X0.5663X0.6885*%
%ADD40MACRO1,0.1016X0.5663X0.6885X0.5663X-0.6885*%
%ADD41MACRO1,0.1016X-0.5663X0.6885X-0.5663X-0.6885*%
%ADD42MACRO1,0.1016X0.6885X-0.5663X-0.6885X-0.5663*%
%ADD43MACRO1,0.1016X0.6885X0.5663X-0.6885X0.5663*%
%ADD44C,0.0142*%

%LPD*%
D10*
G01*
X1009980Y6534962D03*
G01*
X390017Y6534988D03*
D11*
G01*
X710006Y6064961D03*
D10*
G01*
X1009980Y1834972D03*
G01*
X390017Y1834997D03*
D11*
G01*
X710006Y1364970D03*
D12*
G01*
X399991Y2959997D03*
G01*
X399991Y3439981D03*
D13*
G01*
X13980972Y299999D03*
D14*
G01*
X13726972Y299999D03*
G01*
X13472972Y299999D03*
G01*
X13218972Y299999D03*
D15*
G01*
X2053996Y5399989D03*
G01*
X1545996Y5399989D03*
G01*
X1545996Y3099993D03*
G01*
X2053996Y3099993D03*
G01*
X1545996Y799998D03*
G01*
X2053996Y799998D03*
D16*
G01*
X1672996Y6599986D03*
G01*
X1926996Y6599986D03*
G01*
X5499988Y4772990D03*
G01*
X5499988Y5026990D03*
G01*
X1926996Y4299991D03*
G01*
X1672996Y4299991D03*
G01*
X5499988Y2572994D03*
G01*
X5499988Y2826994D03*
G01*
X1926996Y1999995D03*
G01*
X1672996Y1999995D03*
G01*
X5499988Y372998D03*
G01*
X5499988Y626998D03*
D15*
G01*
X2999993Y7474991D03*
G01*
X2999993Y7124979D03*
G01*
X4199991Y7474991D03*
G01*
X4199991Y7124979D03*
G01*
X5399989Y7474991D03*
G01*
X5399989Y7124979D03*
D17*
G01*
X1560000Y7499992D03*
G01*
X2039984Y7499992D03*
D18*
G01*
X4499990Y4703991D03*
G01*
X4499990Y5095989D03*
G01*
X4499990Y2503995D03*
G01*
X4499990Y2895993D03*
G01*
X4499990Y303999D03*
G01*
X4499990Y695998D03*
D14*
G01*
X8937980Y7699984D03*
G01*
X9191980Y7699984D03*
G01*
X9445980Y7699984D03*
G01*
X9699980Y7699984D03*
G01*
X9953980Y7699984D03*
D13*
G01*
X10207980Y7699984D03*
D14*
G01*
X10207980Y299999D03*
G01*
X9953980Y299999D03*
G01*
X9699980Y299999D03*
G01*
X9445980Y299999D03*
G01*
X9191980Y299999D03*
D19*
G01*
X8937980Y299999D03*
G01*
X6383985Y299999D03*
D14*
G01*
X6637985Y299999D03*
G01*
X6891985Y299999D03*
G01*
X7145985Y299999D03*
G01*
X7399985Y299999D03*
G01*
X7653985Y299999D03*
G01*
X7907985Y299999D03*
G01*
X8161985Y299999D03*
D13*
G01*
X8161985Y1823996D03*
D14*
G01*
X7907985Y1823999D03*
G01*
X7653985Y1823999D03*
G01*
X7399985Y1823999D03*
G01*
X7145985Y1823999D03*
G01*
X6891985Y1823999D03*
G01*
X6637985Y1823999D03*
G01*
X6383985Y1823999D03*
D13*
G01*
X8161985Y7699984D03*
D14*
G01*
X7907985Y7699984D03*
G01*
X7653985Y7699984D03*
G01*
X7399985Y7699984D03*
G01*
X7145985Y7699984D03*
G01*
X6891985Y7699984D03*
G01*
X6637985Y7699984D03*
G01*
X6383985Y7699984D03*
D19*
G01*
X6383985Y6175987D03*
D14*
G01*
X6637985Y6175984D03*
G01*
X6891985Y6175984D03*
G01*
X7145985Y6175984D03*
G01*
X7399985Y6175984D03*
G01*
X7653985Y6175984D03*
G01*
X7907985Y6175984D03*
G01*
X8161985Y6175984D03*
D20*
G01*
X10919985Y7699983D03*
G01*
X11679971Y7699983D03*
G01*
X13419980Y7699980D03*
G01*
X14179966Y7699980D03*
D21*
G01*
X4474991Y5999988D03*
G01*
X5524988Y5999988D03*
G01*
X4474991Y3799992D03*
G01*
X5524988Y3799992D03*
G01*
X4474991Y1599996D03*
G01*
X5524988Y1599996D03*
D22*
G01*
X3199993Y6018326D03*
D23*
G01*
X3539994Y4981661D03*
G01*
X3369993Y4981661D03*
G01*
X3199993Y4981661D03*
G01*
X3029993Y4981661D03*
G01*
X2859993Y4981661D03*
D22*
G01*
X3199993Y3818331D03*
D23*
G01*
X3539994Y2781665D03*
G01*
X3369993Y2781665D03*
G01*
X3199993Y2781665D03*
G01*
X3029993Y2781665D03*
G01*
X2859993Y2781665D03*
D22*
G01*
X3199993Y1618335D03*
D23*
G01*
X3539994Y581670D03*
G01*
X3369993Y581670D03*
G01*
X3199993Y581670D03*
G01*
X3029993Y581670D03*
G01*
X2859993Y581670D03*
D14*
G01*
X10799978Y6253962D03*
G01*
X10799978Y5999962D03*
G01*
X10545978Y6253962D03*
G01*
X10545978Y5999962D03*
G01*
X10291978Y6253962D03*
D19*
G01*
X10291978Y5999988D03*
D14*
G01*
X10291978Y1745995D03*
G01*
X10291978Y1999995D03*
G01*
X10545978Y1745995D03*
G01*
X10545978Y1999995D03*
G01*
X10799978Y1745995D03*
D13*
G01*
X10799978Y1999996D03*
D14*
G01*
X12908000Y7553985D03*
G01*
X12908000Y7299985D03*
G01*
X12654000Y7553985D03*
G01*
X12654000Y7299985D03*
G01*
X12400000Y7553985D03*
D19*
G01*
X12399975Y7299985D03*
D24*
G01*
X14699970Y3499993D03*
G01*
X14699970Y3245993D03*
G01*
X14699970Y2991993D03*
G01*
X14699970Y2737993D03*
G01*
X14699970Y2483993D03*
G01*
X14699970Y2229993D03*
G01*
X14699970Y1975993D03*
D14*
G01*
X14699970Y6815988D03*
G01*
X14699970Y6561988D03*
G01*
X14699970Y6307988D03*
G01*
X14699970Y6053988D03*
G01*
X14699970Y5799988D03*
G01*
X14699970Y5545988D03*
G01*
X14699970Y5291988D03*
G01*
X14699970Y5037988D03*
D25*
G01*
X14699970Y4783988D03*
D26*
G01*
X8902700Y3822852D03*
G01*
X8902700Y3682852D03*
G01*
X8407400Y3822849D03*
G01*
X8407400Y3682850D03*
D27*
G01*
X7264400Y4159100D03*
G01*
X7264400Y4299099D03*
G01*
X6705600Y4159100D03*
G01*
X6705600Y4299099D03*
D28*
G01*
X10407799Y4182999D03*
G01*
X10267800Y4182999D03*
G01*
X10407799Y3657600D03*
G01*
X10267800Y3657600D03*
D14*
G01*
X8945981Y6949973D03*
G01*
X9199981Y6949973D03*
D13*
G01*
X9453981Y6949986D03*
D14*
G01*
X8945981Y1050010D03*
G01*
X9199981Y1050010D03*
D13*
G01*
X9453984Y1049997D03*
D29*
G01*
X11437975Y1840992D03*
G01*
X11437975Y2348992D03*
G01*
X11437975Y2094992D03*
G01*
X11437975Y3364992D03*
G01*
X11437975Y4380992D03*
G01*
X11437975Y4634992D03*
G01*
X11437975Y4888992D03*
G01*
X11437975Y5142992D03*
G01*
X11437975Y5396992D03*
G01*
X11437975Y5650992D03*
G01*
X11437975Y5904992D03*
G01*
X11437975Y6158992D03*
D30*
G01*
X11437975Y6412992D03*
D29*
G01*
X11437975Y4126992D03*
G01*
X11437975Y3618992D03*
G01*
X11437975Y3872992D03*
G01*
X11437975Y3110992D03*
G01*
X11437975Y2602992D03*
G01*
X11437975Y2856992D03*
G01*
X11437975Y1586992D03*
G01*
X12961975Y6158992D03*
G01*
X12961975Y6412992D03*
G01*
X12961975Y5904992D03*
G01*
X12961975Y5650992D03*
G01*
X12961975Y2602992D03*
G01*
X12961975Y2856992D03*
G01*
X12961975Y3110992D03*
G01*
X12961975Y3364992D03*
G01*
X12961975Y2348992D03*
G01*
X12961975Y2094992D03*
G01*
X12961975Y1840992D03*
G01*
X12961975Y1586992D03*
G01*
X12961975Y4380992D03*
G01*
X12961975Y4126992D03*
G01*
X12961975Y3872992D03*
G01*
X12961975Y3618992D03*
G01*
X12961975Y4634992D03*
G01*
X12961975Y4888992D03*
G01*
X12961975Y5142992D03*
G01*
X12961975Y5396992D03*
D31*
G01*
X9650984Y5599988D03*
D32*
G01*
X9396984Y5599988D03*
G01*
X9142984Y5599988D03*
G01*
X8888984Y5599988D03*
G01*
X8634984Y5599988D03*
G01*
X8380984Y5599988D03*
G01*
X8126984Y5599988D03*
G01*
X7872984Y5599988D03*
G01*
X7618984Y5599988D03*
G01*
X7364984Y5599988D03*
G01*
X7110984Y5599988D03*
G01*
X6856984Y5599988D03*
G01*
X6602984Y5599988D03*
G01*
X6348984Y5599988D03*
G01*
X9650984Y4799990D03*
G01*
X9396984Y4799990D03*
G01*
X9142984Y4799990D03*
G01*
X8888984Y4799990D03*
G01*
X8634984Y4799990D03*
G01*
X8380984Y4799990D03*
G01*
X8126984Y4799990D03*
G01*
X7872984Y4799990D03*
G01*
X7618984Y4799990D03*
G01*
X7364984Y4799990D03*
G01*
X7110984Y4799990D03*
G01*
X6856984Y4799990D03*
G01*
X6602984Y4799990D03*
G01*
X6348984Y4799990D03*
D31*
G01*
X9650984Y3199993D03*
D32*
G01*
X9396984Y3199993D03*
G01*
X9142984Y3199993D03*
G01*
X8888984Y3199993D03*
G01*
X8634984Y3199993D03*
G01*
X8380984Y3199993D03*
G01*
X8126984Y3199993D03*
G01*
X7872984Y3199993D03*
G01*
X7618984Y3199993D03*
G01*
X7364984Y3199993D03*
G01*
X7110984Y3199993D03*
G01*
X6856984Y3199993D03*
G01*
X6602984Y3199993D03*
G01*
X6348984Y3199993D03*
G01*
X9650984Y2399995D03*
G01*
X9396984Y2399995D03*
G01*
X9142984Y2399995D03*
G01*
X8888984Y2399995D03*
G01*
X8634984Y2399995D03*
G01*
X8380984Y2399995D03*
G01*
X8126984Y2399995D03*
G01*
X7872984Y2399995D03*
G01*
X7618984Y2399995D03*
G01*
X7364984Y2399995D03*
G01*
X7110984Y2399995D03*
G01*
X6856984Y2399995D03*
G01*
X6602984Y2399995D03*
G01*
X6348984Y2399995D03*
D33*
G01*
X9066000Y4299991D03*
D34*
G01*
X8205999Y4299990D03*
D33*
G01*
X7429986Y3699992D03*
D34*
G01*
X6569985Y3699991D03*
D35*
G01*
X10883900Y4341600D03*
D36*
G01*
X10883901Y3481599D03*
D37*
G01*
X11679969Y300000D03*
G01*
X10919983Y300000D03*
D38*
G01*
X10641004Y6959600D03*
D39*
G01*
X10440995Y6959600D03*
D40*
G01*
X10440995Y990600D03*
D41*
G01*
X10641004Y990600D03*
D38*
G01*
X13892204Y6985000D03*
D39*
G01*
X13692195Y6985000D03*
D42*
G01*
X13799972Y3399998D03*
D43*
G01*
X13799972Y3199988D03*
D42*
G01*
X13799977Y2300000D03*
D43*
G01*
X13799977Y2099990D03*
M02*
